<?xml version="1.0" encoding="utf-8" standalone="no"?>
<!DOCTYPE svg PUBLIC "-//W3C//DTD SVG 1.1//EN"
  "http://www.w3.org/Graphics/SVG/1.1/DTD/svg11.dtd">
<!-- Created with matplotlib (http://matplotlib.org/) -->
<svg height="720pt" version="1.1" viewBox="0 0 1440 720" width="1440pt" xmlns="http://www.w3.org/2000/svg" xmlns:xlink="http://www.w3.org/1999/xlink">
 <defs>
  <style type="text/css">
*{stroke-linecap:butt;stroke-linejoin:round;}
  </style>
 </defs>
 <g id="figure_1">
  <g id="patch_1">
   <path d="M 0 720 
L 1440 720 
L 1440 0 
L 0 0 
z
" style="fill:#ffffff;"/>
  </g>
  <g id="axes_1">
   <g id="patch_2">
    <path d="M 63.425 296.033496 
L 1425.7 296.033496 
L 1425.7 26.8 
L 63.425 26.8 
z
" style="fill:#ffffff;"/>
   </g>
   <g id="matplotlib.axis_1">
    <g id="xtick_1">
     <g id="line2d_1">
      <path clip-path="url(#p93d1ec5fd1)" d="M 146.336961 296.033496 
L 146.336961 26.8 
" style="fill:none;stroke:#b0b0b0;stroke-linecap:square;stroke-width:0.8;"/>
     </g>
     <g id="line2d_2">
      <defs>
       <path d="M 0 0 
L 0 3.5 
" id="m87537a8804" style="stroke:#000000;stroke-width:0.8;"/>
      </defs>
      <g>
       <use style="stroke:#000000;stroke-width:0.8;" x="146.336961" xlink:href="#m87537a8804" y="296.033496"/>
      </g>
     </g>
     <g id="text_1">
      <!-- 2020-01-29 -->
      <defs>
       <path d="M 19.1875 8.296875 
L 53.609375 8.296875 
L 53.609375 0 
L 7.328125 0 
L 7.328125 8.296875 
Q 12.9375 14.109375 22.625 23.890625 
Q 32.328125 33.6875 34.8125 36.53125 
Q 39.546875 41.84375 41.421875 45.53125 
Q 43.3125 49.21875 43.3125 52.78125 
Q 43.3125 58.59375 39.234375 62.25 
Q 35.15625 65.921875 28.609375 65.921875 
Q 23.96875 65.921875 18.8125 64.3125 
Q 13.671875 62.703125 7.8125 59.421875 
L 7.8125 69.390625 
Q 13.765625 71.78125 18.9375 73 
Q 24.125 74.21875 28.421875 74.21875 
Q 39.75 74.21875 46.484375 68.546875 
Q 53.21875 62.890625 53.21875 53.421875 
Q 53.21875 48.921875 51.53125 44.890625 
Q 49.859375 40.875 45.40625 35.40625 
Q 44.1875 33.984375 37.640625 27.21875 
Q 31.109375 20.453125 19.1875 8.296875 
z
" id="DejaVuSans-32"/>
       <path d="M 31.78125 66.40625 
Q 24.171875 66.40625 20.328125 58.90625 
Q 16.5 51.421875 16.5 36.375 
Q 16.5 21.390625 20.328125 13.890625 
Q 24.171875 6.390625 31.78125 6.390625 
Q 39.453125 6.390625 43.28125 13.890625 
Q 47.125 21.390625 47.125 36.375 
Q 47.125 51.421875 43.28125 58.90625 
Q 39.453125 66.40625 31.78125 66.40625 
z
M 31.78125 74.21875 
Q 44.046875 74.21875 50.515625 64.515625 
Q 56.984375 54.828125 56.984375 36.375 
Q 56.984375 17.96875 50.515625 8.265625 
Q 44.046875 -1.421875 31.78125 -1.421875 
Q 19.53125 -1.421875 13.0625 8.265625 
Q 6.59375 17.96875 6.59375 36.375 
Q 6.59375 54.828125 13.0625 64.515625 
Q 19.53125 74.21875 31.78125 74.21875 
z
" id="DejaVuSans-30"/>
       <path d="M 4.890625 31.390625 
L 31.203125 31.390625 
L 31.203125 23.390625 
L 4.890625 23.390625 
z
" id="DejaVuSans-2d"/>
       <path d="M 12.40625 8.296875 
L 28.515625 8.296875 
L 28.515625 63.921875 
L 10.984375 60.40625 
L 10.984375 69.390625 
L 28.421875 72.90625 
L 38.28125 72.90625 
L 38.28125 8.296875 
L 54.390625 8.296875 
L 54.390625 0 
L 12.40625 0 
z
" id="DejaVuSans-31"/>
       <path d="M 10.984375 1.515625 
L 10.984375 10.5 
Q 14.703125 8.734375 18.5 7.8125 
Q 22.3125 6.890625 25.984375 6.890625 
Q 35.75 6.890625 40.890625 13.453125 
Q 46.046875 20.015625 46.78125 33.40625 
Q 43.953125 29.203125 39.59375 26.953125 
Q 35.25 24.703125 29.984375 24.703125 
Q 19.046875 24.703125 12.671875 31.3125 
Q 6.296875 37.9375 6.296875 49.421875 
Q 6.296875 60.640625 12.9375 67.421875 
Q 19.578125 74.21875 30.609375 74.21875 
Q 43.265625 74.21875 49.921875 64.515625 
Q 56.59375 54.828125 56.59375 36.375 
Q 56.59375 19.140625 48.40625 8.859375 
Q 40.234375 -1.421875 26.421875 -1.421875 
Q 22.703125 -1.421875 18.890625 -0.6875 
Q 15.09375 0.046875 10.984375 1.515625 
z
M 30.609375 32.421875 
Q 37.25 32.421875 41.125 36.953125 
Q 45.015625 41.5 45.015625 49.421875 
Q 45.015625 57.28125 41.125 61.84375 
Q 37.25 66.40625 30.609375 66.40625 
Q 23.96875 66.40625 20.09375 61.84375 
Q 16.21875 57.28125 16.21875 49.421875 
Q 16.21875 41.5 20.09375 36.953125 
Q 23.96875 32.421875 30.609375 32.421875 
z
" id="DejaVuSans-39"/>
      </defs>
      <g transform="translate(94.967509 338.671748)rotate(-30)scale(0.1 -0.1)">
       <use xlink:href="#DejaVuSans-32"/>
       <use x="63.623047" xlink:href="#DejaVuSans-30"/>
       <use x="127.246094" xlink:href="#DejaVuSans-32"/>
       <use x="190.869141" xlink:href="#DejaVuSans-30"/>
       <use x="254.492188" xlink:href="#DejaVuSans-2d"/>
       <use x="290.576172" xlink:href="#DejaVuSans-30"/>
       <use x="354.199219" xlink:href="#DejaVuSans-31"/>
       <use x="417.822266" xlink:href="#DejaVuSans-2d"/>
       <use x="453.90625" xlink:href="#DejaVuSans-32"/>
       <use x="517.529297" xlink:href="#DejaVuSans-39"/>
      </g>
     </g>
    </g>
    <g id="xtick_2">
     <g id="line2d_3">
      <path clip-path="url(#p93d1ec5fd1)" d="M 293.269549 296.033496 
L 293.269549 26.8 
" style="fill:none;stroke:#b0b0b0;stroke-linecap:square;stroke-width:0.8;"/>
     </g>
     <g id="line2d_4">
      <g>
       <use style="stroke:#000000;stroke-width:0.8;" x="293.269549" xlink:href="#m87537a8804" y="296.033496"/>
      </g>
     </g>
     <g id="text_2">
      <!-- 2020-02-05 -->
      <defs>
       <path d="M 10.796875 72.90625 
L 49.515625 72.90625 
L 49.515625 64.59375 
L 19.828125 64.59375 
L 19.828125 46.734375 
Q 21.96875 47.46875 24.109375 47.828125 
Q 26.265625 48.1875 28.421875 48.1875 
Q 40.625 48.1875 47.75 41.5 
Q 54.890625 34.8125 54.890625 23.390625 
Q 54.890625 11.625 47.5625 5.09375 
Q 40.234375 -1.421875 26.90625 -1.421875 
Q 22.3125 -1.421875 17.546875 -0.640625 
Q 12.796875 0.140625 7.71875 1.703125 
L 7.71875 11.625 
Q 12.109375 9.234375 16.796875 8.0625 
Q 21.484375 6.890625 26.703125 6.890625 
Q 35.15625 6.890625 40.078125 11.328125 
Q 45.015625 15.765625 45.015625 23.390625 
Q 45.015625 31 40.078125 35.4375 
Q 35.15625 39.890625 26.703125 39.890625 
Q 22.75 39.890625 18.8125 39.015625 
Q 14.890625 38.140625 10.796875 36.28125 
z
" id="DejaVuSans-35"/>
      </defs>
      <g transform="translate(241.900098 338.671748)rotate(-30)scale(0.1 -0.1)">
       <use xlink:href="#DejaVuSans-32"/>
       <use x="63.623047" xlink:href="#DejaVuSans-30"/>
       <use x="127.246094" xlink:href="#DejaVuSans-32"/>
       <use x="190.869141" xlink:href="#DejaVuSans-30"/>
       <use x="254.492188" xlink:href="#DejaVuSans-2d"/>
       <use x="290.576172" xlink:href="#DejaVuSans-30"/>
       <use x="354.199219" xlink:href="#DejaVuSans-32"/>
       <use x="417.822266" xlink:href="#DejaVuSans-2d"/>
       <use x="453.90625" xlink:href="#DejaVuSans-30"/>
       <use x="517.529297" xlink:href="#DejaVuSans-35"/>
      </g>
     </g>
    </g>
    <g id="xtick_3">
     <g id="line2d_5">
      <path clip-path="url(#p93d1ec5fd1)" d="M 440.202138 296.033496 
L 440.202138 26.8 
" style="fill:none;stroke:#b0b0b0;stroke-linecap:square;stroke-width:0.8;"/>
     </g>
     <g id="line2d_6">
      <g>
       <use style="stroke:#000000;stroke-width:0.8;" x="440.202138" xlink:href="#m87537a8804" y="296.033496"/>
      </g>
     </g>
     <g id="text_3">
      <!-- 2020-02-12 -->
      <g transform="translate(388.832687 338.671748)rotate(-30)scale(0.1 -0.1)">
       <use xlink:href="#DejaVuSans-32"/>
       <use x="63.623047" xlink:href="#DejaVuSans-30"/>
       <use x="127.246094" xlink:href="#DejaVuSans-32"/>
       <use x="190.869141" xlink:href="#DejaVuSans-30"/>
       <use x="254.492188" xlink:href="#DejaVuSans-2d"/>
       <use x="290.576172" xlink:href="#DejaVuSans-30"/>
       <use x="354.199219" xlink:href="#DejaVuSans-32"/>
       <use x="417.822266" xlink:href="#DejaVuSans-2d"/>
       <use x="453.90625" xlink:href="#DejaVuSans-31"/>
       <use x="517.529297" xlink:href="#DejaVuSans-32"/>
      </g>
     </g>
    </g>
    <g id="xtick_4">
     <g id="line2d_7">
      <path clip-path="url(#p93d1ec5fd1)" d="M 587.134727 296.033496 
L 587.134727 26.8 
" style="fill:none;stroke:#b0b0b0;stroke-linecap:square;stroke-width:0.8;"/>
     </g>
     <g id="line2d_8">
      <g>
       <use style="stroke:#000000;stroke-width:0.8;" x="587.134727" xlink:href="#m87537a8804" y="296.033496"/>
      </g>
     </g>
     <g id="text_4">
      <!-- 2020-02-19 -->
      <g transform="translate(535.765275 338.671748)rotate(-30)scale(0.1 -0.1)">
       <use xlink:href="#DejaVuSans-32"/>
       <use x="63.623047" xlink:href="#DejaVuSans-30"/>
       <use x="127.246094" xlink:href="#DejaVuSans-32"/>
       <use x="190.869141" xlink:href="#DejaVuSans-30"/>
       <use x="254.492188" xlink:href="#DejaVuSans-2d"/>
       <use x="290.576172" xlink:href="#DejaVuSans-30"/>
       <use x="354.199219" xlink:href="#DejaVuSans-32"/>
       <use x="417.822266" xlink:href="#DejaVuSans-2d"/>
       <use x="453.90625" xlink:href="#DejaVuSans-31"/>
       <use x="517.529297" xlink:href="#DejaVuSans-39"/>
      </g>
     </g>
    </g>
    <g id="xtick_5">
     <g id="line2d_9">
      <path clip-path="url(#p93d1ec5fd1)" d="M 734.067315 296.033496 
L 734.067315 26.8 
" style="fill:none;stroke:#b0b0b0;stroke-linecap:square;stroke-width:0.8;"/>
     </g>
     <g id="line2d_10">
      <g>
       <use style="stroke:#000000;stroke-width:0.8;" x="734.067315" xlink:href="#m87537a8804" y="296.033496"/>
      </g>
     </g>
     <g id="text_5">
      <!-- 2020-02-26 -->
      <defs>
       <path d="M 33.015625 40.375 
Q 26.375 40.375 22.484375 35.828125 
Q 18.609375 31.296875 18.609375 23.390625 
Q 18.609375 15.53125 22.484375 10.953125 
Q 26.375 6.390625 33.015625 6.390625 
Q 39.65625 6.390625 43.53125 10.953125 
Q 47.40625 15.53125 47.40625 23.390625 
Q 47.40625 31.296875 43.53125 35.828125 
Q 39.65625 40.375 33.015625 40.375 
z
M 52.59375 71.296875 
L 52.59375 62.3125 
Q 48.875 64.0625 45.09375 64.984375 
Q 41.3125 65.921875 37.59375 65.921875 
Q 27.828125 65.921875 22.671875 59.328125 
Q 17.53125 52.734375 16.796875 39.40625 
Q 19.671875 43.65625 24.015625 45.921875 
Q 28.375 48.1875 33.59375 48.1875 
Q 44.578125 48.1875 50.953125 41.515625 
Q 57.328125 34.859375 57.328125 23.390625 
Q 57.328125 12.15625 50.6875 5.359375 
Q 44.046875 -1.421875 33.015625 -1.421875 
Q 20.359375 -1.421875 13.671875 8.265625 
Q 6.984375 17.96875 6.984375 36.375 
Q 6.984375 53.65625 15.1875 63.9375 
Q 23.390625 74.21875 37.203125 74.21875 
Q 40.921875 74.21875 44.703125 73.484375 
Q 48.484375 72.75 52.59375 71.296875 
z
" id="DejaVuSans-36"/>
      </defs>
      <g transform="translate(682.697864 338.671748)rotate(-30)scale(0.1 -0.1)">
       <use xlink:href="#DejaVuSans-32"/>
       <use x="63.623047" xlink:href="#DejaVuSans-30"/>
       <use x="127.246094" xlink:href="#DejaVuSans-32"/>
       <use x="190.869141" xlink:href="#DejaVuSans-30"/>
       <use x="254.492188" xlink:href="#DejaVuSans-2d"/>
       <use x="290.576172" xlink:href="#DejaVuSans-30"/>
       <use x="354.199219" xlink:href="#DejaVuSans-32"/>
       <use x="417.822266" xlink:href="#DejaVuSans-2d"/>
       <use x="453.90625" xlink:href="#DejaVuSans-32"/>
       <use x="517.529297" xlink:href="#DejaVuSans-36"/>
      </g>
     </g>
    </g>
    <g id="xtick_6">
     <g id="line2d_11">
      <path clip-path="url(#p93d1ec5fd1)" d="M 880.999904 296.033496 
L 880.999904 26.8 
" style="fill:none;stroke:#b0b0b0;stroke-linecap:square;stroke-width:0.8;"/>
     </g>
     <g id="line2d_12">
      <g>
       <use style="stroke:#000000;stroke-width:0.8;" x="880.999904" xlink:href="#m87537a8804" y="296.033496"/>
      </g>
     </g>
     <g id="text_6">
      <!-- 2020-03-04 -->
      <defs>
       <path d="M 40.578125 39.3125 
Q 47.65625 37.796875 51.625 33 
Q 55.609375 28.21875 55.609375 21.1875 
Q 55.609375 10.40625 48.1875 4.484375 
Q 40.765625 -1.421875 27.09375 -1.421875 
Q 22.515625 -1.421875 17.65625 -0.515625 
Q 12.796875 0.390625 7.625 2.203125 
L 7.625 11.71875 
Q 11.71875 9.328125 16.59375 8.109375 
Q 21.484375 6.890625 26.8125 6.890625 
Q 36.078125 6.890625 40.9375 10.546875 
Q 45.796875 14.203125 45.796875 21.1875 
Q 45.796875 27.640625 41.28125 31.265625 
Q 36.765625 34.90625 28.71875 34.90625 
L 20.21875 34.90625 
L 20.21875 43.015625 
L 29.109375 43.015625 
Q 36.375 43.015625 40.234375 45.921875 
Q 44.09375 48.828125 44.09375 54.296875 
Q 44.09375 59.90625 40.109375 62.90625 
Q 36.140625 65.921875 28.71875 65.921875 
Q 24.65625 65.921875 20.015625 65.03125 
Q 15.375 64.15625 9.8125 62.3125 
L 9.8125 71.09375 
Q 15.4375 72.65625 20.34375 73.4375 
Q 25.25 74.21875 29.59375 74.21875 
Q 40.828125 74.21875 47.359375 69.109375 
Q 53.90625 64.015625 53.90625 55.328125 
Q 53.90625 49.265625 50.4375 45.09375 
Q 46.96875 40.921875 40.578125 39.3125 
z
" id="DejaVuSans-33"/>
       <path d="M 37.796875 64.3125 
L 12.890625 25.390625 
L 37.796875 25.390625 
z
M 35.203125 72.90625 
L 47.609375 72.90625 
L 47.609375 25.390625 
L 58.015625 25.390625 
L 58.015625 17.1875 
L 47.609375 17.1875 
L 47.609375 0 
L 37.796875 0 
L 37.796875 17.1875 
L 4.890625 17.1875 
L 4.890625 26.703125 
z
" id="DejaVuSans-34"/>
      </defs>
      <g transform="translate(829.630452 338.671748)rotate(-30)scale(0.1 -0.1)">
       <use xlink:href="#DejaVuSans-32"/>
       <use x="63.623047" xlink:href="#DejaVuSans-30"/>
       <use x="127.246094" xlink:href="#DejaVuSans-32"/>
       <use x="190.869141" xlink:href="#DejaVuSans-30"/>
       <use x="254.492188" xlink:href="#DejaVuSans-2d"/>
       <use x="290.576172" xlink:href="#DejaVuSans-30"/>
       <use x="354.199219" xlink:href="#DejaVuSans-33"/>
       <use x="417.822266" xlink:href="#DejaVuSans-2d"/>
       <use x="453.90625" xlink:href="#DejaVuSans-30"/>
       <use x="517.529297" xlink:href="#DejaVuSans-34"/>
      </g>
     </g>
    </g>
    <g id="xtick_7">
     <g id="line2d_13">
      <path clip-path="url(#p93d1ec5fd1)" d="M 1027.932492 296.033496 
L 1027.932492 26.8 
" style="fill:none;stroke:#b0b0b0;stroke-linecap:square;stroke-width:0.8;"/>
     </g>
     <g id="line2d_14">
      <g>
       <use style="stroke:#000000;stroke-width:0.8;" x="1027.932492" xlink:href="#m87537a8804" y="296.033496"/>
      </g>
     </g>
     <g id="text_7">
      <!-- 2020-03-11 -->
      <g transform="translate(976.563041 338.671748)rotate(-30)scale(0.1 -0.1)">
       <use xlink:href="#DejaVuSans-32"/>
       <use x="63.623047" xlink:href="#DejaVuSans-30"/>
       <use x="127.246094" xlink:href="#DejaVuSans-32"/>
       <use x="190.869141" xlink:href="#DejaVuSans-30"/>
       <use x="254.492188" xlink:href="#DejaVuSans-2d"/>
       <use x="290.576172" xlink:href="#DejaVuSans-30"/>
       <use x="354.199219" xlink:href="#DejaVuSans-33"/>
       <use x="417.822266" xlink:href="#DejaVuSans-2d"/>
       <use x="453.90625" xlink:href="#DejaVuSans-31"/>
       <use x="517.529297" xlink:href="#DejaVuSans-31"/>
      </g>
     </g>
    </g>
    <g id="xtick_8">
     <g id="line2d_15">
      <path clip-path="url(#p93d1ec5fd1)" d="M 1174.865081 296.033496 
L 1174.865081 26.8 
" style="fill:none;stroke:#b0b0b0;stroke-linecap:square;stroke-width:0.8;"/>
     </g>
     <g id="line2d_16">
      <g>
       <use style="stroke:#000000;stroke-width:0.8;" x="1174.865081" xlink:href="#m87537a8804" y="296.033496"/>
      </g>
     </g>
     <g id="text_8">
      <!-- 2020-03-18 -->
      <defs>
       <path d="M 31.78125 34.625 
Q 24.75 34.625 20.71875 30.859375 
Q 16.703125 27.09375 16.703125 20.515625 
Q 16.703125 13.921875 20.71875 10.15625 
Q 24.75 6.390625 31.78125 6.390625 
Q 38.8125 6.390625 42.859375 10.171875 
Q 46.921875 13.96875 46.921875 20.515625 
Q 46.921875 27.09375 42.890625 30.859375 
Q 38.875 34.625 31.78125 34.625 
z
M 21.921875 38.8125 
Q 15.578125 40.375 12.03125 44.71875 
Q 8.5 49.078125 8.5 55.328125 
Q 8.5 64.0625 14.71875 69.140625 
Q 20.953125 74.21875 31.78125 74.21875 
Q 42.671875 74.21875 48.875 69.140625 
Q 55.078125 64.0625 55.078125 55.328125 
Q 55.078125 49.078125 51.53125 44.71875 
Q 48 40.375 41.703125 38.8125 
Q 48.828125 37.15625 52.796875 32.3125 
Q 56.78125 27.484375 56.78125 20.515625 
Q 56.78125 9.90625 50.3125 4.234375 
Q 43.84375 -1.421875 31.78125 -1.421875 
Q 19.734375 -1.421875 13.25 4.234375 
Q 6.78125 9.90625 6.78125 20.515625 
Q 6.78125 27.484375 10.78125 32.3125 
Q 14.796875 37.15625 21.921875 38.8125 
z
M 18.3125 54.390625 
Q 18.3125 48.734375 21.84375 45.5625 
Q 25.390625 42.390625 31.78125 42.390625 
Q 38.140625 42.390625 41.71875 45.5625 
Q 45.3125 48.734375 45.3125 54.390625 
Q 45.3125 60.0625 41.71875 63.234375 
Q 38.140625 66.40625 31.78125 66.40625 
Q 25.390625 66.40625 21.84375 63.234375 
Q 18.3125 60.0625 18.3125 54.390625 
z
" id="DejaVuSans-38"/>
      </defs>
      <g transform="translate(1123.49563 338.671748)rotate(-30)scale(0.1 -0.1)">
       <use xlink:href="#DejaVuSans-32"/>
       <use x="63.623047" xlink:href="#DejaVuSans-30"/>
       <use x="127.246094" xlink:href="#DejaVuSans-32"/>
       <use x="190.869141" xlink:href="#DejaVuSans-30"/>
       <use x="254.492188" xlink:href="#DejaVuSans-2d"/>
       <use x="290.576172" xlink:href="#DejaVuSans-30"/>
       <use x="354.199219" xlink:href="#DejaVuSans-33"/>
       <use x="417.822266" xlink:href="#DejaVuSans-2d"/>
       <use x="453.90625" xlink:href="#DejaVuSans-31"/>
       <use x="517.529297" xlink:href="#DejaVuSans-38"/>
      </g>
     </g>
    </g>
    <g id="xtick_9">
     <g id="line2d_17">
      <path clip-path="url(#p93d1ec5fd1)" d="M 1321.797669 296.033496 
L 1321.797669 26.8 
" style="fill:none;stroke:#b0b0b0;stroke-linecap:square;stroke-width:0.8;"/>
     </g>
     <g id="line2d_18">
      <g>
       <use style="stroke:#000000;stroke-width:0.8;" x="1321.797669" xlink:href="#m87537a8804" y="296.033496"/>
      </g>
     </g>
     <g id="text_9">
      <!-- 2020-03-25 -->
      <g transform="translate(1270.428218 338.671748)rotate(-30)scale(0.1 -0.1)">
       <use xlink:href="#DejaVuSans-32"/>
       <use x="63.623047" xlink:href="#DejaVuSans-30"/>
       <use x="127.246094" xlink:href="#DejaVuSans-32"/>
       <use x="190.869141" xlink:href="#DejaVuSans-30"/>
       <use x="254.492188" xlink:href="#DejaVuSans-2d"/>
       <use x="290.576172" xlink:href="#DejaVuSans-30"/>
       <use x="354.199219" xlink:href="#DejaVuSans-33"/>
       <use x="417.822266" xlink:href="#DejaVuSans-2d"/>
       <use x="453.90625" xlink:href="#DejaVuSans-32"/>
       <use x="517.529297" xlink:href="#DejaVuSans-35"/>
      </g>
     </g>
    </g>
    <g id="text_10">
     <!-- Date -->
     <defs>
      <path d="M 19.671875 64.796875 
L 19.671875 8.109375 
L 31.59375 8.109375 
Q 46.6875 8.109375 53.6875 14.9375 
Q 60.6875 21.78125 60.6875 36.53125 
Q 60.6875 51.171875 53.6875 57.984375 
Q 46.6875 64.796875 31.59375 64.796875 
z
M 9.8125 72.90625 
L 30.078125 72.90625 
Q 51.265625 72.90625 61.171875 64.09375 
Q 71.09375 55.28125 71.09375 36.53125 
Q 71.09375 17.671875 61.125 8.828125 
Q 51.171875 0 30.078125 0 
L 9.8125 0 
z
" id="DejaVuSans-44"/>
      <path d="M 34.28125 27.484375 
Q 23.390625 27.484375 19.1875 25 
Q 14.984375 22.515625 14.984375 16.5 
Q 14.984375 11.71875 18.140625 8.90625 
Q 21.296875 6.109375 26.703125 6.109375 
Q 34.1875 6.109375 38.703125 11.40625 
Q 43.21875 16.703125 43.21875 25.484375 
L 43.21875 27.484375 
z
M 52.203125 31.203125 
L 52.203125 0 
L 43.21875 0 
L 43.21875 8.296875 
Q 40.140625 3.328125 35.546875 0.953125 
Q 30.953125 -1.421875 24.3125 -1.421875 
Q 15.921875 -1.421875 10.953125 3.296875 
Q 6 8.015625 6 15.921875 
Q 6 25.140625 12.171875 29.828125 
Q 18.359375 34.515625 30.609375 34.515625 
L 43.21875 34.515625 
L 43.21875 35.40625 
Q 43.21875 41.609375 39.140625 45 
Q 35.0625 48.390625 27.6875 48.390625 
Q 23 48.390625 18.546875 47.265625 
Q 14.109375 46.140625 10.015625 43.890625 
L 10.015625 52.203125 
Q 14.9375 54.109375 19.578125 55.046875 
Q 24.21875 56 28.609375 56 
Q 40.484375 56 46.34375 49.84375 
Q 52.203125 43.703125 52.203125 31.203125 
z
" id="DejaVuSans-61"/>
      <path d="M 18.3125 70.21875 
L 18.3125 54.6875 
L 36.8125 54.6875 
L 36.8125 47.703125 
L 18.3125 47.703125 
L 18.3125 18.015625 
Q 18.3125 11.328125 20.140625 9.421875 
Q 21.96875 7.515625 27.59375 7.515625 
L 36.8125 7.515625 
L 36.8125 0 
L 27.59375 0 
Q 17.1875 0 13.234375 3.875 
Q 9.28125 7.765625 9.28125 18.015625 
L 9.28125 47.703125 
L 2.6875 47.703125 
L 2.6875 54.6875 
L 9.28125 54.6875 
L 9.28125 70.21875 
z
" id="DejaVuSans-74"/>
      <path d="M 56.203125 29.59375 
L 56.203125 25.203125 
L 14.890625 25.203125 
Q 15.484375 15.921875 20.484375 11.0625 
Q 25.484375 6.203125 34.421875 6.203125 
Q 39.59375 6.203125 44.453125 7.46875 
Q 49.3125 8.734375 54.109375 11.28125 
L 54.109375 2.78125 
Q 49.265625 0.734375 44.1875 -0.34375 
Q 39.109375 -1.421875 33.890625 -1.421875 
Q 20.796875 -1.421875 13.15625 6.1875 
Q 5.515625 13.8125 5.515625 26.8125 
Q 5.515625 40.234375 12.765625 48.109375 
Q 20.015625 56 32.328125 56 
Q 43.359375 56 49.78125 48.890625 
Q 56.203125 41.796875 56.203125 29.59375 
z
M 47.21875 32.234375 
Q 47.125 39.59375 43.09375 43.984375 
Q 39.0625 48.390625 32.421875 48.390625 
Q 24.90625 48.390625 20.390625 44.140625 
Q 15.875 39.890625 15.1875 32.171875 
z
" id="DejaVuSans-65"/>
     </defs>
     <g transform="translate(732.611719 352.071248)scale(0.1 -0.1)">
      <use xlink:href="#DejaVuSans-44"/>
      <use x="77.001953" xlink:href="#DejaVuSans-61"/>
      <use x="138.28125" xlink:href="#DejaVuSans-74"/>
      <use x="177.490234" xlink:href="#DejaVuSans-65"/>
     </g>
    </g>
   </g>
   <g id="matplotlib.axis_2">
    <g id="ytick_1">
     <g id="line2d_19">
      <path clip-path="url(#p93d1ec5fd1)" d="M 63.425 253.019228 
L 1425.7 253.019228 
" style="fill:none;stroke:#b0b0b0;stroke-linecap:square;stroke-width:0.8;"/>
     </g>
     <g id="line2d_20">
      <defs>
       <path d="M 0 0 
L -3.5 0 
" id="m837f0cf7a0" style="stroke:#000000;stroke-width:0.8;"/>
      </defs>
      <g>
       <use style="stroke:#000000;stroke-width:0.8;" x="63.425" xlink:href="#m837f0cf7a0" y="253.019228"/>
      </g>
     </g>
     <g id="text_11">
      <!-- 20000 -->
      <g transform="translate(24.6125 256.818447)scale(0.1 -0.1)">
       <use xlink:href="#DejaVuSans-32"/>
       <use x="63.623047" xlink:href="#DejaVuSans-30"/>
       <use x="127.246094" xlink:href="#DejaVuSans-30"/>
       <use x="190.869141" xlink:href="#DejaVuSans-30"/>
       <use x="254.492188" xlink:href="#DejaVuSans-30"/>
      </g>
     </g>
    </g>
    <g id="ytick_2">
     <g id="line2d_21">
      <path clip-path="url(#p93d1ec5fd1)" d="M 63.425 209.30496 
L 1425.7 209.30496 
" style="fill:none;stroke:#b0b0b0;stroke-linecap:square;stroke-width:0.8;"/>
     </g>
     <g id="line2d_22">
      <g>
       <use style="stroke:#000000;stroke-width:0.8;" x="63.425" xlink:href="#m837f0cf7a0" y="209.30496"/>
      </g>
     </g>
     <g id="text_12">
      <!-- 22000 -->
      <g transform="translate(24.6125 213.104179)scale(0.1 -0.1)">
       <use xlink:href="#DejaVuSans-32"/>
       <use x="63.623047" xlink:href="#DejaVuSans-32"/>
       <use x="127.246094" xlink:href="#DejaVuSans-30"/>
       <use x="190.869141" xlink:href="#DejaVuSans-30"/>
       <use x="254.492188" xlink:href="#DejaVuSans-30"/>
      </g>
     </g>
    </g>
    <g id="ytick_3">
     <g id="line2d_23">
      <path clip-path="url(#p93d1ec5fd1)" d="M 63.425 165.590692 
L 1425.7 165.590692 
" style="fill:none;stroke:#b0b0b0;stroke-linecap:square;stroke-width:0.8;"/>
     </g>
     <g id="line2d_24">
      <g>
       <use style="stroke:#000000;stroke-width:0.8;" x="63.425" xlink:href="#m837f0cf7a0" y="165.590692"/>
      </g>
     </g>
     <g id="text_13">
      <!-- 24000 -->
      <g transform="translate(24.6125 169.389911)scale(0.1 -0.1)">
       <use xlink:href="#DejaVuSans-32"/>
       <use x="63.623047" xlink:href="#DejaVuSans-34"/>
       <use x="127.246094" xlink:href="#DejaVuSans-30"/>
       <use x="190.869141" xlink:href="#DejaVuSans-30"/>
       <use x="254.492188" xlink:href="#DejaVuSans-30"/>
      </g>
     </g>
    </g>
    <g id="ytick_4">
     <g id="line2d_25">
      <path clip-path="url(#p93d1ec5fd1)" d="M 63.425 121.876424 
L 1425.7 121.876424 
" style="fill:none;stroke:#b0b0b0;stroke-linecap:square;stroke-width:0.8;"/>
     </g>
     <g id="line2d_26">
      <g>
       <use style="stroke:#000000;stroke-width:0.8;" x="63.425" xlink:href="#m837f0cf7a0" y="121.876424"/>
      </g>
     </g>
     <g id="text_14">
      <!-- 26000 -->
      <g transform="translate(24.6125 125.675643)scale(0.1 -0.1)">
       <use xlink:href="#DejaVuSans-32"/>
       <use x="63.623047" xlink:href="#DejaVuSans-36"/>
       <use x="127.246094" xlink:href="#DejaVuSans-30"/>
       <use x="190.869141" xlink:href="#DejaVuSans-30"/>
       <use x="254.492188" xlink:href="#DejaVuSans-30"/>
      </g>
     </g>
    </g>
    <g id="ytick_5">
     <g id="line2d_27">
      <path clip-path="url(#p93d1ec5fd1)" d="M 63.425 78.162156 
L 1425.7 78.162156 
" style="fill:none;stroke:#b0b0b0;stroke-linecap:square;stroke-width:0.8;"/>
     </g>
     <g id="line2d_28">
      <g>
       <use style="stroke:#000000;stroke-width:0.8;" x="63.425" xlink:href="#m837f0cf7a0" y="78.162156"/>
      </g>
     </g>
     <g id="text_15">
      <!-- 28000 -->
      <g transform="translate(24.6125 81.961375)scale(0.1 -0.1)">
       <use xlink:href="#DejaVuSans-32"/>
       <use x="63.623047" xlink:href="#DejaVuSans-38"/>
       <use x="127.246094" xlink:href="#DejaVuSans-30"/>
       <use x="190.869141" xlink:href="#DejaVuSans-30"/>
       <use x="254.492188" xlink:href="#DejaVuSans-30"/>
      </g>
     </g>
    </g>
    <g id="ytick_6">
     <g id="line2d_29">
      <path clip-path="url(#p93d1ec5fd1)" d="M 63.425 34.447888 
L 1425.7 34.447888 
" style="fill:none;stroke:#b0b0b0;stroke-linecap:square;stroke-width:0.8;"/>
     </g>
     <g id="line2d_30">
      <g>
       <use style="stroke:#000000;stroke-width:0.8;" x="63.425" xlink:href="#m837f0cf7a0" y="34.447888"/>
      </g>
     </g>
     <g id="text_16">
      <!-- 30000 -->
      <g transform="translate(24.6125 38.247107)scale(0.1 -0.1)">
       <use xlink:href="#DejaVuSans-33"/>
       <use x="63.623047" xlink:href="#DejaVuSans-30"/>
       <use x="127.246094" xlink:href="#DejaVuSans-30"/>
       <use x="190.869141" xlink:href="#DejaVuSans-30"/>
       <use x="254.492188" xlink:href="#DejaVuSans-30"/>
      </g>
     </g>
    </g>
    <g id="text_17">
     <!-- Close Price -->
     <defs>
      <path d="M 64.40625 67.28125 
L 64.40625 56.890625 
Q 59.421875 61.53125 53.78125 63.8125 
Q 48.140625 66.109375 41.796875 66.109375 
Q 29.296875 66.109375 22.65625 58.46875 
Q 16.015625 50.828125 16.015625 36.375 
Q 16.015625 21.96875 22.65625 14.328125 
Q 29.296875 6.6875 41.796875 6.6875 
Q 48.140625 6.6875 53.78125 8.984375 
Q 59.421875 11.28125 64.40625 15.921875 
L 64.40625 5.609375 
Q 59.234375 2.09375 53.4375 0.328125 
Q 47.65625 -1.421875 41.21875 -1.421875 
Q 24.65625 -1.421875 15.125 8.703125 
Q 5.609375 18.84375 5.609375 36.375 
Q 5.609375 53.953125 15.125 64.078125 
Q 24.65625 74.21875 41.21875 74.21875 
Q 47.75 74.21875 53.53125 72.484375 
Q 59.328125 70.75 64.40625 67.28125 
z
" id="DejaVuSans-43"/>
      <path d="M 9.421875 75.984375 
L 18.40625 75.984375 
L 18.40625 0 
L 9.421875 0 
z
" id="DejaVuSans-6c"/>
      <path d="M 30.609375 48.390625 
Q 23.390625 48.390625 19.1875 42.75 
Q 14.984375 37.109375 14.984375 27.296875 
Q 14.984375 17.484375 19.15625 11.84375 
Q 23.34375 6.203125 30.609375 6.203125 
Q 37.796875 6.203125 41.984375 11.859375 
Q 46.1875 17.53125 46.1875 27.296875 
Q 46.1875 37.015625 41.984375 42.703125 
Q 37.796875 48.390625 30.609375 48.390625 
z
M 30.609375 56 
Q 42.328125 56 49.015625 48.375 
Q 55.71875 40.765625 55.71875 27.296875 
Q 55.71875 13.875 49.015625 6.21875 
Q 42.328125 -1.421875 30.609375 -1.421875 
Q 18.84375 -1.421875 12.171875 6.21875 
Q 5.515625 13.875 5.515625 27.296875 
Q 5.515625 40.765625 12.171875 48.375 
Q 18.84375 56 30.609375 56 
z
" id="DejaVuSans-6f"/>
      <path d="M 44.28125 53.078125 
L 44.28125 44.578125 
Q 40.484375 46.53125 36.375 47.5 
Q 32.28125 48.484375 27.875 48.484375 
Q 21.1875 48.484375 17.84375 46.4375 
Q 14.5 44.390625 14.5 40.28125 
Q 14.5 37.15625 16.890625 35.375 
Q 19.28125 33.59375 26.515625 31.984375 
L 29.59375 31.296875 
Q 39.15625 29.25 43.1875 25.515625 
Q 47.21875 21.78125 47.21875 15.09375 
Q 47.21875 7.46875 41.1875 3.015625 
Q 35.15625 -1.421875 24.609375 -1.421875 
Q 20.21875 -1.421875 15.453125 -0.5625 
Q 10.6875 0.296875 5.421875 2 
L 5.421875 11.28125 
Q 10.40625 8.6875 15.234375 7.390625 
Q 20.0625 6.109375 24.8125 6.109375 
Q 31.15625 6.109375 34.5625 8.28125 
Q 37.984375 10.453125 37.984375 14.40625 
Q 37.984375 18.0625 35.515625 20.015625 
Q 33.0625 21.96875 24.703125 23.78125 
L 21.578125 24.515625 
Q 13.234375 26.265625 9.515625 29.90625 
Q 5.8125 33.546875 5.8125 39.890625 
Q 5.8125 47.609375 11.28125 51.796875 
Q 16.75 56 26.8125 56 
Q 31.78125 56 36.171875 55.265625 
Q 40.578125 54.546875 44.28125 53.078125 
z
" id="DejaVuSans-73"/>
      <path id="DejaVuSans-20"/>
      <path d="M 19.671875 64.796875 
L 19.671875 37.40625 
L 32.078125 37.40625 
Q 38.96875 37.40625 42.71875 40.96875 
Q 46.484375 44.53125 46.484375 51.125 
Q 46.484375 57.671875 42.71875 61.234375 
Q 38.96875 64.796875 32.078125 64.796875 
z
M 9.8125 72.90625 
L 32.078125 72.90625 
Q 44.34375 72.90625 50.609375 67.359375 
Q 56.890625 61.8125 56.890625 51.125 
Q 56.890625 40.328125 50.609375 34.8125 
Q 44.34375 29.296875 32.078125 29.296875 
L 19.671875 29.296875 
L 19.671875 0 
L 9.8125 0 
z
" id="DejaVuSans-50"/>
      <path d="M 41.109375 46.296875 
Q 39.59375 47.171875 37.8125 47.578125 
Q 36.03125 48 33.890625 48 
Q 26.265625 48 22.1875 43.046875 
Q 18.109375 38.09375 18.109375 28.8125 
L 18.109375 0 
L 9.078125 0 
L 9.078125 54.6875 
L 18.109375 54.6875 
L 18.109375 46.1875 
Q 20.953125 51.171875 25.484375 53.578125 
Q 30.03125 56 36.53125 56 
Q 37.453125 56 38.578125 55.875 
Q 39.703125 55.765625 41.0625 55.515625 
z
" id="DejaVuSans-72"/>
      <path d="M 9.421875 54.6875 
L 18.40625 54.6875 
L 18.40625 0 
L 9.421875 0 
z
M 9.421875 75.984375 
L 18.40625 75.984375 
L 18.40625 64.59375 
L 9.421875 64.59375 
z
" id="DejaVuSans-69"/>
      <path d="M 48.78125 52.59375 
L 48.78125 44.1875 
Q 44.96875 46.296875 41.140625 47.34375 
Q 37.3125 48.390625 33.40625 48.390625 
Q 24.65625 48.390625 19.8125 42.84375 
Q 14.984375 37.3125 14.984375 27.296875 
Q 14.984375 17.28125 19.8125 11.734375 
Q 24.65625 6.203125 33.40625 6.203125 
Q 37.3125 6.203125 41.140625 7.25 
Q 44.96875 8.296875 48.78125 10.40625 
L 48.78125 2.09375 
Q 45.015625 0.34375 40.984375 -0.53125 
Q 36.96875 -1.421875 32.421875 -1.421875 
Q 20.0625 -1.421875 12.78125 6.34375 
Q 5.515625 14.109375 5.515625 27.296875 
Q 5.515625 40.671875 12.859375 48.328125 
Q 20.21875 56 33.015625 56 
Q 37.15625 56 41.109375 55.140625 
Q 45.0625 54.296875 48.78125 52.59375 
z
" id="DejaVuSans-63"/>
     </defs>
     <g transform="translate(18.532812 188.911279)rotate(-90)scale(0.1 -0.1)">
      <use xlink:href="#DejaVuSans-43"/>
      <use x="69.824219" xlink:href="#DejaVuSans-6c"/>
      <use x="97.607422" xlink:href="#DejaVuSans-6f"/>
      <use x="158.789062" xlink:href="#DejaVuSans-73"/>
      <use x="210.888672" xlink:href="#DejaVuSans-65"/>
      <use x="272.412109" xlink:href="#DejaVuSans-20"/>
      <use x="304.199219" xlink:href="#DejaVuSans-50"/>
      <use x="364.486328" xlink:href="#DejaVuSans-72"/>
      <use x="405.599609" xlink:href="#DejaVuSans-69"/>
      <use x="433.382812" xlink:href="#DejaVuSans-63"/>
      <use x="488.363281" xlink:href="#DejaVuSans-65"/>
     </g>
    </g>
   </g>
   <g id="line2d_31">
    <path clip-path="url(#p93d1ec5fd1)" d="M 125.346591 62.362736 
L 146.336961 62.109202 
L 167.327331 59.377272 
L 188.3177 72.566089 
L 251.28881 69.423444 
L 272.27918 60.509659 
L 293.269549 49.947883 
L 314.259919 48.004349 
L 335.250289 54.064452 
L 398.221398 50.254524 
L 419.211768 50.265026 
L 440.202138 44.252563 
L 461.192508 47.052668 
L 482.182878 47.604132 
L 566.144357 51.230025 
L 587.134727 48.698099 
L 608.125096 51.496879 
L 629.115466 56.470913 
L 692.086576 79.018938 
L 713.076945 98.241007 
L 734.067315 100.946256 
L 755.057685 126.976992 
L 776.048055 134.786135 
L 839.019164 106.503858 
L 860.009534 123.681601 
L 880.999904 98.033364 
L 901.990273 119.225606 
L 922.980643 124.831961 
L 985.951753 168.846979 
L 1006.942122 143.336628 
L 1027.932492 175.356007 
L 1048.922862 226.777136 
L 1069.913232 183.390725 
L 1132.884341 248.898733 
L 1153.874711 225.973628 
L 1174.865081 255.22855 
L 1195.855451 251.113516 
L 1216.84582 271.073647 
L 1279.81693 283.79561 
L 1300.8073 237.611912 
L 1321.797669 226.778629 
L 1342.788039 197.236109 
L 1363.778409 217.243924 
" style="fill:none;stroke:#1f77b4;stroke-linecap:square;stroke-width:1.5;"/>
   </g>
   <g id="line2d_32">
    <path clip-path="url(#p93d1ec5fd1)" d="M 125.346591 85.812153 
L 146.336961 78.031013 
L 167.327331 70.949302 
L 188.3177 64.720019 
L 251.28881 50.250596 
L 272.27918 46.797169 
L 293.269549 44.04317 
L 314.259919 41.835599 
L 335.250289 40.3056 
L 398.221398 39.037886 
L 419.211768 39.6936 
L 440.202138 40.852028 
L 461.192508 42.491313 
L 482.182878 44.567741 
L 566.144357 56.917022 
L 587.134727 60.916877 
L 608.125096 65.222733 
L 629.115466 69.834588 
L 692.086576 85.287582 
L 713.076945 90.839294 
L 734.067315 96.631434 
L 755.057685 102.532861 
L 776.048055 108.631001 
L 839.019164 127.471851 
L 860.009534 133.919705 
L 880.999904 140.36756 
L 901.990273 146.837271 
L 922.980643 153.285126 
L 985.951753 172.32269 
L 1006.942122 178.508259 
L 1027.932492 184.562685 
L 1048.922862 190.442254 
L 1069.913232 196.19068 
L 1132.884341 212.190102 
L 1153.874711 217.020529 
L 1174.865081 221.58867 
L 1195.855451 225.850811 
L 1216.84582 229.806952 
L 1279.81693 239.467805 
L 1300.8073 241.893947 
L 1321.797669 243.861089 
L 1342.788039 245.412946 
L 1363.778409 246.483945 
" style="fill:none;stroke:#ff0000;stroke-dasharray:5.55,2.4;stroke-dashoffset:0;stroke-width:1.5;"/>
   </g>
   <g id="patch_3">
    <path d="M 63.425 296.033496 
L 63.425 26.8 
" style="fill:none;stroke:#000000;stroke-linecap:square;stroke-linejoin:miter;stroke-width:0.8;"/>
   </g>
   <g id="patch_4">
    <path d="M 1425.7 296.033496 
L 1425.7 26.8 
" style="fill:none;stroke:#000000;stroke-linecap:square;stroke-linejoin:miter;stroke-width:0.8;"/>
   </g>
   <g id="patch_5">
    <path d="M 63.425 296.033496 
L 1425.7 296.033496 
" style="fill:none;stroke:#000000;stroke-linecap:square;stroke-linejoin:miter;stroke-width:0.8;"/>
   </g>
   <g id="patch_6">
    <path d="M 63.425 26.8 
L 1425.7 26.8 
" style="fill:none;stroke:#000000;stroke-linecap:square;stroke-linejoin:miter;stroke-width:0.8;"/>
   </g>
   <g id="text_18">
    <!-- 2020 DJI Stock Prices -->
    <defs>
     <path d="M 9.8125 72.90625 
L 19.671875 72.90625 
L 19.671875 5.078125 
Q 19.671875 -8.109375 14.671875 -14.0625 
Q 9.671875 -20.015625 -1.421875 -20.015625 
L -5.171875 -20.015625 
L -5.171875 -11.71875 
L -2.09375 -11.71875 
Q 4.4375 -11.71875 7.125 -8.046875 
Q 9.8125 -4.390625 9.8125 5.078125 
z
" id="DejaVuSans-4a"/>
     <path d="M 9.8125 72.90625 
L 19.671875 72.90625 
L 19.671875 0 
L 9.8125 0 
z
" id="DejaVuSans-49"/>
     <path d="M 53.515625 70.515625 
L 53.515625 60.890625 
Q 47.90625 63.578125 42.921875 64.890625 
Q 37.9375 66.21875 33.296875 66.21875 
Q 25.25 66.21875 20.875 63.09375 
Q 16.5 59.96875 16.5 54.203125 
Q 16.5 49.359375 19.40625 46.890625 
Q 22.3125 44.4375 30.421875 42.921875 
L 36.375 41.703125 
Q 47.40625 39.59375 52.65625 34.296875 
Q 57.90625 29 57.90625 20.125 
Q 57.90625 9.515625 50.796875 4.046875 
Q 43.703125 -1.421875 29.984375 -1.421875 
Q 24.8125 -1.421875 18.96875 -0.25 
Q 13.140625 0.921875 6.890625 3.21875 
L 6.890625 13.375 
Q 12.890625 10.015625 18.65625 8.296875 
Q 24.421875 6.59375 29.984375 6.59375 
Q 38.421875 6.59375 43.015625 9.90625 
Q 47.609375 13.234375 47.609375 19.390625 
Q 47.609375 24.75 44.3125 27.78125 
Q 41.015625 30.8125 33.5 32.328125 
L 27.484375 33.5 
Q 16.453125 35.6875 11.515625 40.375 
Q 6.59375 45.0625 6.59375 53.421875 
Q 6.59375 63.09375 13.40625 68.65625 
Q 20.21875 74.21875 32.171875 74.21875 
Q 37.3125 74.21875 42.625 73.28125 
Q 47.953125 72.359375 53.515625 70.515625 
z
" id="DejaVuSans-53"/>
     <path d="M 9.078125 75.984375 
L 18.109375 75.984375 
L 18.109375 31.109375 
L 44.921875 54.6875 
L 56.390625 54.6875 
L 27.390625 29.109375 
L 57.625 0 
L 45.90625 0 
L 18.109375 26.703125 
L 18.109375 0 
L 9.078125 0 
z
" id="DejaVuSans-6b"/>
    </defs>
    <g transform="translate(680.939062 20.8)scale(0.12 -0.12)">
     <use xlink:href="#DejaVuSans-32"/>
     <use x="63.623047" xlink:href="#DejaVuSans-30"/>
     <use x="127.246094" xlink:href="#DejaVuSans-32"/>
     <use x="190.869141" xlink:href="#DejaVuSans-30"/>
     <use x="254.492188" xlink:href="#DejaVuSans-20"/>
     <use x="286.279297" xlink:href="#DejaVuSans-44"/>
     <use x="363.28125" xlink:href="#DejaVuSans-4a"/>
     <use x="392.773438" xlink:href="#DejaVuSans-49"/>
     <use x="422.265625" xlink:href="#DejaVuSans-20"/>
     <use x="454.052734" xlink:href="#DejaVuSans-53"/>
     <use x="517.529297" xlink:href="#DejaVuSans-74"/>
     <use x="556.738281" xlink:href="#DejaVuSans-6f"/>
     <use x="617.919922" xlink:href="#DejaVuSans-63"/>
     <use x="672.900391" xlink:href="#DejaVuSans-6b"/>
     <use x="730.810547" xlink:href="#DejaVuSans-20"/>
     <use x="762.597656" xlink:href="#DejaVuSans-50"/>
     <use x="822.884766" xlink:href="#DejaVuSans-72"/>
     <use x="863.998047" xlink:href="#DejaVuSans-69"/>
     <use x="891.78125" xlink:href="#DejaVuSans-63"/>
     <use x="946.761719" xlink:href="#DejaVuSans-65"/>
     <use x="1008.285156" xlink:href="#DejaVuSans-73"/>
    </g>
   </g>
  </g>
  <g id="axes_2">
   <g id="patch_7">
    <path d="M 63.425 650.664746 
L 1425.7 650.664746 
L 1425.7 381.43125 
L 63.425 381.43125 
z
" style="fill:#ffffff;"/>
   </g>
   <g id="matplotlib.axis_3">
    <g id="xtick_10">
     <g id="line2d_33">
      <path clip-path="url(#p08e29aff67)" d="M 105.04443 650.664746 
L 105.04443 381.43125 
" style="fill:none;stroke:#b0b0b0;stroke-linecap:square;stroke-width:0.8;"/>
     </g>
     <g id="line2d_34">
      <g>
       <use style="stroke:#000000;stroke-width:0.8;" x="105.04443" xlink:href="#m87537a8804" y="650.664746"/>
      </g>
     </g>
     <g id="text_19">
      <!-- 2008-08-28 -->
      <g transform="translate(53.674979 693.302998)rotate(-30)scale(0.1 -0.1)">
       <use xlink:href="#DejaVuSans-32"/>
       <use x="63.623047" xlink:href="#DejaVuSans-30"/>
       <use x="127.246094" xlink:href="#DejaVuSans-30"/>
       <use x="190.869141" xlink:href="#DejaVuSans-38"/>
       <use x="254.492188" xlink:href="#DejaVuSans-2d"/>
       <use x="290.576172" xlink:href="#DejaVuSans-30"/>
       <use x="354.199219" xlink:href="#DejaVuSans-38"/>
       <use x="417.822266" xlink:href="#DejaVuSans-2d"/>
       <use x="453.90625" xlink:href="#DejaVuSans-32"/>
       <use x="517.529297" xlink:href="#DejaVuSans-38"/>
      </g>
     </g>
    </g>
    <g id="xtick_11">
     <g id="line2d_35">
      <path clip-path="url(#p08e29aff67)" d="M 247.159557 650.664746 
L 247.159557 381.43125 
" style="fill:none;stroke:#b0b0b0;stroke-linecap:square;stroke-width:0.8;"/>
     </g>
     <g id="line2d_36">
      <g>
       <use style="stroke:#000000;stroke-width:0.8;" x="247.159557" xlink:href="#m87537a8804" y="650.664746"/>
      </g>
     </g>
     <g id="text_20">
      <!-- 2008-09-04 -->
      <g transform="translate(195.790105 693.302998)rotate(-30)scale(0.1 -0.1)">
       <use xlink:href="#DejaVuSans-32"/>
       <use x="63.623047" xlink:href="#DejaVuSans-30"/>
       <use x="127.246094" xlink:href="#DejaVuSans-30"/>
       <use x="190.869141" xlink:href="#DejaVuSans-38"/>
       <use x="254.492188" xlink:href="#DejaVuSans-2d"/>
       <use x="290.576172" xlink:href="#DejaVuSans-30"/>
       <use x="354.199219" xlink:href="#DejaVuSans-39"/>
       <use x="417.822266" xlink:href="#DejaVuSans-2d"/>
       <use x="453.90625" xlink:href="#DejaVuSans-30"/>
       <use x="517.529297" xlink:href="#DejaVuSans-34"/>
      </g>
     </g>
    </g>
    <g id="xtick_12">
     <g id="line2d_37">
      <path clip-path="url(#p08e29aff67)" d="M 389.274683 650.664746 
L 389.274683 381.43125 
" style="fill:none;stroke:#b0b0b0;stroke-linecap:square;stroke-width:0.8;"/>
     </g>
     <g id="line2d_38">
      <g>
       <use style="stroke:#000000;stroke-width:0.8;" x="389.274683" xlink:href="#m87537a8804" y="650.664746"/>
      </g>
     </g>
     <g id="text_21">
      <!-- 2008-09-11 -->
      <g transform="translate(337.905232 693.302998)rotate(-30)scale(0.1 -0.1)">
       <use xlink:href="#DejaVuSans-32"/>
       <use x="63.623047" xlink:href="#DejaVuSans-30"/>
       <use x="127.246094" xlink:href="#DejaVuSans-30"/>
       <use x="190.869141" xlink:href="#DejaVuSans-38"/>
       <use x="254.492188" xlink:href="#DejaVuSans-2d"/>
       <use x="290.576172" xlink:href="#DejaVuSans-30"/>
       <use x="354.199219" xlink:href="#DejaVuSans-39"/>
       <use x="417.822266" xlink:href="#DejaVuSans-2d"/>
       <use x="453.90625" xlink:href="#DejaVuSans-31"/>
       <use x="517.529297" xlink:href="#DejaVuSans-31"/>
      </g>
     </g>
    </g>
    <g id="xtick_13">
     <g id="line2d_39">
      <path clip-path="url(#p08e29aff67)" d="M 531.38981 650.664746 
L 531.38981 381.43125 
" style="fill:none;stroke:#b0b0b0;stroke-linecap:square;stroke-width:0.8;"/>
     </g>
     <g id="line2d_40">
      <g>
       <use style="stroke:#000000;stroke-width:0.8;" x="531.38981" xlink:href="#m87537a8804" y="650.664746"/>
      </g>
     </g>
     <g id="text_22">
      <!-- 2008-09-18 -->
      <g transform="translate(480.020359 693.302998)rotate(-30)scale(0.1 -0.1)">
       <use xlink:href="#DejaVuSans-32"/>
       <use x="63.623047" xlink:href="#DejaVuSans-30"/>
       <use x="127.246094" xlink:href="#DejaVuSans-30"/>
       <use x="190.869141" xlink:href="#DejaVuSans-38"/>
       <use x="254.492188" xlink:href="#DejaVuSans-2d"/>
       <use x="290.576172" xlink:href="#DejaVuSans-30"/>
       <use x="354.199219" xlink:href="#DejaVuSans-39"/>
       <use x="417.822266" xlink:href="#DejaVuSans-2d"/>
       <use x="453.90625" xlink:href="#DejaVuSans-31"/>
       <use x="517.529297" xlink:href="#DejaVuSans-38"/>
      </g>
     </g>
    </g>
    <g id="xtick_14">
     <g id="line2d_41">
      <path clip-path="url(#p08e29aff67)" d="M 673.504937 650.664746 
L 673.504937 381.43125 
" style="fill:none;stroke:#b0b0b0;stroke-linecap:square;stroke-width:0.8;"/>
     </g>
     <g id="line2d_42">
      <g>
       <use style="stroke:#000000;stroke-width:0.8;" x="673.504937" xlink:href="#m87537a8804" y="650.664746"/>
      </g>
     </g>
     <g id="text_23">
      <!-- 2008-09-25 -->
      <g transform="translate(622.135485 693.302998)rotate(-30)scale(0.1 -0.1)">
       <use xlink:href="#DejaVuSans-32"/>
       <use x="63.623047" xlink:href="#DejaVuSans-30"/>
       <use x="127.246094" xlink:href="#DejaVuSans-30"/>
       <use x="190.869141" xlink:href="#DejaVuSans-38"/>
       <use x="254.492188" xlink:href="#DejaVuSans-2d"/>
       <use x="290.576172" xlink:href="#DejaVuSans-30"/>
       <use x="354.199219" xlink:href="#DejaVuSans-39"/>
       <use x="417.822266" xlink:href="#DejaVuSans-2d"/>
       <use x="453.90625" xlink:href="#DejaVuSans-32"/>
       <use x="517.529297" xlink:href="#DejaVuSans-35"/>
      </g>
     </g>
    </g>
    <g id="xtick_15">
     <g id="line2d_43">
      <path clip-path="url(#p08e29aff67)" d="M 815.620063 650.664746 
L 815.620063 381.43125 
" style="fill:none;stroke:#b0b0b0;stroke-linecap:square;stroke-width:0.8;"/>
     </g>
     <g id="line2d_44">
      <g>
       <use style="stroke:#000000;stroke-width:0.8;" x="815.620063" xlink:href="#m87537a8804" y="650.664746"/>
      </g>
     </g>
     <g id="text_24">
      <!-- 2008-10-02 -->
      <g transform="translate(764.250612 693.302998)rotate(-30)scale(0.1 -0.1)">
       <use xlink:href="#DejaVuSans-32"/>
       <use x="63.623047" xlink:href="#DejaVuSans-30"/>
       <use x="127.246094" xlink:href="#DejaVuSans-30"/>
       <use x="190.869141" xlink:href="#DejaVuSans-38"/>
       <use x="254.492188" xlink:href="#DejaVuSans-2d"/>
       <use x="290.576172" xlink:href="#DejaVuSans-31"/>
       <use x="354.199219" xlink:href="#DejaVuSans-30"/>
       <use x="417.822266" xlink:href="#DejaVuSans-2d"/>
       <use x="453.90625" xlink:href="#DejaVuSans-30"/>
       <use x="517.529297" xlink:href="#DejaVuSans-32"/>
      </g>
     </g>
    </g>
    <g id="xtick_16">
     <g id="line2d_45">
      <path clip-path="url(#p08e29aff67)" d="M 957.73519 650.664746 
L 957.73519 381.43125 
" style="fill:none;stroke:#b0b0b0;stroke-linecap:square;stroke-width:0.8;"/>
     </g>
     <g id="line2d_46">
      <g>
       <use style="stroke:#000000;stroke-width:0.8;" x="957.73519" xlink:href="#m87537a8804" y="650.664746"/>
      </g>
     </g>
     <g id="text_25">
      <!-- 2008-10-09 -->
      <g transform="translate(906.365739 693.302998)rotate(-30)scale(0.1 -0.1)">
       <use xlink:href="#DejaVuSans-32"/>
       <use x="63.623047" xlink:href="#DejaVuSans-30"/>
       <use x="127.246094" xlink:href="#DejaVuSans-30"/>
       <use x="190.869141" xlink:href="#DejaVuSans-38"/>
       <use x="254.492188" xlink:href="#DejaVuSans-2d"/>
       <use x="290.576172" xlink:href="#DejaVuSans-31"/>
       <use x="354.199219" xlink:href="#DejaVuSans-30"/>
       <use x="417.822266" xlink:href="#DejaVuSans-2d"/>
       <use x="453.90625" xlink:href="#DejaVuSans-30"/>
       <use x="517.529297" xlink:href="#DejaVuSans-39"/>
      </g>
     </g>
    </g>
    <g id="xtick_17">
     <g id="line2d_47">
      <path clip-path="url(#p08e29aff67)" d="M 1099.850317 650.664746 
L 1099.850317 381.43125 
" style="fill:none;stroke:#b0b0b0;stroke-linecap:square;stroke-width:0.8;"/>
     </g>
     <g id="line2d_48">
      <g>
       <use style="stroke:#000000;stroke-width:0.8;" x="1099.850317" xlink:href="#m87537a8804" y="650.664746"/>
      </g>
     </g>
     <g id="text_26">
      <!-- 2008-10-16 -->
      <g transform="translate(1048.480865 693.302998)rotate(-30)scale(0.1 -0.1)">
       <use xlink:href="#DejaVuSans-32"/>
       <use x="63.623047" xlink:href="#DejaVuSans-30"/>
       <use x="127.246094" xlink:href="#DejaVuSans-30"/>
       <use x="190.869141" xlink:href="#DejaVuSans-38"/>
       <use x="254.492188" xlink:href="#DejaVuSans-2d"/>
       <use x="290.576172" xlink:href="#DejaVuSans-31"/>
       <use x="354.199219" xlink:href="#DejaVuSans-30"/>
       <use x="417.822266" xlink:href="#DejaVuSans-2d"/>
       <use x="453.90625" xlink:href="#DejaVuSans-31"/>
       <use x="517.529297" xlink:href="#DejaVuSans-36"/>
      </g>
     </g>
    </g>
    <g id="xtick_18">
     <g id="line2d_49">
      <path clip-path="url(#p08e29aff67)" d="M 1241.965443 650.664746 
L 1241.965443 381.43125 
" style="fill:none;stroke:#b0b0b0;stroke-linecap:square;stroke-width:0.8;"/>
     </g>
     <g id="line2d_50">
      <g>
       <use style="stroke:#000000;stroke-width:0.8;" x="1241.965443" xlink:href="#m87537a8804" y="650.664746"/>
      </g>
     </g>
     <g id="text_27">
      <!-- 2008-10-23 -->
      <g transform="translate(1190.595992 693.302998)rotate(-30)scale(0.1 -0.1)">
       <use xlink:href="#DejaVuSans-32"/>
       <use x="63.623047" xlink:href="#DejaVuSans-30"/>
       <use x="127.246094" xlink:href="#DejaVuSans-30"/>
       <use x="190.869141" xlink:href="#DejaVuSans-38"/>
       <use x="254.492188" xlink:href="#DejaVuSans-2d"/>
       <use x="290.576172" xlink:href="#DejaVuSans-31"/>
       <use x="354.199219" xlink:href="#DejaVuSans-30"/>
       <use x="417.822266" xlink:href="#DejaVuSans-2d"/>
       <use x="453.90625" xlink:href="#DejaVuSans-32"/>
       <use x="517.529297" xlink:href="#DejaVuSans-33"/>
      </g>
     </g>
    </g>
    <g id="xtick_19">
     <g id="line2d_51">
      <path clip-path="url(#p08e29aff67)" d="M 1384.08057 650.664746 
L 1384.08057 381.43125 
" style="fill:none;stroke:#b0b0b0;stroke-linecap:square;stroke-width:0.8;"/>
     </g>
     <g id="line2d_52">
      <g>
       <use style="stroke:#000000;stroke-width:0.8;" x="1384.08057" xlink:href="#m87537a8804" y="650.664746"/>
      </g>
     </g>
     <g id="text_28">
      <!-- 2008-10-30 -->
      <g transform="translate(1332.711119 693.302998)rotate(-30)scale(0.1 -0.1)">
       <use xlink:href="#DejaVuSans-32"/>
       <use x="63.623047" xlink:href="#DejaVuSans-30"/>
       <use x="127.246094" xlink:href="#DejaVuSans-30"/>
       <use x="190.869141" xlink:href="#DejaVuSans-38"/>
       <use x="254.492188" xlink:href="#DejaVuSans-2d"/>
       <use x="290.576172" xlink:href="#DejaVuSans-31"/>
       <use x="354.199219" xlink:href="#DejaVuSans-30"/>
       <use x="417.822266" xlink:href="#DejaVuSans-2d"/>
       <use x="453.90625" xlink:href="#DejaVuSans-33"/>
       <use x="517.529297" xlink:href="#DejaVuSans-30"/>
      </g>
     </g>
    </g>
    <g id="text_29">
     <!-- Date -->
     <g transform="translate(732.611719 706.702498)scale(0.1 -0.1)">
      <use xlink:href="#DejaVuSans-44"/>
      <use x="77.001953" xlink:href="#DejaVuSans-61"/>
      <use x="138.28125" xlink:href="#DejaVuSans-74"/>
      <use x="177.490234" xlink:href="#DejaVuSans-65"/>
     </g>
    </g>
   </g>
   <g id="matplotlib.axis_4">
    <g id="ytick_7">
     <g id="line2d_53">
      <path clip-path="url(#p08e29aff67)" d="M 63.425 614.865898 
L 1425.7 614.865898 
" style="fill:none;stroke:#b0b0b0;stroke-linecap:square;stroke-width:0.8;"/>
     </g>
     <g id="line2d_54">
      <g>
       <use style="stroke:#000000;stroke-width:0.8;" x="63.425" xlink:href="#m837f0cf7a0" y="614.865898"/>
      </g>
     </g>
     <g id="text_30">
      <!-- 8500 -->
      <g transform="translate(30.975 618.665116)scale(0.1 -0.1)">
       <use xlink:href="#DejaVuSans-38"/>
       <use x="63.623047" xlink:href="#DejaVuSans-35"/>
       <use x="127.246094" xlink:href="#DejaVuSans-30"/>
       <use x="190.869141" xlink:href="#DejaVuSans-30"/>
      </g>
     </g>
    </g>
    <g id="ytick_8">
     <g id="line2d_55">
      <path clip-path="url(#p08e29aff67)" d="M 63.425 578.532181 
L 1425.7 578.532181 
" style="fill:none;stroke:#b0b0b0;stroke-linecap:square;stroke-width:0.8;"/>
     </g>
     <g id="line2d_56">
      <g>
       <use style="stroke:#000000;stroke-width:0.8;" x="63.425" xlink:href="#m837f0cf7a0" y="578.532181"/>
      </g>
     </g>
     <g id="text_31">
      <!-- 9000 -->
      <g transform="translate(30.975 582.3314)scale(0.1 -0.1)">
       <use xlink:href="#DejaVuSans-39"/>
       <use x="63.623047" xlink:href="#DejaVuSans-30"/>
       <use x="127.246094" xlink:href="#DejaVuSans-30"/>
       <use x="190.869141" xlink:href="#DejaVuSans-30"/>
      </g>
     </g>
    </g>
    <g id="ytick_9">
     <g id="line2d_57">
      <path clip-path="url(#p08e29aff67)" d="M 63.425 542.198464 
L 1425.7 542.198464 
" style="fill:none;stroke:#b0b0b0;stroke-linecap:square;stroke-width:0.8;"/>
     </g>
     <g id="line2d_58">
      <g>
       <use style="stroke:#000000;stroke-width:0.8;" x="63.425" xlink:href="#m837f0cf7a0" y="542.198464"/>
      </g>
     </g>
     <g id="text_32">
      <!-- 9500 -->
      <g transform="translate(30.975 545.997683)scale(0.1 -0.1)">
       <use xlink:href="#DejaVuSans-39"/>
       <use x="63.623047" xlink:href="#DejaVuSans-35"/>
       <use x="127.246094" xlink:href="#DejaVuSans-30"/>
       <use x="190.869141" xlink:href="#DejaVuSans-30"/>
      </g>
     </g>
    </g>
    <g id="ytick_10">
     <g id="line2d_59">
      <path clip-path="url(#p08e29aff67)" d="M 63.425 505.864747 
L 1425.7 505.864747 
" style="fill:none;stroke:#b0b0b0;stroke-linecap:square;stroke-width:0.8;"/>
     </g>
     <g id="line2d_60">
      <g>
       <use style="stroke:#000000;stroke-width:0.8;" x="63.425" xlink:href="#m837f0cf7a0" y="505.864747"/>
      </g>
     </g>
     <g id="text_33">
      <!-- 10000 -->
      <g transform="translate(24.6125 509.663966)scale(0.1 -0.1)">
       <use xlink:href="#DejaVuSans-31"/>
       <use x="63.623047" xlink:href="#DejaVuSans-30"/>
       <use x="127.246094" xlink:href="#DejaVuSans-30"/>
       <use x="190.869141" xlink:href="#DejaVuSans-30"/>
       <use x="254.492188" xlink:href="#DejaVuSans-30"/>
      </g>
     </g>
    </g>
    <g id="ytick_11">
     <g id="line2d_61">
      <path clip-path="url(#p08e29aff67)" d="M 63.425 469.53103 
L 1425.7 469.53103 
" style="fill:none;stroke:#b0b0b0;stroke-linecap:square;stroke-width:0.8;"/>
     </g>
     <g id="line2d_62">
      <g>
       <use style="stroke:#000000;stroke-width:0.8;" x="63.425" xlink:href="#m837f0cf7a0" y="469.53103"/>
      </g>
     </g>
     <g id="text_34">
      <!-- 10500 -->
      <g transform="translate(24.6125 473.330249)scale(0.1 -0.1)">
       <use xlink:href="#DejaVuSans-31"/>
       <use x="63.623047" xlink:href="#DejaVuSans-30"/>
       <use x="127.246094" xlink:href="#DejaVuSans-35"/>
       <use x="190.869141" xlink:href="#DejaVuSans-30"/>
       <use x="254.492188" xlink:href="#DejaVuSans-30"/>
      </g>
     </g>
    </g>
    <g id="ytick_12">
     <g id="line2d_63">
      <path clip-path="url(#p08e29aff67)" d="M 63.425 433.197313 
L 1425.7 433.197313 
" style="fill:none;stroke:#b0b0b0;stroke-linecap:square;stroke-width:0.8;"/>
     </g>
     <g id="line2d_64">
      <g>
       <use style="stroke:#000000;stroke-width:0.8;" x="63.425" xlink:href="#m837f0cf7a0" y="433.197313"/>
      </g>
     </g>
     <g id="text_35">
      <!-- 11000 -->
      <g transform="translate(24.6125 436.996532)scale(0.1 -0.1)">
       <use xlink:href="#DejaVuSans-31"/>
       <use x="63.623047" xlink:href="#DejaVuSans-31"/>
       <use x="127.246094" xlink:href="#DejaVuSans-30"/>
       <use x="190.869141" xlink:href="#DejaVuSans-30"/>
       <use x="254.492188" xlink:href="#DejaVuSans-30"/>
      </g>
     </g>
    </g>
    <g id="ytick_13">
     <g id="line2d_65">
      <path clip-path="url(#p08e29aff67)" d="M 63.425 396.863597 
L 1425.7 396.863597 
" style="fill:none;stroke:#b0b0b0;stroke-linecap:square;stroke-width:0.8;"/>
     </g>
     <g id="line2d_66">
      <g>
       <use style="stroke:#000000;stroke-width:0.8;" x="63.425" xlink:href="#m837f0cf7a0" y="396.863597"/>
      </g>
     </g>
     <g id="text_36">
      <!-- 11500 -->
      <g transform="translate(24.6125 400.662815)scale(0.1 -0.1)">
       <use xlink:href="#DejaVuSans-31"/>
       <use x="63.623047" xlink:href="#DejaVuSans-31"/>
       <use x="127.246094" xlink:href="#DejaVuSans-35"/>
       <use x="190.869141" xlink:href="#DejaVuSans-30"/>
       <use x="254.492188" xlink:href="#DejaVuSans-30"/>
      </g>
     </g>
    </g>
    <g id="text_37">
     <!-- Close Price -->
     <g transform="translate(18.532812 543.542529)rotate(-90)scale(0.1 -0.1)">
      <use xlink:href="#DejaVuSans-43"/>
      <use x="69.824219" xlink:href="#DejaVuSans-6c"/>
      <use x="97.607422" xlink:href="#DejaVuSans-6f"/>
      <use x="158.789062" xlink:href="#DejaVuSans-73"/>
      <use x="210.888672" xlink:href="#DejaVuSans-65"/>
      <use x="272.412109" xlink:href="#DejaVuSans-20"/>
      <use x="304.199219" xlink:href="#DejaVuSans-50"/>
      <use x="364.486328" xlink:href="#DejaVuSans-72"/>
      <use x="405.599609" xlink:href="#DejaVuSans-69"/>
      <use x="433.382812" xlink:href="#DejaVuSans-63"/>
      <use x="488.363281" xlink:href="#DejaVuSans-65"/>
     </g>
    </g>
   </g>
   <g id="line2d_67">
    <path clip-path="url(#p08e29aff67)" d="M 125.346591 393.669136 
L 206.555235 395.634071 
L 226.857396 394.474299 
L 247.159557 419.519086 
L 267.461718 417.140717 
L 328.3682 396.083134 
L 348.670361 416.43072 
L 368.972522 413.655594 
L 389.274683 401.680721 
L 409.576844 402.532369 
L 470.483327 439.191665 
L 490.785488 428.908518 
L 511.087649 461.562305 
L 531.38981 431.766463 
L 551.691971 404.970346 
L 612.598454 432.057132 
L 632.900615 443.794413 
L 653.202776 445.901768 
L 673.504937 431.594299 
L 693.807098 422.796431 
L 754.71358 479.308419 
L 775.015741 444.049453 
L 795.317902 445.473001 
L 815.620063 470.777306 
L 835.922224 482.220225 
L 896.828707 509.098448 
L 917.130868 546.041816 
L 937.433029 559.776745 
L 957.73519 609.111335 
L 978.037351 618.412766 
L 1038.943834 550.365528 
L 1059.245995 555.933321 
L 1079.548156 609.204363 
L 1099.850317 580.039318 
L 1120.152478 589.270996 
L 1181.058961 559.244086 
L 1201.361121 576.086181 
L 1221.663282 613.469956 
L 1241.965443 600.968251 
L 1262.267604 623.662276 
L 1323.174087 638.42686 
L 1343.476248 573.80007 
L 1363.778409 579.189094 
" style="fill:none;stroke:#1f77b4;stroke-linecap:square;stroke-width:1.5;"/>
   </g>
   <g id="line2d_68">
    <path clip-path="url(#p08e29aff67)" d="M 125.346591 424.31372 
L 206.555235 406.401197 
L 226.857396 403.549 
L 247.159557 401.29631 
L 267.461718 399.624959 
L 328.3682 397.899107 
L 348.670361 398.371446 
L 368.972522 399.297956 
L 389.274683 400.714971 
L 409.576844 402.56799 
L 470.483327 410.543241 
L 490.785488 413.922277 
L 511.087649 417.646483 
L 531.38981 421.715859 
L 551.691971 426.057738 
L 612.598454 440.609392 
L 632.900615 445.932281 
L 653.202776 451.436839 
L 673.504937 457.104899 
L 693.807098 462.936461 
L 754.71358 481.085152 
L 775.015741 487.298218 
L 795.317902 493.547617 
L 815.620063 499.83335 
L 835.922224 506.100916 
L 896.828707 524.794614 
L 917.130868 530.880511 
L 937.433029 536.875574 
L 957.73519 542.74347 
L 978.037351 548.502364 
L 1038.943834 564.616367 
L 1059.245995 569.594087 
L 1079.548156 574.31747 
L 1099.850317 578.750183 
L 1120.152478 582.910394 
L 1181.058961 593.501672 
L 1201.361121 596.299368 
L 1221.663282 598.733727 
L 1241.965443 600.713915 
L 1262.267604 602.312599 
L 1323.174087 604.256452 
L 1343.476248 603.893115 
L 1363.778409 602.984772 
" style="fill:none;stroke:#ff0000;stroke-dasharray:5.55,2.4;stroke-dashoffset:0;stroke-width:1.5;"/>
   </g>
   <g id="patch_8">
    <path d="M 63.425 650.664746 
L 63.425 381.43125 
" style="fill:none;stroke:#000000;stroke-linecap:square;stroke-linejoin:miter;stroke-width:0.8;"/>
   </g>
   <g id="patch_9">
    <path d="M 1425.7 650.664746 
L 1425.7 381.43125 
" style="fill:none;stroke:#000000;stroke-linecap:square;stroke-linejoin:miter;stroke-width:0.8;"/>
   </g>
   <g id="patch_10">
    <path d="M 63.425 650.664746 
L 1425.7 650.664746 
" style="fill:none;stroke:#000000;stroke-linecap:square;stroke-linejoin:miter;stroke-width:0.8;"/>
   </g>
   <g id="patch_11">
    <path d="M 63.425 381.43125 
L 1425.7 381.43125 
" style="fill:none;stroke:#000000;stroke-linecap:square;stroke-linejoin:miter;stroke-width:0.8;"/>
   </g>
   <g id="text_38">
    <!-- 2008 DJI Stock Prices -->
    <g transform="translate(680.939062 375.43125)scale(0.12 -0.12)">
     <use xlink:href="#DejaVuSans-32"/>
     <use x="63.623047" xlink:href="#DejaVuSans-30"/>
     <use x="127.246094" xlink:href="#DejaVuSans-30"/>
     <use x="190.869141" xlink:href="#DejaVuSans-38"/>
     <use x="254.492188" xlink:href="#DejaVuSans-20"/>
     <use x="286.279297" xlink:href="#DejaVuSans-44"/>
     <use x="363.28125" xlink:href="#DejaVuSans-4a"/>
     <use x="392.773438" xlink:href="#DejaVuSans-49"/>
     <use x="422.265625" xlink:href="#DejaVuSans-20"/>
     <use x="454.052734" xlink:href="#DejaVuSans-53"/>
     <use x="517.529297" xlink:href="#DejaVuSans-74"/>
     <use x="556.738281" xlink:href="#DejaVuSans-6f"/>
     <use x="617.919922" xlink:href="#DejaVuSans-63"/>
     <use x="672.900391" xlink:href="#DejaVuSans-6b"/>
     <use x="730.810547" xlink:href="#DejaVuSans-20"/>
     <use x="762.597656" xlink:href="#DejaVuSans-50"/>
     <use x="822.884766" xlink:href="#DejaVuSans-72"/>
     <use x="863.998047" xlink:href="#DejaVuSans-69"/>
     <use x="891.78125" xlink:href="#DejaVuSans-63"/>
     <use x="946.761719" xlink:href="#DejaVuSans-65"/>
     <use x="1008.285156" xlink:href="#DejaVuSans-73"/>
    </g>
   </g>
  </g>
 </g>
 <defs>
  <clipPath id="p93d1ec5fd1">
   <rect height="269.233496" width="1362.275" x="63.425" y="26.8"/>
  </clipPath>
  <clipPath id="p08e29aff67">
   <rect height="269.233496" width="1362.275" x="63.425" y="381.43125"/>
  </clipPath>
 </defs>
</svg>
