<?xml version="1.0" encoding="utf-8" standalone="no"?>
<!DOCTYPE svg PUBLIC "-//W3C//DTD SVG 1.1//EN"
  "http://www.w3.org/Graphics/SVG/1.1/DTD/svg11.dtd">
<!-- Created with matplotlib (https://matplotlib.org/) -->
<svg height="720pt" version="1.1" viewBox="0 0 1440 720" width="1440pt" xmlns="http://www.w3.org/2000/svg" xmlns:xlink="http://www.w3.org/1999/xlink">
 <defs>
  <style type="text/css">
*{stroke-linecap:butt;stroke-linejoin:round;}
  </style>
 </defs>
 <g id="figure_1">
  <g id="patch_1">
   <path d="M 0 720 
L 1440 720 
L 1440 0 
L 0 0 
z
" style="fill:#ffffff;"/>
  </g>
  <g id="axes_1">
   <g id="patch_2">
    <path d="M 50.925 678.2 
L 1400.45 678.2 
L 1400.45 26.8 
L 50.925 26.8 
z
" style="fill:#ffffff;"/>
   </g>
   <g id="matplotlib.axis_1">
    <g id="xtick_1">
     <g id="line2d_1">
      <path clip-path="url(#p1eb4f2ed63)" d="M 50.925 678.2 
L 50.925 26.8 
" style="fill:none;stroke:#b0b0b0;stroke-linecap:square;stroke-width:0.8;"/>
     </g>
     <g id="line2d_2">
      <defs>
       <path d="M 0 0 
L 0 3.5 
" id="md3bd299141" style="stroke:#000000;stroke-width:0.8;"/>
      </defs>
      <g>
       <use style="stroke:#000000;stroke-width:0.8;" x="50.925" xlink:href="#md3bd299141" y="678.2"/>
      </g>
     </g>
     <g id="text_1">
      <!-- 2019-02-01 -->
      <defs>
       <path d="M 19.1875 8.296875 
L 53.609375 8.296875 
L 53.609375 0 
L 7.328125 0 
L 7.328125 8.296875 
Q 12.9375 14.109375 22.625 23.890625 
Q 32.328125 33.6875 34.8125 36.53125 
Q 39.546875 41.84375 41.421875 45.53125 
Q 43.3125 49.21875 43.3125 52.78125 
Q 43.3125 58.59375 39.234375 62.25 
Q 35.15625 65.921875 28.609375 65.921875 
Q 23.96875 65.921875 18.8125 64.3125 
Q 13.671875 62.703125 7.8125 59.421875 
L 7.8125 69.390625 
Q 13.765625 71.78125 18.9375 73 
Q 24.125 74.21875 28.421875 74.21875 
Q 39.75 74.21875 46.484375 68.546875 
Q 53.21875 62.890625 53.21875 53.421875 
Q 53.21875 48.921875 51.53125 44.890625 
Q 49.859375 40.875 45.40625 35.40625 
Q 44.1875 33.984375 37.640625 27.21875 
Q 31.109375 20.453125 19.1875 8.296875 
z
" id="DejaVuSans-50"/>
       <path d="M 31.78125 66.40625 
Q 24.171875 66.40625 20.328125 58.90625 
Q 16.5 51.421875 16.5 36.375 
Q 16.5 21.390625 20.328125 13.890625 
Q 24.171875 6.390625 31.78125 6.390625 
Q 39.453125 6.390625 43.28125 13.890625 
Q 47.125 21.390625 47.125 36.375 
Q 47.125 51.421875 43.28125 58.90625 
Q 39.453125 66.40625 31.78125 66.40625 
z
M 31.78125 74.21875 
Q 44.046875 74.21875 50.515625 64.515625 
Q 56.984375 54.828125 56.984375 36.375 
Q 56.984375 17.96875 50.515625 8.265625 
Q 44.046875 -1.421875 31.78125 -1.421875 
Q 19.53125 -1.421875 13.0625 8.265625 
Q 6.59375 17.96875 6.59375 36.375 
Q 6.59375 54.828125 13.0625 64.515625 
Q 19.53125 74.21875 31.78125 74.21875 
z
" id="DejaVuSans-48"/>
       <path d="M 12.40625 8.296875 
L 28.515625 8.296875 
L 28.515625 63.921875 
L 10.984375 60.40625 
L 10.984375 69.390625 
L 28.421875 72.90625 
L 38.28125 72.90625 
L 38.28125 8.296875 
L 54.390625 8.296875 
L 54.390625 0 
L 12.40625 0 
z
" id="DejaVuSans-49"/>
       <path d="M 10.984375 1.515625 
L 10.984375 10.5 
Q 14.703125 8.734375 18.5 7.8125 
Q 22.3125 6.890625 25.984375 6.890625 
Q 35.75 6.890625 40.890625 13.453125 
Q 46.046875 20.015625 46.78125 33.40625 
Q 43.953125 29.203125 39.59375 26.953125 
Q 35.25 24.703125 29.984375 24.703125 
Q 19.046875 24.703125 12.671875 31.3125 
Q 6.296875 37.9375 6.296875 49.421875 
Q 6.296875 60.640625 12.9375 67.421875 
Q 19.578125 74.21875 30.609375 74.21875 
Q 43.265625 74.21875 49.921875 64.515625 
Q 56.59375 54.828125 56.59375 36.375 
Q 56.59375 19.140625 48.40625 8.859375 
Q 40.234375 -1.421875 26.421875 -1.421875 
Q 22.703125 -1.421875 18.890625 -0.6875 
Q 15.09375 0.046875 10.984375 1.515625 
z
M 30.609375 32.421875 
Q 37.25 32.421875 41.125 36.953125 
Q 45.015625 41.5 45.015625 49.421875 
Q 45.015625 57.28125 41.125 61.84375 
Q 37.25 66.40625 30.609375 66.40625 
Q 23.96875 66.40625 20.09375 61.84375 
Q 16.21875 57.28125 16.21875 49.421875 
Q 16.21875 41.5 20.09375 36.953125 
Q 23.96875 32.421875 30.609375 32.421875 
z
" id="DejaVuSans-57"/>
       <path d="M 4.890625 31.390625 
L 31.203125 31.390625 
L 31.203125 23.390625 
L 4.890625 23.390625 
z
" id="DejaVuSans-45"/>
      </defs>
      <g transform="translate(21.867187 692.798437)scale(0.1 -0.1)">
       <use xlink:href="#DejaVuSans-50"/>
       <use x="63.623047" xlink:href="#DejaVuSans-48"/>
       <use x="127.246094" xlink:href="#DejaVuSans-49"/>
       <use x="190.869141" xlink:href="#DejaVuSans-57"/>
       <use x="254.492188" xlink:href="#DejaVuSans-45"/>
       <use x="290.576172" xlink:href="#DejaVuSans-48"/>
       <use x="354.199219" xlink:href="#DejaVuSans-50"/>
       <use x="417.822266" xlink:href="#DejaVuSans-45"/>
       <use x="453.90625" xlink:href="#DejaVuSans-48"/>
       <use x="517.529297" xlink:href="#DejaVuSans-49"/>
      </g>
     </g>
    </g>
    <g id="xtick_2">
     <g id="line2d_3">
      <path clip-path="url(#p1eb4f2ed63)" d="M 134.400773 678.2 
L 134.400773 26.8 
" style="fill:none;stroke:#b0b0b0;stroke-linecap:square;stroke-width:0.8;"/>
     </g>
     <g id="line2d_4">
      <g>
       <use style="stroke:#000000;stroke-width:0.8;" x="134.400773" xlink:href="#md3bd299141" y="678.2"/>
      </g>
     </g>
     <g id="text_2">
      <!-- 2019-03-01 -->
      <defs>
       <path d="M 40.578125 39.3125 
Q 47.65625 37.796875 51.625 33 
Q 55.609375 28.21875 55.609375 21.1875 
Q 55.609375 10.40625 48.1875 4.484375 
Q 40.765625 -1.421875 27.09375 -1.421875 
Q 22.515625 -1.421875 17.65625 -0.515625 
Q 12.796875 0.390625 7.625 2.203125 
L 7.625 11.71875 
Q 11.71875 9.328125 16.59375 8.109375 
Q 21.484375 6.890625 26.8125 6.890625 
Q 36.078125 6.890625 40.9375 10.546875 
Q 45.796875 14.203125 45.796875 21.1875 
Q 45.796875 27.640625 41.28125 31.265625 
Q 36.765625 34.90625 28.71875 34.90625 
L 20.21875 34.90625 
L 20.21875 43.015625 
L 29.109375 43.015625 
Q 36.375 43.015625 40.234375 45.921875 
Q 44.09375 48.828125 44.09375 54.296875 
Q 44.09375 59.90625 40.109375 62.90625 
Q 36.140625 65.921875 28.71875 65.921875 
Q 24.65625 65.921875 20.015625 65.03125 
Q 15.375 64.15625 9.8125 62.3125 
L 9.8125 71.09375 
Q 15.4375 72.65625 20.34375 73.4375 
Q 25.25 74.21875 29.59375 74.21875 
Q 40.828125 74.21875 47.359375 69.109375 
Q 53.90625 64.015625 53.90625 55.328125 
Q 53.90625 49.265625 50.4375 45.09375 
Q 46.96875 40.921875 40.578125 39.3125 
z
" id="DejaVuSans-51"/>
      </defs>
      <g transform="translate(105.342961 692.798437)scale(0.1 -0.1)">
       <use xlink:href="#DejaVuSans-50"/>
       <use x="63.623047" xlink:href="#DejaVuSans-48"/>
       <use x="127.246094" xlink:href="#DejaVuSans-49"/>
       <use x="190.869141" xlink:href="#DejaVuSans-57"/>
       <use x="254.492188" xlink:href="#DejaVuSans-45"/>
       <use x="290.576172" xlink:href="#DejaVuSans-48"/>
       <use x="354.199219" xlink:href="#DejaVuSans-51"/>
       <use x="417.822266" xlink:href="#DejaVuSans-45"/>
       <use x="453.90625" xlink:href="#DejaVuSans-48"/>
       <use x="517.529297" xlink:href="#DejaVuSans-49"/>
      </g>
     </g>
    </g>
    <g id="xtick_3">
     <g id="line2d_5">
      <path clip-path="url(#p1eb4f2ed63)" d="M 222.514089 678.2 
L 222.514089 26.8 
" style="fill:none;stroke:#b0b0b0;stroke-linecap:square;stroke-width:0.8;"/>
     </g>
     <g id="line2d_6">
      <g>
       <use style="stroke:#000000;stroke-width:0.8;" x="222.514089" xlink:href="#md3bd299141" y="678.2"/>
      </g>
     </g>
     <g id="text_3">
      <!-- 2019-04-01 -->
      <defs>
       <path d="M 37.796875 64.3125 
L 12.890625 25.390625 
L 37.796875 25.390625 
z
M 35.203125 72.90625 
L 47.609375 72.90625 
L 47.609375 25.390625 
L 58.015625 25.390625 
L 58.015625 17.1875 
L 47.609375 17.1875 
L 47.609375 0 
L 37.796875 0 
L 37.796875 17.1875 
L 4.890625 17.1875 
L 4.890625 26.703125 
z
" id="DejaVuSans-52"/>
      </defs>
      <g transform="translate(193.456277 692.798437)scale(0.1 -0.1)">
       <use xlink:href="#DejaVuSans-50"/>
       <use x="63.623047" xlink:href="#DejaVuSans-48"/>
       <use x="127.246094" xlink:href="#DejaVuSans-49"/>
       <use x="190.869141" xlink:href="#DejaVuSans-57"/>
       <use x="254.492188" xlink:href="#DejaVuSans-45"/>
       <use x="290.576172" xlink:href="#DejaVuSans-48"/>
       <use x="354.199219" xlink:href="#DejaVuSans-52"/>
       <use x="417.822266" xlink:href="#DejaVuSans-45"/>
       <use x="453.90625" xlink:href="#DejaVuSans-48"/>
       <use x="517.529297" xlink:href="#DejaVuSans-49"/>
      </g>
     </g>
    </g>
    <g id="xtick_4">
     <g id="line2d_7">
      <path clip-path="url(#p1eb4f2ed63)" d="M 319.902491 678.2 
L 319.902491 26.8 
" style="fill:none;stroke:#b0b0b0;stroke-linecap:square;stroke-width:0.8;"/>
     </g>
     <g id="line2d_8">
      <g>
       <use style="stroke:#000000;stroke-width:0.8;" x="319.902491" xlink:href="#md3bd299141" y="678.2"/>
      </g>
     </g>
     <g id="text_4">
      <!-- 2019-05-01 -->
      <defs>
       <path d="M 10.796875 72.90625 
L 49.515625 72.90625 
L 49.515625 64.59375 
L 19.828125 64.59375 
L 19.828125 46.734375 
Q 21.96875 47.46875 24.109375 47.828125 
Q 26.265625 48.1875 28.421875 48.1875 
Q 40.625 48.1875 47.75 41.5 
Q 54.890625 34.8125 54.890625 23.390625 
Q 54.890625 11.625 47.5625 5.09375 
Q 40.234375 -1.421875 26.90625 -1.421875 
Q 22.3125 -1.421875 17.546875 -0.640625 
Q 12.796875 0.140625 7.71875 1.703125 
L 7.71875 11.625 
Q 12.109375 9.234375 16.796875 8.0625 
Q 21.484375 6.890625 26.703125 6.890625 
Q 35.15625 6.890625 40.078125 11.328125 
Q 45.015625 15.765625 45.015625 23.390625 
Q 45.015625 31 40.078125 35.4375 
Q 35.15625 39.890625 26.703125 39.890625 
Q 22.75 39.890625 18.8125 39.015625 
Q 14.890625 38.140625 10.796875 36.28125 
z
" id="DejaVuSans-53"/>
      </defs>
      <g transform="translate(290.844679 692.798437)scale(0.1 -0.1)">
       <use xlink:href="#DejaVuSans-50"/>
       <use x="63.623047" xlink:href="#DejaVuSans-48"/>
       <use x="127.246094" xlink:href="#DejaVuSans-49"/>
       <use x="190.869141" xlink:href="#DejaVuSans-57"/>
       <use x="254.492188" xlink:href="#DejaVuSans-45"/>
       <use x="290.576172" xlink:href="#DejaVuSans-48"/>
       <use x="354.199219" xlink:href="#DejaVuSans-53"/>
       <use x="417.822266" xlink:href="#DejaVuSans-45"/>
       <use x="453.90625" xlink:href="#DejaVuSans-48"/>
       <use x="517.529297" xlink:href="#DejaVuSans-49"/>
      </g>
     </g>
    </g>
    <g id="xtick_5">
     <g id="line2d_9">
      <path clip-path="url(#p1eb4f2ed63)" d="M 417.290893 678.2 
L 417.290893 26.8 
" style="fill:none;stroke:#b0b0b0;stroke-linecap:square;stroke-width:0.8;"/>
     </g>
     <g id="line2d_10">
      <g>
       <use style="stroke:#000000;stroke-width:0.8;" x="417.290893" xlink:href="#md3bd299141" y="678.2"/>
      </g>
     </g>
     <g id="text_5">
      <!-- 2019-06-03 -->
      <defs>
       <path d="M 33.015625 40.375 
Q 26.375 40.375 22.484375 35.828125 
Q 18.609375 31.296875 18.609375 23.390625 
Q 18.609375 15.53125 22.484375 10.953125 
Q 26.375 6.390625 33.015625 6.390625 
Q 39.65625 6.390625 43.53125 10.953125 
Q 47.40625 15.53125 47.40625 23.390625 
Q 47.40625 31.296875 43.53125 35.828125 
Q 39.65625 40.375 33.015625 40.375 
z
M 52.59375 71.296875 
L 52.59375 62.3125 
Q 48.875 64.0625 45.09375 64.984375 
Q 41.3125 65.921875 37.59375 65.921875 
Q 27.828125 65.921875 22.671875 59.328125 
Q 17.53125 52.734375 16.796875 39.40625 
Q 19.671875 43.65625 24.015625 45.921875 
Q 28.375 48.1875 33.59375 48.1875 
Q 44.578125 48.1875 50.953125 41.515625 
Q 57.328125 34.859375 57.328125 23.390625 
Q 57.328125 12.15625 50.6875 5.359375 
Q 44.046875 -1.421875 33.015625 -1.421875 
Q 20.359375 -1.421875 13.671875 8.265625 
Q 6.984375 17.96875 6.984375 36.375 
Q 6.984375 53.65625 15.1875 63.9375 
Q 23.390625 74.21875 37.203125 74.21875 
Q 40.921875 74.21875 44.703125 73.484375 
Q 48.484375 72.75 52.59375 71.296875 
z
" id="DejaVuSans-54"/>
      </defs>
      <g transform="translate(388.233081 692.798437)scale(0.1 -0.1)">
       <use xlink:href="#DejaVuSans-50"/>
       <use x="63.623047" xlink:href="#DejaVuSans-48"/>
       <use x="127.246094" xlink:href="#DejaVuSans-49"/>
       <use x="190.869141" xlink:href="#DejaVuSans-57"/>
       <use x="254.492188" xlink:href="#DejaVuSans-45"/>
       <use x="290.576172" xlink:href="#DejaVuSans-48"/>
       <use x="354.199219" xlink:href="#DejaVuSans-54"/>
       <use x="417.822266" xlink:href="#DejaVuSans-45"/>
       <use x="453.90625" xlink:href="#DejaVuSans-48"/>
       <use x="517.529297" xlink:href="#DejaVuSans-51"/>
      </g>
     </g>
    </g>
    <g id="xtick_6">
     <g id="line2d_11">
      <path clip-path="url(#p1eb4f2ed63)" d="M 510.041753 678.2 
L 510.041753 26.8 
" style="fill:none;stroke:#b0b0b0;stroke-linecap:square;stroke-width:0.8;"/>
     </g>
     <g id="line2d_12">
      <g>
       <use style="stroke:#000000;stroke-width:0.8;" x="510.041753" xlink:href="#md3bd299141" y="678.2"/>
      </g>
     </g>
     <g id="text_6">
      <!-- 2019-07-01 -->
      <defs>
       <path d="M 8.203125 72.90625 
L 55.078125 72.90625 
L 55.078125 68.703125 
L 28.609375 0 
L 18.3125 0 
L 43.21875 64.59375 
L 8.203125 64.59375 
z
" id="DejaVuSans-55"/>
      </defs>
      <g transform="translate(480.98394 692.798437)scale(0.1 -0.1)">
       <use xlink:href="#DejaVuSans-50"/>
       <use x="63.623047" xlink:href="#DejaVuSans-48"/>
       <use x="127.246094" xlink:href="#DejaVuSans-49"/>
       <use x="190.869141" xlink:href="#DejaVuSans-57"/>
       <use x="254.492188" xlink:href="#DejaVuSans-45"/>
       <use x="290.576172" xlink:href="#DejaVuSans-48"/>
       <use x="354.199219" xlink:href="#DejaVuSans-55"/>
       <use x="417.822266" xlink:href="#DejaVuSans-45"/>
       <use x="453.90625" xlink:href="#DejaVuSans-48"/>
       <use x="517.529297" xlink:href="#DejaVuSans-49"/>
      </g>
     </g>
    </g>
    <g id="xtick_7">
     <g id="line2d_13">
      <path clip-path="url(#p1eb4f2ed63)" d="M 616.705241 678.2 
L 616.705241 26.8 
" style="fill:none;stroke:#b0b0b0;stroke-linecap:square;stroke-width:0.8;"/>
     </g>
     <g id="line2d_14">
      <g>
       <use style="stroke:#000000;stroke-width:0.8;" x="616.705241" xlink:href="#md3bd299141" y="678.2"/>
      </g>
     </g>
     <g id="text_7">
      <!-- 2019-08-01 -->
      <defs>
       <path d="M 31.78125 34.625 
Q 24.75 34.625 20.71875 30.859375 
Q 16.703125 27.09375 16.703125 20.515625 
Q 16.703125 13.921875 20.71875 10.15625 
Q 24.75 6.390625 31.78125 6.390625 
Q 38.8125 6.390625 42.859375 10.171875 
Q 46.921875 13.96875 46.921875 20.515625 
Q 46.921875 27.09375 42.890625 30.859375 
Q 38.875 34.625 31.78125 34.625 
z
M 21.921875 38.8125 
Q 15.578125 40.375 12.03125 44.71875 
Q 8.5 49.078125 8.5 55.328125 
Q 8.5 64.0625 14.71875 69.140625 
Q 20.953125 74.21875 31.78125 74.21875 
Q 42.671875 74.21875 48.875 69.140625 
Q 55.078125 64.0625 55.078125 55.328125 
Q 55.078125 49.078125 51.53125 44.71875 
Q 48 40.375 41.703125 38.8125 
Q 48.828125 37.15625 52.796875 32.3125 
Q 56.78125 27.484375 56.78125 20.515625 
Q 56.78125 9.90625 50.3125 4.234375 
Q 43.84375 -1.421875 31.78125 -1.421875 
Q 19.734375 -1.421875 13.25 4.234375 
Q 6.78125 9.90625 6.78125 20.515625 
Q 6.78125 27.484375 10.78125 32.3125 
Q 14.796875 37.15625 21.921875 38.8125 
z
M 18.3125 54.390625 
Q 18.3125 48.734375 21.84375 45.5625 
Q 25.390625 42.390625 31.78125 42.390625 
Q 38.140625 42.390625 41.71875 45.5625 
Q 45.3125 48.734375 45.3125 54.390625 
Q 45.3125 60.0625 41.71875 63.234375 
Q 38.140625 66.40625 31.78125 66.40625 
Q 25.390625 66.40625 21.84375 63.234375 
Q 18.3125 60.0625 18.3125 54.390625 
z
" id="DejaVuSans-56"/>
      </defs>
      <g transform="translate(587.647428 692.798437)scale(0.1 -0.1)">
       <use xlink:href="#DejaVuSans-50"/>
       <use x="63.623047" xlink:href="#DejaVuSans-48"/>
       <use x="127.246094" xlink:href="#DejaVuSans-49"/>
       <use x="190.869141" xlink:href="#DejaVuSans-57"/>
       <use x="254.492188" xlink:href="#DejaVuSans-45"/>
       <use x="290.576172" xlink:href="#DejaVuSans-48"/>
       <use x="354.199219" xlink:href="#DejaVuSans-56"/>
       <use x="417.822266" xlink:href="#DejaVuSans-45"/>
       <use x="453.90625" xlink:href="#DejaVuSans-48"/>
       <use x="517.529297" xlink:href="#DejaVuSans-49"/>
      </g>
     </g>
    </g>
    <g id="xtick_8">
     <g id="line2d_15">
      <path clip-path="url(#p1eb4f2ed63)" d="M 709.4561 678.2 
L 709.4561 26.8 
" style="fill:none;stroke:#b0b0b0;stroke-linecap:square;stroke-width:0.8;"/>
     </g>
     <g id="line2d_16">
      <g>
       <use style="stroke:#000000;stroke-width:0.8;" x="709.4561" xlink:href="#md3bd299141" y="678.2"/>
      </g>
     </g>
     <g id="text_8">
      <!-- 2019-09-03 -->
      <g transform="translate(680.398287 692.798437)scale(0.1 -0.1)">
       <use xlink:href="#DejaVuSans-50"/>
       <use x="63.623047" xlink:href="#DejaVuSans-48"/>
       <use x="127.246094" xlink:href="#DejaVuSans-49"/>
       <use x="190.869141" xlink:href="#DejaVuSans-57"/>
       <use x="254.492188" xlink:href="#DejaVuSans-45"/>
       <use x="290.576172" xlink:href="#DejaVuSans-48"/>
       <use x="354.199219" xlink:href="#DejaVuSans-57"/>
       <use x="417.822266" xlink:href="#DejaVuSans-45"/>
       <use x="453.90625" xlink:href="#DejaVuSans-48"/>
       <use x="517.529297" xlink:href="#DejaVuSans-51"/>
      </g>
     </g>
    </g>
    <g id="xtick_9">
     <g id="line2d_17">
      <path clip-path="url(#p1eb4f2ed63)" d="M 811.482045 678.2 
L 811.482045 26.8 
" style="fill:none;stroke:#b0b0b0;stroke-linecap:square;stroke-width:0.8;"/>
     </g>
     <g id="line2d_18">
      <g>
       <use style="stroke:#000000;stroke-width:0.8;" x="811.482045" xlink:href="#md3bd299141" y="678.2"/>
      </g>
     </g>
     <g id="text_9">
      <!-- 2019-10-01 -->
      <g transform="translate(782.424232 692.798437)scale(0.1 -0.1)">
       <use xlink:href="#DejaVuSans-50"/>
       <use x="63.623047" xlink:href="#DejaVuSans-48"/>
       <use x="127.246094" xlink:href="#DejaVuSans-49"/>
       <use x="190.869141" xlink:href="#DejaVuSans-57"/>
       <use x="254.492188" xlink:href="#DejaVuSans-45"/>
       <use x="290.576172" xlink:href="#DejaVuSans-49"/>
       <use x="354.199219" xlink:href="#DejaVuSans-48"/>
       <use x="417.822266" xlink:href="#DejaVuSans-45"/>
       <use x="453.90625" xlink:href="#DejaVuSans-48"/>
       <use x="517.529297" xlink:href="#DejaVuSans-49"/>
      </g>
     </g>
    </g>
    <g id="xtick_10">
     <g id="line2d_19">
      <path clip-path="url(#p1eb4f2ed63)" d="M 913.50799 678.2 
L 913.50799 26.8 
" style="fill:none;stroke:#b0b0b0;stroke-linecap:square;stroke-width:0.8;"/>
     </g>
     <g id="line2d_20">
      <g>
       <use style="stroke:#000000;stroke-width:0.8;" x="913.50799" xlink:href="#md3bd299141" y="678.2"/>
      </g>
     </g>
     <g id="text_10">
      <!-- 2019-11-01 -->
      <g transform="translate(884.450177 692.798437)scale(0.1 -0.1)">
       <use xlink:href="#DejaVuSans-50"/>
       <use x="63.623047" xlink:href="#DejaVuSans-48"/>
       <use x="127.246094" xlink:href="#DejaVuSans-49"/>
       <use x="190.869141" xlink:href="#DejaVuSans-57"/>
       <use x="254.492188" xlink:href="#DejaVuSans-45"/>
       <use x="290.576172" xlink:href="#DejaVuSans-49"/>
       <use x="354.199219" xlink:href="#DejaVuSans-49"/>
       <use x="417.822266" xlink:href="#DejaVuSans-45"/>
       <use x="453.90625" xlink:href="#DejaVuSans-48"/>
       <use x="517.529297" xlink:href="#DejaVuSans-49"/>
      </g>
     </g>
    </g>
    <g id="xtick_11">
     <g id="line2d_21">
      <path clip-path="url(#p1eb4f2ed63)" d="M 1006.258849 678.2 
L 1006.258849 26.8 
" style="fill:none;stroke:#b0b0b0;stroke-linecap:square;stroke-width:0.8;"/>
     </g>
     <g id="line2d_22">
      <g>
       <use style="stroke:#000000;stroke-width:0.8;" x="1006.258849" xlink:href="#md3bd299141" y="678.2"/>
      </g>
     </g>
     <g id="text_11">
      <!-- 2019-12-02 -->
      <g transform="translate(977.201036 692.798437)scale(0.1 -0.1)">
       <use xlink:href="#DejaVuSans-50"/>
       <use x="63.623047" xlink:href="#DejaVuSans-48"/>
       <use x="127.246094" xlink:href="#DejaVuSans-49"/>
       <use x="190.869141" xlink:href="#DejaVuSans-57"/>
       <use x="254.492188" xlink:href="#DejaVuSans-45"/>
       <use x="290.576172" xlink:href="#DejaVuSans-49"/>
       <use x="354.199219" xlink:href="#DejaVuSans-50"/>
       <use x="417.822266" xlink:href="#DejaVuSans-45"/>
       <use x="453.90625" xlink:href="#DejaVuSans-48"/>
       <use x="517.529297" xlink:href="#DejaVuSans-50"/>
      </g>
     </g>
    </g>
    <g id="xtick_12">
     <g id="line2d_23">
      <path clip-path="url(#p1eb4f2ed63)" d="M 1108.284794 678.2 
L 1108.284794 26.8 
" style="fill:none;stroke:#b0b0b0;stroke-linecap:square;stroke-width:0.8;"/>
     </g>
     <g id="line2d_24">
      <g>
       <use style="stroke:#000000;stroke-width:0.8;" x="1108.284794" xlink:href="#md3bd299141" y="678.2"/>
      </g>
     </g>
     <g id="text_12">
      <!-- 2020-01-02 -->
      <g transform="translate(1079.226981 692.798437)scale(0.1 -0.1)">
       <use xlink:href="#DejaVuSans-50"/>
       <use x="63.623047" xlink:href="#DejaVuSans-48"/>
       <use x="127.246094" xlink:href="#DejaVuSans-50"/>
       <use x="190.869141" xlink:href="#DejaVuSans-48"/>
       <use x="254.492188" xlink:href="#DejaVuSans-45"/>
       <use x="290.576172" xlink:href="#DejaVuSans-48"/>
       <use x="354.199219" xlink:href="#DejaVuSans-49"/>
       <use x="417.822266" xlink:href="#DejaVuSans-45"/>
       <use x="453.90625" xlink:href="#DejaVuSans-48"/>
       <use x="517.529297" xlink:href="#DejaVuSans-50"/>
      </g>
     </g>
    </g>
    <g id="xtick_13">
     <g id="line2d_25">
      <path clip-path="url(#p1eb4f2ed63)" d="M 1205.673196 678.2 
L 1205.673196 26.8 
" style="fill:none;stroke:#b0b0b0;stroke-linecap:square;stroke-width:0.8;"/>
     </g>
     <g id="line2d_26">
      <g>
       <use style="stroke:#000000;stroke-width:0.8;" x="1205.673196" xlink:href="#md3bd299141" y="678.2"/>
      </g>
     </g>
     <g id="text_13">
      <!-- 2020-02-03 -->
      <g transform="translate(1176.615383 692.798437)scale(0.1 -0.1)">
       <use xlink:href="#DejaVuSans-50"/>
       <use x="63.623047" xlink:href="#DejaVuSans-48"/>
       <use x="127.246094" xlink:href="#DejaVuSans-50"/>
       <use x="190.869141" xlink:href="#DejaVuSans-48"/>
       <use x="254.492188" xlink:href="#DejaVuSans-45"/>
       <use x="290.576172" xlink:href="#DejaVuSans-48"/>
       <use x="354.199219" xlink:href="#DejaVuSans-50"/>
       <use x="417.822266" xlink:href="#DejaVuSans-45"/>
       <use x="453.90625" xlink:href="#DejaVuSans-48"/>
       <use x="517.529297" xlink:href="#DejaVuSans-51"/>
      </g>
     </g>
    </g>
    <g id="xtick_14">
     <g id="line2d_27">
      <path clip-path="url(#p1eb4f2ed63)" d="M 1303.061598 678.2 
L 1303.061598 26.8 
" style="fill:none;stroke:#b0b0b0;stroke-linecap:square;stroke-width:0.8;"/>
     </g>
     <g id="line2d_28">
      <g>
       <use style="stroke:#000000;stroke-width:0.8;" x="1303.061598" xlink:href="#md3bd299141" y="678.2"/>
      </g>
     </g>
     <g id="text_14">
      <!-- 2020-03-02 -->
      <g transform="translate(1274.003785 692.798437)scale(0.1 -0.1)">
       <use xlink:href="#DejaVuSans-50"/>
       <use x="63.623047" xlink:href="#DejaVuSans-48"/>
       <use x="127.246094" xlink:href="#DejaVuSans-50"/>
       <use x="190.869141" xlink:href="#DejaVuSans-48"/>
       <use x="254.492188" xlink:href="#DejaVuSans-45"/>
       <use x="290.576172" xlink:href="#DejaVuSans-48"/>
       <use x="354.199219" xlink:href="#DejaVuSans-51"/>
       <use x="417.822266" xlink:href="#DejaVuSans-45"/>
       <use x="453.90625" xlink:href="#DejaVuSans-48"/>
       <use x="517.529297" xlink:href="#DejaVuSans-50"/>
      </g>
     </g>
    </g>
    <g id="xtick_15">
     <g id="line2d_29">
      <path clip-path="url(#p1eb4f2ed63)" d="M 1400.45 678.2 
L 1400.45 26.8 
" style="fill:none;stroke:#b0b0b0;stroke-linecap:square;stroke-width:0.8;"/>
     </g>
     <g id="line2d_30">
      <g>
       <use style="stroke:#000000;stroke-width:0.8;" x="1400.45" xlink:href="#md3bd299141" y="678.2"/>
      </g>
     </g>
     <g id="text_15">
      <!-- 2020-03-30 -->
      <g transform="translate(1371.392188 692.798437)scale(0.1 -0.1)">
       <use xlink:href="#DejaVuSans-50"/>
       <use x="63.623047" xlink:href="#DejaVuSans-48"/>
       <use x="127.246094" xlink:href="#DejaVuSans-50"/>
       <use x="190.869141" xlink:href="#DejaVuSans-48"/>
       <use x="254.492188" xlink:href="#DejaVuSans-45"/>
       <use x="290.576172" xlink:href="#DejaVuSans-48"/>
       <use x="354.199219" xlink:href="#DejaVuSans-51"/>
       <use x="417.822266" xlink:href="#DejaVuSans-45"/>
       <use x="453.90625" xlink:href="#DejaVuSans-51"/>
       <use x="517.529297" xlink:href="#DejaVuSans-48"/>
      </g>
     </g>
    </g>
    <g id="text_16">
     <!-- Date -->
     <defs>
      <path d="M 19.671875 64.796875 
L 19.671875 8.109375 
L 31.59375 8.109375 
Q 46.6875 8.109375 53.6875 14.9375 
Q 60.6875 21.78125 60.6875 36.53125 
Q 60.6875 51.171875 53.6875 57.984375 
Q 46.6875 64.796875 31.59375 64.796875 
z
M 9.8125 72.90625 
L 30.078125 72.90625 
Q 51.265625 72.90625 61.171875 64.09375 
Q 71.09375 55.28125 71.09375 36.53125 
Q 71.09375 17.671875 61.125 8.828125 
Q 51.171875 0 30.078125 0 
L 9.8125 0 
z
" id="DejaVuSans-68"/>
      <path d="M 34.28125 27.484375 
Q 23.390625 27.484375 19.1875 25 
Q 14.984375 22.515625 14.984375 16.5 
Q 14.984375 11.71875 18.140625 8.90625 
Q 21.296875 6.109375 26.703125 6.109375 
Q 34.1875 6.109375 38.703125 11.40625 
Q 43.21875 16.703125 43.21875 25.484375 
L 43.21875 27.484375 
z
M 52.203125 31.203125 
L 52.203125 0 
L 43.21875 0 
L 43.21875 8.296875 
Q 40.140625 3.328125 35.546875 0.953125 
Q 30.953125 -1.421875 24.3125 -1.421875 
Q 15.921875 -1.421875 10.953125 3.296875 
Q 6 8.015625 6 15.921875 
Q 6 25.140625 12.171875 29.828125 
Q 18.359375 34.515625 30.609375 34.515625 
L 43.21875 34.515625 
L 43.21875 35.40625 
Q 43.21875 41.609375 39.140625 45 
Q 35.0625 48.390625 27.6875 48.390625 
Q 23 48.390625 18.546875 47.265625 
Q 14.109375 46.140625 10.015625 43.890625 
L 10.015625 52.203125 
Q 14.9375 54.109375 19.578125 55.046875 
Q 24.21875 56 28.609375 56 
Q 40.484375 56 46.34375 49.84375 
Q 52.203125 43.703125 52.203125 31.203125 
z
" id="DejaVuSans-97"/>
      <path d="M 18.3125 70.21875 
L 18.3125 54.6875 
L 36.8125 54.6875 
L 36.8125 47.703125 
L 18.3125 47.703125 
L 18.3125 18.015625 
Q 18.3125 11.328125 20.140625 9.421875 
Q 21.96875 7.515625 27.59375 7.515625 
L 36.8125 7.515625 
L 36.8125 0 
L 27.59375 0 
Q 17.1875 0 13.234375 3.875 
Q 9.28125 7.765625 9.28125 18.015625 
L 9.28125 47.703125 
L 2.6875 47.703125 
L 2.6875 54.6875 
L 9.28125 54.6875 
L 9.28125 70.21875 
z
" id="DejaVuSans-116"/>
      <path d="M 56.203125 29.59375 
L 56.203125 25.203125 
L 14.890625 25.203125 
Q 15.484375 15.921875 20.484375 11.0625 
Q 25.484375 6.203125 34.421875 6.203125 
Q 39.59375 6.203125 44.453125 7.46875 
Q 49.3125 8.734375 54.109375 11.28125 
L 54.109375 2.78125 
Q 49.265625 0.734375 44.1875 -0.34375 
Q 39.109375 -1.421875 33.890625 -1.421875 
Q 20.796875 -1.421875 13.15625 6.1875 
Q 5.515625 13.8125 5.515625 26.8125 
Q 5.515625 40.234375 12.765625 48.109375 
Q 20.015625 56 32.328125 56 
Q 43.359375 56 49.78125 48.890625 
Q 56.203125 41.796875 56.203125 29.59375 
z
M 47.21875 32.234375 
Q 47.125 39.59375 43.09375 43.984375 
Q 39.0625 48.390625 32.421875 48.390625 
Q 24.90625 48.390625 20.390625 44.140625 
Q 15.875 39.890625 15.1875 32.171875 
z
" id="DejaVuSans-101"/>
     </defs>
     <g transform="translate(713.736719 706.476562)scale(0.1 -0.1)">
      <use xlink:href="#DejaVuSans-68"/>
      <use x="77.001953" xlink:href="#DejaVuSans-97"/>
      <use x="138.28125" xlink:href="#DejaVuSans-116"/>
      <use x="177.490234" xlink:href="#DejaVuSans-101"/>
     </g>
    </g>
   </g>
   <g id="matplotlib.axis_2">
    <g id="ytick_1">
     <g id="line2d_31">
      <path clip-path="url(#p1eb4f2ed63)" d="M 50.925 678.2 
L 1400.45 678.2 
" style="fill:none;stroke:#b0b0b0;stroke-linecap:square;stroke-width:0.8;"/>
     </g>
     <g id="line2d_32">
      <defs>
       <path d="M 0 0 
L -3.5 0 
" id="m6c3e57a13f" style="stroke:#000000;stroke-width:0.8;"/>
      </defs>
      <g>
       <use style="stroke:#000000;stroke-width:0.8;" x="50.925" xlink:href="#m6c3e57a13f" y="678.2"/>
      </g>
     </g>
     <g id="text_17">
      <!-- 0 -->
      <g transform="translate(37.5625 681.999219)scale(0.1 -0.1)">
       <use xlink:href="#DejaVuSans-48"/>
      </g>
     </g>
    </g>
    <g id="ytick_2">
     <g id="line2d_33">
      <path clip-path="url(#p1eb4f2ed63)" d="M 50.925 598.82583 
L 1400.45 598.82583 
" style="fill:none;stroke:#b0b0b0;stroke-linecap:square;stroke-width:0.8;"/>
     </g>
     <g id="line2d_34">
      <g>
       <use style="stroke:#000000;stroke-width:0.8;" x="50.925" xlink:href="#m6c3e57a13f" y="598.82583"/>
      </g>
     </g>
     <g id="text_18">
      <!-- 25 -->
      <g transform="translate(31.2 602.625049)scale(0.1 -0.1)">
       <use xlink:href="#DejaVuSans-50"/>
       <use x="63.623047" xlink:href="#DejaVuSans-53"/>
      </g>
     </g>
    </g>
    <g id="ytick_3">
     <g id="line2d_35">
      <path clip-path="url(#p1eb4f2ed63)" d="M 50.925 519.45166 
L 1400.45 519.45166 
" style="fill:none;stroke:#b0b0b0;stroke-linecap:square;stroke-width:0.8;"/>
     </g>
     <g id="line2d_36">
      <g>
       <use style="stroke:#000000;stroke-width:0.8;" x="50.925" xlink:href="#m6c3e57a13f" y="519.45166"/>
      </g>
     </g>
     <g id="text_19">
      <!-- 50 -->
      <g transform="translate(31.2 523.250879)scale(0.1 -0.1)">
       <use xlink:href="#DejaVuSans-53"/>
       <use x="63.623047" xlink:href="#DejaVuSans-48"/>
      </g>
     </g>
    </g>
    <g id="ytick_4">
     <g id="line2d_37">
      <path clip-path="url(#p1eb4f2ed63)" d="M 50.925 440.07749 
L 1400.45 440.07749 
" style="fill:none;stroke:#b0b0b0;stroke-linecap:square;stroke-width:0.8;"/>
     </g>
     <g id="line2d_38">
      <g>
       <use style="stroke:#000000;stroke-width:0.8;" x="50.925" xlink:href="#m6c3e57a13f" y="440.07749"/>
      </g>
     </g>
     <g id="text_20">
      <!-- 75 -->
      <g transform="translate(31.2 443.876709)scale(0.1 -0.1)">
       <use xlink:href="#DejaVuSans-55"/>
       <use x="63.623047" xlink:href="#DejaVuSans-53"/>
      </g>
     </g>
    </g>
    <g id="ytick_5">
     <g id="line2d_39">
      <path clip-path="url(#p1eb4f2ed63)" d="M 50.925 360.70332 
L 1400.45 360.70332 
" style="fill:none;stroke:#b0b0b0;stroke-linecap:square;stroke-width:0.8;"/>
     </g>
     <g id="line2d_40">
      <g>
       <use style="stroke:#000000;stroke-width:0.8;" x="50.925" xlink:href="#m6c3e57a13f" y="360.70332"/>
      </g>
     </g>
     <g id="text_21">
      <!-- 100 -->
      <g transform="translate(24.8375 364.502539)scale(0.1 -0.1)">
       <use xlink:href="#DejaVuSans-49"/>
       <use x="63.623047" xlink:href="#DejaVuSans-48"/>
       <use x="127.246094" xlink:href="#DejaVuSans-48"/>
      </g>
     </g>
    </g>
    <g id="ytick_6">
     <g id="line2d_41">
      <path clip-path="url(#p1eb4f2ed63)" d="M 50.925 281.329151 
L 1400.45 281.329151 
" style="fill:none;stroke:#b0b0b0;stroke-linecap:square;stroke-width:0.8;"/>
     </g>
     <g id="line2d_42">
      <g>
       <use style="stroke:#000000;stroke-width:0.8;" x="50.925" xlink:href="#m6c3e57a13f" y="281.329151"/>
      </g>
     </g>
     <g id="text_22">
      <!-- 125 -->
      <g transform="translate(24.8375 285.128369)scale(0.1 -0.1)">
       <use xlink:href="#DejaVuSans-49"/>
       <use x="63.623047" xlink:href="#DejaVuSans-50"/>
       <use x="127.246094" xlink:href="#DejaVuSans-53"/>
      </g>
     </g>
    </g>
    <g id="ytick_7">
     <g id="line2d_43">
      <path clip-path="url(#p1eb4f2ed63)" d="M 50.925 201.954981 
L 1400.45 201.954981 
" style="fill:none;stroke:#b0b0b0;stroke-linecap:square;stroke-width:0.8;"/>
     </g>
     <g id="line2d_44">
      <g>
       <use style="stroke:#000000;stroke-width:0.8;" x="50.925" xlink:href="#m6c3e57a13f" y="201.954981"/>
      </g>
     </g>
     <g id="text_23">
      <!-- 150 -->
      <g transform="translate(24.8375 205.754199)scale(0.1 -0.1)">
       <use xlink:href="#DejaVuSans-49"/>
       <use x="63.623047" xlink:href="#DejaVuSans-53"/>
       <use x="127.246094" xlink:href="#DejaVuSans-48"/>
      </g>
     </g>
    </g>
    <g id="ytick_8">
     <g id="line2d_45">
      <path clip-path="url(#p1eb4f2ed63)" d="M 50.925 122.580811 
L 1400.45 122.580811 
" style="fill:none;stroke:#b0b0b0;stroke-linecap:square;stroke-width:0.8;"/>
     </g>
     <g id="line2d_46">
      <g>
       <use style="stroke:#000000;stroke-width:0.8;" x="50.925" xlink:href="#m6c3e57a13f" y="122.580811"/>
      </g>
     </g>
     <g id="text_24">
      <!-- 175 -->
      <g transform="translate(24.8375 126.38003)scale(0.1 -0.1)">
       <use xlink:href="#DejaVuSans-49"/>
       <use x="63.623047" xlink:href="#DejaVuSans-55"/>
       <use x="127.246094" xlink:href="#DejaVuSans-53"/>
      </g>
     </g>
    </g>
    <g id="ytick_9">
     <g id="line2d_47">
      <path clip-path="url(#p1eb4f2ed63)" d="M 50.925 43.206641 
L 1400.45 43.206641 
" style="fill:none;stroke:#b0b0b0;stroke-linecap:square;stroke-width:0.8;"/>
     </g>
     <g id="line2d_48">
      <g>
       <use style="stroke:#000000;stroke-width:0.8;" x="50.925" xlink:href="#m6c3e57a13f" y="43.206641"/>
      </g>
     </g>
     <g id="text_25">
      <!-- 200 -->
      <g transform="translate(24.8375 47.00586)scale(0.1 -0.1)">
       <use xlink:href="#DejaVuSans-50"/>
       <use x="63.623047" xlink:href="#DejaVuSans-48"/>
       <use x="127.246094" xlink:href="#DejaVuSans-48"/>
      </g>
     </g>
    </g>
    <g id="text_26">
     <!-- Close Price -->
     <defs>
      <path d="M 64.40625 67.28125 
L 64.40625 56.890625 
Q 59.421875 61.53125 53.78125 63.8125 
Q 48.140625 66.109375 41.796875 66.109375 
Q 29.296875 66.109375 22.65625 58.46875 
Q 16.015625 50.828125 16.015625 36.375 
Q 16.015625 21.96875 22.65625 14.328125 
Q 29.296875 6.6875 41.796875 6.6875 
Q 48.140625 6.6875 53.78125 8.984375 
Q 59.421875 11.28125 64.40625 15.921875 
L 64.40625 5.609375 
Q 59.234375 2.09375 53.4375 0.328125 
Q 47.65625 -1.421875 41.21875 -1.421875 
Q 24.65625 -1.421875 15.125 8.703125 
Q 5.609375 18.84375 5.609375 36.375 
Q 5.609375 53.953125 15.125 64.078125 
Q 24.65625 74.21875 41.21875 74.21875 
Q 47.75 74.21875 53.53125 72.484375 
Q 59.328125 70.75 64.40625 67.28125 
z
" id="DejaVuSans-67"/>
      <path d="M 9.421875 75.984375 
L 18.40625 75.984375 
L 18.40625 0 
L 9.421875 0 
z
" id="DejaVuSans-108"/>
      <path d="M 30.609375 48.390625 
Q 23.390625 48.390625 19.1875 42.75 
Q 14.984375 37.109375 14.984375 27.296875 
Q 14.984375 17.484375 19.15625 11.84375 
Q 23.34375 6.203125 30.609375 6.203125 
Q 37.796875 6.203125 41.984375 11.859375 
Q 46.1875 17.53125 46.1875 27.296875 
Q 46.1875 37.015625 41.984375 42.703125 
Q 37.796875 48.390625 30.609375 48.390625 
z
M 30.609375 56 
Q 42.328125 56 49.015625 48.375 
Q 55.71875 40.765625 55.71875 27.296875 
Q 55.71875 13.875 49.015625 6.21875 
Q 42.328125 -1.421875 30.609375 -1.421875 
Q 18.84375 -1.421875 12.171875 6.21875 
Q 5.515625 13.875 5.515625 27.296875 
Q 5.515625 40.765625 12.171875 48.375 
Q 18.84375 56 30.609375 56 
z
" id="DejaVuSans-111"/>
      <path d="M 44.28125 53.078125 
L 44.28125 44.578125 
Q 40.484375 46.53125 36.375 47.5 
Q 32.28125 48.484375 27.875 48.484375 
Q 21.1875 48.484375 17.84375 46.4375 
Q 14.5 44.390625 14.5 40.28125 
Q 14.5 37.15625 16.890625 35.375 
Q 19.28125 33.59375 26.515625 31.984375 
L 29.59375 31.296875 
Q 39.15625 29.25 43.1875 25.515625 
Q 47.21875 21.78125 47.21875 15.09375 
Q 47.21875 7.46875 41.1875 3.015625 
Q 35.15625 -1.421875 24.609375 -1.421875 
Q 20.21875 -1.421875 15.453125 -0.5625 
Q 10.6875 0.296875 5.421875 2 
L 5.421875 11.28125 
Q 10.40625 8.6875 15.234375 7.390625 
Q 20.0625 6.109375 24.8125 6.109375 
Q 31.15625 6.109375 34.5625 8.28125 
Q 37.984375 10.453125 37.984375 14.40625 
Q 37.984375 18.0625 35.515625 20.015625 
Q 33.0625 21.96875 24.703125 23.78125 
L 21.578125 24.515625 
Q 13.234375 26.265625 9.515625 29.90625 
Q 5.8125 33.546875 5.8125 39.890625 
Q 5.8125 47.609375 11.28125 51.796875 
Q 16.75 56 26.8125 56 
Q 31.78125 56 36.171875 55.265625 
Q 40.578125 54.546875 44.28125 53.078125 
z
" id="DejaVuSans-115"/>
      <path id="DejaVuSans-32"/>
      <path d="M 19.671875 64.796875 
L 19.671875 37.40625 
L 32.078125 37.40625 
Q 38.96875 37.40625 42.71875 40.96875 
Q 46.484375 44.53125 46.484375 51.125 
Q 46.484375 57.671875 42.71875 61.234375 
Q 38.96875 64.796875 32.078125 64.796875 
z
M 9.8125 72.90625 
L 32.078125 72.90625 
Q 44.34375 72.90625 50.609375 67.359375 
Q 56.890625 61.8125 56.890625 51.125 
Q 56.890625 40.328125 50.609375 34.8125 
Q 44.34375 29.296875 32.078125 29.296875 
L 19.671875 29.296875 
L 19.671875 0 
L 9.8125 0 
z
" id="DejaVuSans-80"/>
      <path d="M 41.109375 46.296875 
Q 39.59375 47.171875 37.8125 47.578125 
Q 36.03125 48 33.890625 48 
Q 26.265625 48 22.1875 43.046875 
Q 18.109375 38.09375 18.109375 28.8125 
L 18.109375 0 
L 9.078125 0 
L 9.078125 54.6875 
L 18.109375 54.6875 
L 18.109375 46.1875 
Q 20.953125 51.171875 25.484375 53.578125 
Q 30.03125 56 36.53125 56 
Q 37.453125 56 38.578125 55.875 
Q 39.703125 55.765625 41.0625 55.515625 
z
" id="DejaVuSans-114"/>
      <path d="M 9.421875 54.6875 
L 18.40625 54.6875 
L 18.40625 0 
L 9.421875 0 
z
M 9.421875 75.984375 
L 18.40625 75.984375 
L 18.40625 64.59375 
L 9.421875 64.59375 
z
" id="DejaVuSans-105"/>
      <path d="M 48.78125 52.59375 
L 48.78125 44.1875 
Q 44.96875 46.296875 41.140625 47.34375 
Q 37.3125 48.390625 33.40625 48.390625 
Q 24.65625 48.390625 19.8125 42.84375 
Q 14.984375 37.3125 14.984375 27.296875 
Q 14.984375 17.28125 19.8125 11.734375 
Q 24.65625 6.203125 33.40625 6.203125 
Q 37.3125 6.203125 41.140625 7.25 
Q 44.96875 8.296875 48.78125 10.40625 
L 48.78125 2.09375 
Q 45.015625 0.34375 40.984375 -0.53125 
Q 36.96875 -1.421875 32.421875 -1.421875 
Q 20.0625 -1.421875 12.78125 6.34375 
Q 5.515625 14.109375 5.515625 27.296875 
Q 5.515625 40.671875 12.859375 48.328125 
Q 20.21875 56 33.015625 56 
Q 37.15625 56 41.109375 55.140625 
Q 45.0625 54.296875 48.78125 52.59375 
z
" id="DejaVuSans-99"/>
     </defs>
     <g transform="translate(18.757812 379.994531)rotate(-90)scale(0.1 -0.1)">
      <use xlink:href="#DejaVuSans-67"/>
      <use x="69.824219" xlink:href="#DejaVuSans-108"/>
      <use x="97.607422" xlink:href="#DejaVuSans-111"/>
      <use x="158.789062" xlink:href="#DejaVuSans-115"/>
      <use x="210.888672" xlink:href="#DejaVuSans-101"/>
      <use x="272.412109" xlink:href="#DejaVuSans-32"/>
      <use x="304.199219" xlink:href="#DejaVuSans-80"/>
      <use x="364.486328" xlink:href="#DejaVuSans-114"/>
      <use x="405.599609" xlink:href="#DejaVuSans-105"/>
      <use x="433.382812" xlink:href="#DejaVuSans-99"/>
      <use x="488.363281" xlink:href="#DejaVuSans-101"/>
     </g>
    </g>
   </g>
   <g id="line2d_49">
    <path clip-path="url(#p1eb4f2ed63)" d="M 50.925 471.66841 
L 55.562543 471.223915 
L 60.200086 472.65265 
L 64.837629 470.779419 
L 69.475172 471.66841 
L 74.112715 469.636431 
L 78.750258 469.318935 
L 83.387801 468.588692 
L 88.025344 468.84269 
L 92.662887 470.398423 
L 97.30043 467.128207 
L 101.937973 466.366215 
L 106.575515 467.032958 
L 115.850601 465.794721 
L 120.488144 467.001209 
L 125.125687 467.096458 
L 129.76323 469.064937 
L 134.400773 469.064937 
L 139.038316 468.652192 
L 143.675859 468.556942 
L 148.313402 469.541182 
L 152.950945 469.890429 
L 157.588488 470.74767 
L 162.226031 470.71592 
L 166.863574 469.128437 
L 171.501117 469.477683 
L 176.13866 467.001209 
L 180.776203 467.85845 
L 185.413746 464.842231 
L 190.051289 467.731451 
L 194.688832 469.445933 
L 199.326375 471.477912 
L 203.963918 469.191936 
L 208.60146 468.652192 
L 213.239003 467.8267 
L 217.876546 465.731222 
L 222.514089 465.445475 
L 227.151632 464.302487 
L 231.789175 460.587776 
L 236.426718 461.349768 
L 241.064261 461.12752 
L 245.701804 462.873752 
L 250.339347 463.730993 
L 254.97689 462.556255 
L 264.251976 461.953012 
L 273.527062 462.016511 
L 278.164605 459.857533 
L 282.802148 460.048031 
L 287.439691 459.000292 
L 292.077234 460.14328 
L 296.714777 458.016053 
L 301.35232 457.222311 
L 305.989863 459.095541 
L 315.264948 460.111531 
L 319.902491 451.824867 
L 324.540034 451.57087 
L 329.177577 447.094167 
L 333.81512 451.856617 
L 338.452663 450.173885 
L 343.090206 449.761139 
L 347.727749 450.58663 
L 352.365292 454.333091 
L 357.002835 452.809107 
L 361.640378 453.253603 
L 366.277921 451.189874 
L 370.915464 450.999376 
L 375.553007 452.301113 
L 380.19055 451.697869 
L 384.828093 448.014907 
L 389.465636 449.69764 
L 394.103179 450.554881 
L 398.740722 451.094625 
L 403.378265 451.094625 
L 408.015808 450.396132 
L 412.653351 452.142364 
L 417.290893 455.603078 
L 421.928436 456.047573 
L 426.565979 453.253603 
L 431.203522 457.158812 
L 435.841065 453.761597 
L 440.478608 453.348852 
L 445.116151 449.856388 
L 449.753694 446.078178 
L 454.391237 443.284207 
L 459.02878 446.332175 
L 463.666323 445.379685 
L 472.941409 447.221166 
L 477.578952 445.316186 
L 482.216495 445.125688 
L 486.854038 446.77667 
L 491.491581 444.744692 
L 496.129124 444.522444 
L 500.766667 446.586172 
L 505.40421 443.347706 
L 510.041753 443.538204 
L 514.679296 448.491152 
L 519.316838 449.157895 
L 523.954381 450.65013 
L 528.591924 449.348393 
L 533.229467 447.252915 
L 537.86701 443.252457 
L 542.504553 445.982929 
L 547.142096 445.220937 
L 551.779639 446.078178 
L 561.054725 443.601703 
L 565.692268 442.04597 
L 570.329811 443.252457 
L 574.967354 441.664974 
L 579.604897 444.046199 
L 584.24244 443.633453 
L 588.879983 447.379914 
L 593.517526 448.491152 
L 598.155069 448.7134 
L 602.792612 451.888367 
L 607.430155 449.824638 
L 612.067698 444.236697 
L 616.705241 438.267759 
L 621.342784 440.902982 
L 625.980326 450.427882 
L 630.617869 451.951866 
L 635.255412 452.142364 
L 639.892955 459.762284 
L 644.530498 456.428569 
L 649.168041 454.555339 
L 653.805584 450.523131 
L 658.443127 451.126375 
L 663.08067 453.634599 
L 667.718213 450.58663 
L 672.355756 454.301342 
L 676.993299 451.60262 
L 681.630842 448.7134 
L 686.268385 446.173427 
L 690.905928 447.887909 
L 695.543471 447.665661 
L 700.181014 446.300425 
L 704.818557 448.872148 
L 709.4561 447.157666 
L 714.093643 445.030439 
L 718.731186 443.252457 
L 723.368729 442.617464 
L 728.006271 442.776212 
L 732.643814 442.268217 
L 737.281357 440.490236 
L 741.9189 442.331717 
L 746.556443 441.02998 
L 751.193986 445.82418 
L 755.831529 449.221395 
L 760.469072 446.903669 
L 765.106615 448.68165 
L 769.744158 453.698098 
L 774.381701 457.762055 
L 779.019244 456.39682 
L 783.656787 453.571099 
L 788.29433 452.936106 
L 792.931873 452.936106 
L 797.569416 451.189874 
L 802.206959 448.046657 
L 806.844502 448.840399 
L 811.482045 447.316415 
L 816.119588 445.601933 
L 820.757131 444.808191 
L 825.394674 450.459632 
L 830.032216 454.301342 
L 834.669759 453.190103 
L 839.307302 449.380143 
L 843.944845 450.808878 
L 848.582388 453.793347 
L 853.219931 453.952095 
L 857.857474 453.5076 
L 862.495017 454.333091 
L 867.13256 457.825555 
L 871.770103 461.032271 
L 876.407646 462.778503 
L 881.045189 462.048261 
L 885.682732 462.207009 
L 890.320275 461.349768 
L 894.957818 465.286727 
L 899.595361 463.762743 
L 904.232904 461.222769 
L 908.870447 461.000522 
L 913.50799 464.365986 
L 918.145533 462.556255 
L 922.783076 460.460777 
L 927.420619 460.397278 
L 932.058162 466.080468 
L 936.695704 470.525422 
L 945.97079 467.001209 
L 950.608333 465.88997 
L 955.245876 466.651962 
L 959.883419 466.937709 
L 964.520962 466.620213 
L 969.158505 465.858221 
L 978.433591 467.477454 
L 983.071134 465.064479 
L 992.34622 464.810482 
L 996.983763 466.270966 
L 1001.621306 466.397965 
L 1006.258849 465.540724 
L 1010.896392 462.969001 
L 1015.533935 463.318247 
L 1020.171478 462.873752 
L 1029.446564 464.524735 
L 1034.084107 462.048261 
L 1038.721649 462.873752 
L 1043.359192 461.540266 
L 1047.996735 460.397278 
L 1052.634278 462.524506 
L 1057.271821 464.01674 
L 1061.909364 464.746982 
L 1066.546907 460.111531 
L 1071.18445 459.540037 
L 1075.821993 462.810253 
L 1080.459536 461.445017 
L 1085.097079 461.222769 
L 1089.734622 459.603536 
L 1094.372165 460.016282 
L 1099.009708 460.556026 
L 1103.647251 460.460777 
L 1108.284794 458.555797 
L 1112.922337 459.794034 
L 1117.55988 459.635286 
L 1122.197423 461.921262 
L 1126.834966 462.238759 
L 1131.472509 460.746524 
L 1136.110052 463.730993 
L 1140.747595 458.27005 
L 1145.385137 456.39682 
L 1150.02268 455.476079 
L 1154.660223 455.507829 
L 1159.297766 455.031584 
L 1163.935309 453.412351 
L 1168.572852 453.571099 
L 1173.210395 452.205864 
L 1177.847938 451.856617 
L 1182.485481 454.269592 
L 1187.123024 454.015595 
L 1191.760567 454.999834 
L 1196.39811 455.634828 
L 1201.035653 456.873065 
L 1205.673196 459.667035 
L 1210.310739 457.635057 
L 1214.948282 443.95095 
L 1219.585825 440.299738 
L 1224.223368 438.807504 
L 1228.860911 437.759765 
L 1233.498454 435.918284 
L 1238.135997 436.807275 
L 1242.77354 432.616318 
L 1247.411082 436.553277 
L 1252.048625 437.061272 
L 1256.686168 435.727786 
L 1261.323711 434.711796 
L 1265.961254 436.680276 
L 1270.598797 438.363008 
L 1275.23634 439.569496 
L 1279.873883 436.045283 
L 1284.511426 441.918971 
L 1289.148969 443.88745 
L 1293.786512 446.681421 
L 1298.424055 455.476079 
L 1303.061598 463.667494 
L 1307.699141 448.205405 
L 1312.336684 450.300883 
L 1316.974227 438.902753 
L 1321.61177 448.522902 
L 1326.249313 447.983158 
L 1330.886856 455.984074 
L 1335.524399 450.205634 
L 1340.161942 459.444788 
L 1344.799485 475.351371 
L 1349.437027 458.809794 
L 1354.07457 480.27257 
L 1358.712113 455.317331 
L 1363.349656 463.286498 
L 1367.987199 466.588463 
L 1372.624742 481.098061 
L 1377.262285 486.209758 
L 1381.899828 483.955531 
L 1386.537371 488.051239 
L 1391.174914 475.573619 
L 1395.812457 471.001667 
L 1400.45 466.810711 
L 1400.45 466.810711 
" style="fill:none;stroke:#1f77b4;stroke-linecap:square;stroke-width:1.5;"/>
   </g>
   <g id="line2d_50">
    <path clip-path="url(#p1eb4f2ed63)" d="M 50.925 202.399476 
L 55.562543 175.348759 
L 60.200086 193.192072 
L 64.837629 189.794858 
L 69.475172 191.826837 
L 74.112715 183.984669 
L 78.750258 184.524413 
L 83.387801 186.397643 
L 88.025344 181.92094 
L 92.662887 181.793942 
L 97.30043 182.016189 
L 101.937973 182.87343 
L 106.575515 185.191156 
L 111.213058 173.570778 
L 115.850601 171.538799 
L 120.488144 177.825233 
L 125.125687 176.459997 
L 129.76323 180.365206 
L 134.400773 176.459997 
L 139.038316 177.19024 
L 143.675859 176.650495 
L 148.313402 180.492205 
L 152.950945 180.238208 
L 157.588488 179.380967 
L 162.226031 177.094991 
L 166.863574 173.158032 
L 171.501117 172.777036 
L 176.13866 169.792567 
L 180.776203 170.745057 
L 185.413746 168.078085 
L 190.051289 171.888045 
L 194.688832 180.142959 
L 199.326375 183.063928 
L 203.963918 176.364748 
L 208.60146 176.142501 
L 213.239003 176.079001 
L 217.876546 170.364061 
L 222.514089 169.157574 
L 227.151632 166.046106 
L 231.789175 168.744828 
L 236.426718 174.840764 
L 241.064261 177.698234 
L 245.701804 179.920711 
L 250.339347 179.825462 
L 254.97689 184.175167 
L 259.614433 191.191843 
L 264.251976 192.620578 
L 268.889519 189.921857 
L 273.527062 185.032408 
L 278.164605 184.524413 
L 282.802148 187.826378 
L 287.439691 194.525558 
L 292.077234 192.398331 
L 296.714777 190.906096 
L 301.35232 187.63588 
L 305.989863 190.747348 
L 310.627405 188.556621 
L 315.264948 185.7944 
L 319.902491 177.952232 
L 324.540034 181.698693 
L 329.177577 171.062554 
L 333.81512 207.79692 
L 338.452663 205.955439 
L 343.090206 207.73342 
L 347.727749 207.511173 
L 352.365292 206.84443 
L 357.002835 205.701442 
L 361.640378 211.60688 
L 366.277921 207.701671 
L 370.915464 204.685452 
L 375.553007 210.749639 
L 380.19055 207.288925 
L 384.828093 206.018938 
L 389.465636 211.321133 
L 394.103179 212.368872 
L 398.740722 207.73342 
L 403.378265 200.050001 
L 408.015808 199.16101 
L 412.653351 203.129718 
L 417.290893 212.019625 
L 421.928436 210.209894 
L 426.565979 203.097969 
L 431.203522 205.733191 
L 435.841065 193.763566 
L 440.478608 193.065074 
L 445.116151 184.81016 
L 449.753694 173.507278 
L 454.391237 180.904951 
L 459.02878 180.396956 
L 463.666323 182.492434 
L 468.303866 179.98421 
L 472.941409 182.968679 
L 477.578952 180.111209 
L 482.216495 186.651641 
L 486.854038 190.398102 
L 491.491581 192.176083 
L 496.129124 187.413633 
L 500.766667 186.334144 
L 505.40421 185.413404 
L 510.041753 183.635422 
L 514.679296 196.716285 
L 519.316838 194.747806 
L 523.954381 192.080834 
L 528.591924 193.065074 
L 533.229467 188.747119 
L 537.86701 179.888961 
L 542.504553 183.635422 
L 547.142096 180.111209 
L 551.779639 184.651412 
L 556.417182 187.63588 
L 561.054725 185.318155 
L 565.692268 176.364748 
L 570.329811 174.872514 
L 574.967354 170.395811 
L 579.604897 171.538799 
L 584.24244 163.696631 
L 588.879983 164.299874 
L 593.517526 165.157116 
L 598.155069 156.235459 
L 602.792612 158.807182 
L 607.430155 158.934181 
L 612.067698 150.107773 
L 616.705241 153.155741 
L 621.342784 153.790734 
L 625.980326 161.950399 
L 630.617869 182.460685 
L 635.255412 180.04771 
L 639.892955 185.984898 
L 644.530498 188.239124 
L 649.168041 177.729984 
L 653.805584 173.443779 
L 658.443127 175.698005 
L 663.08067 174.713766 
L 667.718213 173.507278 
L 672.355756 178.809473 
L 676.993299 173.539028 
L 681.630842 167.347843 
L 686.268385 163.442633 
L 690.905928 173.443779 
L 695.543471 176.332999 
L 700.181014 172.904035 
L 704.818557 183.127428 
L 709.4561 179.857212 
L 714.093643 174.491518 
L 718.731186 170.268812 
L 723.368729 172.586538 
L 728.006271 176.047252 
L 732.643814 162.744141 
L 737.281357 156.362458 
L 741.9189 163.220386 
L 746.556443 163.72838 
L 751.193986 175.507507 
L 755.831529 175.666256 
L 760.469072 173.602527 
L 765.106615 169.570319 
L 769.744158 173.570778 
L 774.381701 189.985356 
L 779.019244 184.365665 
L 783.656787 183.540173 
L 788.29433 188.58837 
L 792.931873 196.30354 
L 797.569416 201.224738 
L 802.206959 198.780014 
L 806.844502 199.510256 
L 811.482045 200.08175 
L 816.119588 193.44607 
L 820.757131 196.017793 
L 825.394674 197.891023 
L 830.032216 204.018709 
L 834.669759 211.416382 
L 839.307302 197.573527 
L 843.944845 198.272019 
L 848.582388 202.589974 
L 853.219931 201.605734 
L 857.857474 199.573756 
L 862.495017 201.161239 
L 867.13256 206.018938 
L 871.770103 207.638171 
L 876.407646 206.685681 
L 881.045189 203.859961 
L 885.682732 202.907471 
L 894.957818 206.907929 
L 899.595361 202.558224 
L 904.232904 199.542006 
L 908.870447 197.510027 
L 913.50799 199.510256 
L 918.145533 203.669463 
L 922.783076 199.415007 
L 927.420619 209.289154 
L 932.058162 211.352882 
L 936.695704 213.067364 
L 941.333247 208.844659 
L 945.97079 206.241186 
L 950.608333 211.416382 
L 955.245876 208.304914 
L 959.883419 211.860877 
L 964.520962 216.686827 
L 969.158505 210.559141 
L 978.433591 216.877325 
L 983.071134 215.480339 
L 987.708677 213.035615 
L 992.34622 213.44836 
L 996.983763 217.766315 
L 1001.621306 213.829357 
L 1006.258849 217.036073 
L 1010.896392 207.701671 
L 1015.533935 205.288696 
L 1020.171478 207.574672 
L 1024.809021 205.352195 
L 1029.446564 208.463663 
L 1034.084107 201.002491 
L 1038.721649 199.446757 
L 1043.359192 196.049542 
L 1047.996735 193.223822 
L 1057.271821 195.192301 
L 1061.909364 194.779556 
L 1066.546907 196.557537 
L 1071.18445 196.906783 
L 1075.821993 201.700983 
L 1080.459536 202.526475 
L 1085.097079 197.25603 
L 1089.734622 193.509569 
L 1094.372165 194.525558 
L 1099.009708 194.081063 
L 1103.647251 192.620578 
L 1108.284794 190.747348 
L 1112.922337 192.811076 
L 1117.55988 190.715598 
L 1122.197423 193.668317 
L 1126.834966 192.715827 
L 1131.472509 191.255343 
L 1136.110052 197.129031 
L 1140.747595 195.700296 
L 1150.02268 190.302853 
L 1154.660223 182.270187 
L 1159.297766 182.111438 
L 1163.935309 180.777952 
L 1168.572852 179.317467 
L 1173.210395 177.507736 
L 1177.847938 173.062783 
L 1182.485481 171.38005 
L 1187.123024 173.158032 
L 1191.760567 175.666256 
L 1196.39811 170.332311 
L 1201.035653 182.682932 
L 1205.673196 185.413404 
L 1210.310739 183.349675 
L 1214.948282 178.745973 
L 1219.585825 183.413175 
L 1224.223368 158.711933 
L 1228.860911 153.25099 
L 1233.498454 154.108231 
L 1238.135997 150.42527 
L 1242.77354 145.885067 
L 1247.411082 155.092471 
L 1252.048625 156.775203 
L 1256.686168 155.060721 
L 1261.323711 154.870223 
L 1270.598797 154.838473 
L 1275.23634 156.965701 
L 1279.873883 155.473467 
L 1284.511426 147.377301 
L 1289.148969 145.281823 
L 1293.786512 144.710329 
L 1298.424055 142.583102 
L 1303.061598 172.046793 
L 1307.699141 132.073962 
L 1312.336684 145.218324 
L 1316.974227 130.454728 
L 1321.61177 119.882089 
L 1326.249313 128.105253 
L 1330.886856 122.898307 
L 1335.524399 122.580811 
L 1340.161942 140.360625 
L 1344.799485 174.33277 
L 1349.437027 145.535821 
L 1354.07457 123.565051 
L 1358.712113 49.937571 
L 1363.349656 71.94009 
L 1367.987199 69.304868 
L 1372.624742 114.96089 
L 1377.262285 138.011149 
L 1381.899828 143.789589 
L 1386.537371 152.235001 
L 1391.174914 128.581498 
L 1395.812457 128.327501 
L 1400.45 124.231794 
L 1400.45 124.231794 
" style="fill:none;stroke:#ff7f0e;stroke-linecap:square;stroke-width:1.5;"/>
   </g>
   <g id="line2d_51">
    <path clip-path="url(#p1eb4f2ed63)" d="M 50.925 471.128666 
L 55.562543 468.937939 
L 60.200086 469.699931 
L 64.837629 468.556942 
L 69.475172 469.445933 
L 74.112715 471.795409 
L 78.750258 471.509662 
L 83.387801 465.445475 
L 88.025344 462.969001 
L 92.662887 463.286498 
L 97.30043 457.444559 
L 101.937973 456.33332 
L 106.575515 474.303632 
L 111.213058 480.24082 
L 115.850601 481.510807 
L 120.488144 483.796783 
L 125.125687 485.543015 
L 129.76323 492.464442 
L 134.400773 494.59167 
L 139.038316 493.63918 
L 143.675859 500.528858 
L 152.950945 506.751793 
L 157.588488 511.958739 
L 162.226031 510.149008 
L 166.863574 507.545535 
L 171.501117 504.688065 
L 176.13866 498.592128 
L 180.776203 500.782855 
L 185.413746 501.671846 
L 190.051289 498.274632 
L 194.688832 496.941146 
L 199.326375 499.893865 
L 203.963918 495.956906 
L 208.60146 500.274861 
L 213.239003 503.735575 
L 217.876546 502.338589 
L 222.514089 506.593045 
L 227.151632 508.783772 
L 231.789175 506.974041 
L 236.426718 506.148549 
L 241.064261 512.688981 
L 245.701804 510.593503 
L 250.339347 508.656773 
L 254.97689 506.561295 
L 259.614433 506.275548 
L 264.251976 507.640784 
L 268.889519 507.164539 
L 273.527062 510.911 
L 278.164605 510.530004 
L 282.802148 506.0533 
L 287.439691 507.06929 
L 292.077234 511.387245 
L 296.714777 511.101498 
L 301.35232 511.736491 
L 305.989863 510.053759 
L 310.627405 510.149008 
L 319.902491 508.244027 
L 324.540034 506.783543 
L 329.177577 505.545306 
L 333.81512 496.179154 
L 338.452663 498.084134 
L 347.727749 498.496879 
L 352.365292 502.465588 
L 357.002835 501.227351 
L 361.640378 502.465588 
L 366.277921 503.068832 
L 370.915464 507.323287 
L 375.553007 510.022009 
L 380.19055 510.593503 
L 384.828093 512.149237 
L 389.465636 510.307756 
L 394.103179 509.92676 
L 398.740722 508.275777 
L 403.378265 507.672533 
L 408.015808 510.593503 
L 412.653351 509.704512 
L 417.290893 510.87925 
L 421.928436 511.450744 
L 426.565979 510.720502 
L 431.203522 511.926989 
L 435.841065 508.688523 
L 440.478608 504.783314 
L 445.116151 509.387015 
L 449.753694 506.402547 
L 454.391237 507.00579 
L 459.02878 503.481577 
L 463.666323 506.847042 
L 468.303866 507.831282 
L 472.941409 504.878563 
L 477.578952 506.212049 
L 482.216495 505.037311 
L 486.854038 504.656315 
L 491.491581 503.926073 
L 496.129124 507.164539 
L 500.766667 507.863031 
L 505.40421 509.482264 
L 510.041753 507.767782 
L 514.679296 507.704283 
L 519.316838 504.402318 
L 523.954381 505.196059 
L 528.591924 503.799074 
L 533.229467 504.21182 
L 542.504553 501.767095 
L 547.142096 502.592587 
L 551.779639 504.116571 
L 556.417182 502.370339 
L 561.054725 494.147175 
L 565.692268 495.480661 
L 570.329811 495.829907 
L 574.967354 496.020405 
L 579.604897 499.671617 
L 584.24244 498.814376 
L 588.879983 500.592357 
L 593.517526 502.052842 
L 598.155069 499.544618 
L 602.792612 500.433609 
L 607.430155 502.179841 
L 612.067698 501.862344 
L 616.705241 499.576368 
L 621.342784 498.719127 
L 625.980326 500.814605 
L 630.617869 502.402089 
L 635.255412 501.3226 
L 639.892955 505.13256 
L 644.530498 506.466046 
L 649.168041 493.67093 
L 653.805584 490.74996 
L 658.443127 489.956219 
L 663.08067 491.670701 
L 667.718213 488.178237 
L 672.355756 492.273944 
L 676.993299 491.384954 
L 681.630842 486.813002 
L 686.268385 483.288788 
L 690.905928 482.749044 
L 695.543471 482.463297 
L 700.181014 481.19331 
L 704.818557 486.94 
L 709.4561 485.289018 
L 714.093643 490.273715 
L 718.731186 489.352975 
L 723.368729 487.225747 
L 728.006271 484.781023 
L 732.643814 485.511265 
L 737.281357 482.431547 
L 741.9189 478.939084 
L 746.556443 480.621816 
L 751.193986 476.018114 
L 755.831529 476.272112 
L 760.469072 475.033875 
L 765.106615 475.319622 
L 769.744158 474.811627 
L 774.381701 476.811856 
L 779.019244 476.653108 
L 783.656787 477.351601 
L 788.29433 476.176863 
L 792.931873 474.049635 
L 797.569416 477.065854 
L 802.206959 478.39934 
L 806.844502 479.478828 
L 811.482045 482.653795 
L 816.119588 481.098061 
L 820.757131 477.954844 
L 825.394674 480.24082 
L 830.032216 482.939542 
L 834.669759 483.828533 
L 839.307302 480.590067 
L 843.944845 481.383808 
L 848.582388 486.495505 
L 853.219931 485.162019 
L 857.857474 480.907563 
L 862.495017 478.36759 
L 867.13256 478.208842 
L 871.770103 472.366903 
L 876.407646 470.525422 
L 881.045189 467.064708 
L 885.682732 468.144197 
L 890.320275 469.604682 
L 894.957818 466.87421 
L 899.595361 469.922178 
L 904.232904 472.335153 
L 908.870447 471.509662 
L 913.50799 469.033188 
L 918.145533 469.001438 
L 922.783076 465.318476 
L 927.420619 467.413954 
L 932.058162 464.715233 
L 936.695704 462.175259 
L 941.333247 464.461235 
L 945.97079 452.999605 
L 950.608333 450.300883 
L 955.245876 448.110156 
L 959.883419 450.459632 
L 964.520962 448.491152 
L 969.158505 446.998918 
L 973.796048 446.617922 
L 978.433591 442.331717 
L 983.071134 439.759994 
L 987.708677 438.966252 
L 992.34622 440.331488 
L 996.983763 440.267988 
L 1001.621306 439.093251 
L 1006.258849 435.061043 
L 1010.896392 440.267988 
L 1015.533935 439.950492 
L 1020.171478 439.220249 
L 1024.809021 438.331259 
L 1029.446564 440.998231 
L 1034.084107 440.07749 
L 1038.721649 441.728473 
L 1043.359192 438.934502 
L 1047.996735 440.10924 
L 1052.634278 445.85593 
L 1057.271821 445.316186 
L 1061.909364 442.426966 
L 1066.546907 444.554194 
L 1071.18445 441.98247 
L 1075.821993 445.316186 
L 1080.459536 445.538433 
L 1085.097079 442.93496 
L 1089.734622 441.410976 
L 1094.372165 442.04597 
L 1099.009708 441.633224 
L 1103.647251 441.728473 
L 1108.284794 441.98247 
L 1112.922337 444.204947 
L 1117.55988 442.331717 
L 1122.197423 442.744462 
L 1126.834966 444.617693 
L 1131.472509 443.696952 
L 1136.110052 444.585943 
L 1140.747595 447.506913 
L 1145.385137 446.871919 
L 1150.02268 449.253144 
L 1154.660223 447.189416 
L 1159.297766 443.792201 
L 1163.935309 439.220249 
L 1168.572852 436.743775 
L 1173.210395 436.839024 
L 1177.847938 441.379227 
L 1182.485481 443.220707 
L 1187.123024 444.744692 
L 1191.760567 451.412122 
L 1196.39811 452.872607 
L 1201.035653 450.173885 
L 1205.673196 454.206093 
L 1210.310739 456.873065 
L 1214.948282 462.873752 
L 1219.585825 465.699472 
L 1224.223368 462.683254 
L 1228.860911 454.237842 
L 1233.498454 453.285352 
L 1238.135997 450.999376 
L 1242.77354 445.633682 
L 1247.411082 443.728702 
L 1252.048625 444.046199 
L 1256.686168 449.602391 
L 1261.323711 451.60262 
L 1265.961254 449.602391 
L 1270.598797 450.300883 
L 1275.23634 449.792889 
L 1279.873883 451.158124 
L 1289.148969 473.954386 
L 1293.786512 479.28833 
L 1298.424055 489.82922 
L 1303.061598 490.305465 
L 1307.699141 474.906876 
L 1312.336684 479.637577 
L 1316.974227 468.525193 
L 1321.61177 473.859137 
L 1326.249313 474.52588 
L 1330.886856 483.574535 
L 1335.524399 479.447079 
L 1340.161942 483.542786 
L 1344.799485 504.846813 
L 1349.437027 488.84498 
L 1354.07457 512.149237 
L 1358.712113 494.051926 
L 1363.349656 496.655399 
L 1367.987199 502.370339 
L 1372.624742 504.529316 
L 1377.262285 509.641013 
L 1381.899828 505.640555 
L 1386.537371 507.894781 
L 1391.174914 493.067686 
L 1395.812457 492.146946 
L 1400.45 488.717982 
L 1400.45 488.717982 
" style="fill:none;stroke:#2ca02c;stroke-linecap:square;stroke-width:1.5;"/>
   </g>
   <g id="line2d_52">
    <path clip-path="url(#p1eb4f2ed63)" d="M 50.925 252.119456 
L 55.562543 256.310412 
L 60.200086 256.310412 
L 64.837629 255.929416 
L 69.475172 258.945635 
L 74.112715 257.834396 
L 78.750258 259.104383 
L 83.387801 252.246455 
L 88.025344 251.325714 
L 92.662887 251.77021 
L 97.30043 245.198028 
L 101.937973 247.388756 
L 106.575515 245.293277 
L 111.213058 248.245997 
L 115.850601 244.499536 
L 120.488144 245.769522 
L 125.125687 246.055269 
L 129.76323 246.817262 
L 134.400773 244.372537 
L 139.038316 238.943344 
L 143.675859 238.530598 
L 152.950945 236.593868 
L 157.588488 239.29259 
L 162.226031 239.864084 
L 166.863574 238.276601 
L 171.501117 236.308121 
L 176.13866 235.577879 
L 180.776203 239.991083 
L 190.051289 242.689805 
L 194.688832 238.657597 
L 199.326375 242.308809 
L 203.963918 239.737086 
L 208.60146 243.515296 
L 213.239003 244.467786 
L 217.876546 238.244851 
L 222.514089 237.832105 
L 227.151632 237.260611 
L 231.789175 234.371392 
L 236.426718 236.943115 
L 241.064261 240.975323 
L 245.701804 242.689805 
L 250.339347 247.769752 
L 254.97689 245.833022 
L 259.614433 245.96002 
L 264.251976 247.769752 
L 268.889519 247.738002 
L 273.527062 248.91274 
L 278.164605 246.468015 
L 282.802148 244.753533 
L 287.439691 239.991083 
L 292.077234 238.403599 
L 296.714777 241.578566 
L 301.35232 240.594327 
L 305.989863 234.022145 
L 310.627405 236.244622 
L 315.264948 234.815887 
L 319.902491 232.466412 
L 324.540034 234.212643 
L 329.177577 229.894688 
L 333.81512 227.513463 
L 338.452663 229.640691 
L 343.090206 227.322965 
L 347.727749 227.068968 
L 352.365292 233.799898 
L 357.002835 234.371392 
L 361.640378 237.736856 
L 366.277921 236.720867 
L 370.915464 242.594556 
L 375.553007 243.801043 
L 380.19055 243.515296 
L 384.828093 239.387839 
L 389.465636 238.117852 
L 394.103179 238.721096 
L 398.740722 239.673586 
L 403.378265 237.641607 
L 408.015808 234.371392 
L 412.653351 237.35586 
L 417.290893 243.007301 
L 421.928436 261.231611 
L 426.565979 258.755137 
L 431.203522 261.803105 
L 435.841065 260.882364 
L 440.478608 253.61169 
L 445.116151 251.547962 
L 449.753694 244.245538 
L 454.391237 238.30835 
L 459.02878 236.816116 
L 463.666323 234.403141 
L 468.303866 228.370704 
L 472.941409 231.450422 
L 482.216495 235.48263 
L 486.854038 232.974406 
L 491.491581 232.275914 
L 496.129124 226.687972 
L 500.766667 227.068968 
L 505.40421 223.98925 
L 510.041753 220.242789 
L 514.679296 227.83096 
L 519.316838 231.513922 
L 523.954381 235.990625 
L 528.591924 235.736627 
L 533.229467 233.6094 
L 537.86701 226.91022 
L 542.504553 231.894918 
L 547.142096 230.624931 
L 551.779639 229.227945 
L 556.417182 229.862939 
L 561.054725 233.355402 
L 565.692268 251.801959 
L 570.329811 250.500223 
L 574.967354 257.5169 
L 579.604897 259.548878 
L 584.24244 258.882135 
L 588.879983 264.470077 
L 593.517526 269.772271 
L 598.155069 269.137278 
L 602.792612 266.152809 
L 607.430155 261.898354 
L 612.067698 263.136591 
L 616.705241 255.865917 
L 621.342784 258.850386 
L 625.980326 264.755824 
L 630.617869 264.533576 
L 635.255412 262.057102 
L 639.892955 264.946322 
L 644.530498 263.009592 
L 649.168041 264.787574 
L 653.805584 260.120372 
L 658.443127 258.977384 
L 663.08067 259.326631 
L 667.718213 254.59593 
L 672.355756 264.628825 
L 676.993299 263.739835 
L 681.630842 261.136362 
L 686.268385 258.310641 
L 690.905928 263.549337 
L 695.543471 260.596617 
L 700.181014 261.422109 
L 704.818557 272.661491 
L 709.4561 272.439244 
L 714.093643 266.597305 
L 718.731186 269.645273 
L 723.368729 271.042258 
L 728.006271 270.661262 
L 732.643814 269.454775 
L 737.281357 269.073779 
L 741.9189 269.962769 
L 746.556443 271.137507 
L 751.193986 275.137965 
L 755.831529 266.883052 
L 760.469072 261.739605 
L 765.106615 264.089081 
L 769.744158 262.977842 
L 774.381701 266.914801 
L 779.019244 266.502056 
L 783.656787 264.15258 
L 788.29433 265.10507 
L 792.931873 260.215621 
L 797.569416 259.929874 
L 802.206959 260.533118 
L 806.844502 262.311099 
L 811.482045 269.105528 
L 816.119588 269.89927 
L 820.757131 267.422796 
L 825.394674 265.486066 
L 830.032216 259.104383 
L 834.669759 261.676106 
L 839.307302 253.833938 
L 843.944845 255.421422 
L 848.582388 259.612378 
L 853.219931 267.930791 
L 857.857474 268.438785 
L 862.495017 261.231611 
L 867.13256 263.168341 
L 871.770103 256.437411 
L 876.407646 249.039738 
L 881.045189 245.864771 
L 885.682732 272.75674 
L 890.320275 271.740751 
L 894.957818 267.99429 
L 899.595361 265.771813 
L 904.232904 273.391734 
L 913.50799 268.057789 
L 918.145533 268.234318 
L 922.783076 256.437411 
L 927.420619 258.977384 
L 932.058162 261.644356 
L 936.695704 264.724074 
L 941.333247 264.120831 
L 945.97079 262.406348 
L 950.608333 260.914114 
L 955.245876 255.929416 
L 959.883419 259.167882 
L 964.520962 261.168111 
L 969.158505 261.422109 
L 973.796048 262.406348 
L 978.433591 249.769981 
L 983.071134 250.119227 
L 987.708677 250.150977 
L 992.34622 246.595014 
L 996.983763 245.00753 
L 1001.621306 239.832335 
L 1006.258849 242.658055 
L 1010.896392 242.689805 
L 1015.533935 240.848324 
L 1020.171478 241.673815 
L 1024.809021 242.086561 
L 1029.446564 242.721554 
L 1034.084107 235.673128 
L 1038.721649 235.101634 
L 1043.359192 232.498161 
L 1047.996735 232.117165 
L 1052.634278 233.736398 
L 1057.271821 230.593181 
L 1061.909364 229.450193 
L 1066.546907 229.323194 
L 1071.18445 228.021458 
L 1075.821993 222.401767 
L 1080.459536 223.576505 
L 1085.097079 216.718576 
L 1089.734622 214.46435 
L 1094.372165 213.257862 
L 1099.009708 214.877096 
L 1108.284794 215.44859 
L 1112.922337 216.877325 
L 1117.55988 215.067594 
L 1122.197423 214.750097 
L 1126.834966 220.115791 
L 1131.472509 220.687285 
L 1136.110052 217.893314 
L 1140.747595 217.956813 
L 1145.385137 216.591578 
L 1150.02268 217.639317 
L 1154.660223 215.607338 
L 1159.297766 213.003865 
L 1163.935309 211.448131 
L 1168.572852 207.669921 
L 1173.210395 204.590203 
L 1177.847938 204.272706 
L 1182.485481 207.511173 
L 1187.123024 206.622182 
L 1191.760567 207.288925 
L 1196.39811 205.923689 
L 1201.035653 203.542464 
L 1205.673196 200.240499 
L 1210.310739 200.811993 
L 1214.948282 205.542693 
L 1219.585825 201.415236 
L 1224.223368 196.875034 
L 1228.860911 189.286863 
L 1233.498454 190.747348 
L 1238.135997 195.954293 
L 1242.77354 196.049542 
L 1247.411082 195.636797 
L 1252.048625 198.494267 
L 1256.686168 201.669234 
L 1261.323711 201.542235 
L 1265.961254 204.685452 
L 1270.598797 205.320445 
L 1275.23634 207.130177 
L 1279.873883 202.177228 
L 1284.511426 214.940595 
L 1289.148969 218.941053 
L 1293.786512 222.020771 
L 1303.061598 251.230465 
L 1307.699141 233.641149 
L 1312.336684 247.706252 
L 1316.974227 222.655764 
L 1321.61177 227.322965 
L 1326.249313 227.259466 
L 1330.886856 245.00753 
L 1335.524399 228.497703 
L 1340.161942 259.739376 
L 1344.799485 280.027414 
L 1349.437027 251.833709 
L 1354.07457 274.566471 
L 1358.712113 244.531285 
L 1363.349656 249.706481 
L 1367.987199 274.820469 
L 1372.624742 297.553231 
L 1377.262285 325.33419 
L 1381.899828 299.807457 
L 1386.537371 299.108965 
L 1391.174914 276.344453 
L 1395.812457 287.171089 
L 1400.45 255.897667 
L 1400.45 255.897667 
" style="fill:none;stroke:#d62728;stroke-linecap:square;stroke-width:1.5;"/>
   </g>
   <g id="line2d_53">
    <path clip-path="url(#p1eb4f2ed63)" d="M 50.925 368.735986 
L 55.562543 366.958005 
L 60.200086 368.831235 
L 64.837629 367.307251 
L 69.475172 369.783725 
L 78.750258 366.196013 
L 83.387801 363.052796 
L 88.025344 363.116295 
L 92.662887 365.592769 
L 97.30043 365.52927 
L 101.937973 360.73507 
L 106.575515 362.989297 
L 115.850601 359.909579 
L 120.488144 362.068556 
L 125.125687 361.243065 
L 129.76323 364.164034 
L 134.400773 365.307022 
L 139.038316 365.656269 
L 143.675859 364.291033 
L 148.313402 363.59254 
L 152.950945 364.100535 
L 157.588488 365.307022 
L 162.226031 365.751518 
L 166.863574 362.036807 
L 171.501117 360.544572 
L 176.13866 356.95686 
L 180.776203 356.512364 
L 185.413746 352.956401 
L 190.051289 355.909121 
L 194.688832 354.670884 
L 199.326375 355.242378 
L 203.963918 352.797653 
L 208.60146 355.432876 
L 213.239003 354.480386 
L 217.876546 351.114921 
L 222.514089 351.495917 
L 227.151632 349.432188 
L 231.789175 347.844705 
L 236.426718 349.146441 
L 241.064261 348.797195 
L 245.701804 348.987693 
L 250.339347 349.813184 
L 254.97689 349.114692 
L 259.614433 344.923735 
L 264.251976 345.907975 
L 268.889519 345.939725 
L 273.527062 345.622228 
L 278.164605 344.637988 
L 287.439691 340.320034 
L 292.077234 342.129765 
L 296.714777 341.494771 
L 301.35232 341.62177 
L 305.989863 350.670425 
L 310.627405 348.987693 
L 315.264948 350.289429 
L 319.902491 342.098015 
L 324.540034 345.526979 
L 329.177577 340.129536 
L 333.81512 345.050734 
L 338.452663 343.050505 
L 343.090206 341.399522 
L 347.727749 342.669509 
L 352.365292 345.780977 
L 357.002835 344.606239 
L 361.640378 347.241461 
L 366.277921 341.62177 
L 370.915464 341.304273 
L 375.553007 342.923506 
L 380.19055 339.431043 
L 384.828093 334.95434 
L 389.465636 337.049818 
L 394.103179 337.430814 
L 398.740722 340.478782 
L 403.378265 339.367544 
L 408.015808 339.240545 
L 412.653351 339.462793 
L 417.290893 346.542969 
L 421.928436 347.40021 
L 426.565979 343.780747 
L 431.203522 351.464167 
L 440.478608 345.844476 
L 445.116151 339.335794 
L 449.753694 337.272066 
L 454.391237 332.858862 
L 459.02878 333.01761 
L 463.666323 330.922132 
L 468.303866 329.969642 
L 472.941409 326.064433 
L 477.578952 325.143692 
L 482.216495 325.810435 
L 486.854038 330.223639 
L 491.491581 327.620166 
L 496.129124 323.42921 
L 500.766667 325.143692 
L 505.40421 321.55598 
L 510.041753 323.49271 
L 514.679296 329.810894 
L 519.316838 329.652145 
L 523.954381 330.064891 
L 528.591924 327.397919 
L 533.229467 324.254702 
L 537.86701 315.999788 
L 542.504553 318.952507 
L 547.142096 316.095037 
L 551.779639 319.714499 
L 556.417182 317.047527 
L 565.692268 313.110568 
L 570.329811 311.554834 
L 574.967354 310.253098 
L 579.604897 310.09435 
L 584.24244 311.681833 
L 588.879983 313.047069 
L 593.517526 312.126328 
L 598.155069 316.73003 
L 602.792612 320.698739 
L 607.430155 320.158994 
L 612.067698 313.93606 
L 616.705241 309.903852 
L 621.342784 295.902248 
L 625.980326 303.426919 
L 630.617869 307.586126 
L 635.255412 308.506866 
L 639.892955 319.174755 
L 649.168041 311.427836 
L 653.805584 305.3319 
L 658.443127 307.427378 
L 663.08067 309.808603 
L 667.718213 305.935143 
L 672.355756 310.570595 
L 676.993299 305.490648 
L 681.630842 299.807457 
L 686.268385 296.441993 
L 690.905928 300.696448 
L 695.543471 299.743958 
L 700.181014 299.045465 
L 704.818557 305.712896 
L 709.4561 299.362962 
L 714.093643 295.457753 
L 718.731186 292.759031 
L 723.368729 293.457524 
L 728.006271 296.473742 
L 732.643814 292.88603 
L 737.281357 287.012341 
L 741.9189 288.441076 
L 746.556443 288.09183 
L 751.193986 290.314307 
L 755.831529 297.584981 
L 760.469072 293.171777 
L 765.106615 288.409327 
L 769.744158 290.473055 
L 774.381701 297.997726 
L 779.019244 293.521023 
L 783.656787 292.727281 
L 788.29433 291.171548 
L 792.931873 290.092059 
L 797.569416 286.980591 
L 802.206959 285.742354 
L 806.844502 287.615585 
L 811.482045 283.519878 
L 816.119588 282.694386 
L 820.757131 283.29763 
L 825.394674 284.980362 
L 830.032216 293.77502 
L 834.669759 291.679542 
L 839.307302 284.504117 
L 843.944845 288.187079 
L 848.582388 294.251265 
L 853.219931 290.91755 
L 857.857474 291.044549 
L 862.495017 293.743271 
L 867.13256 297.045236 
L 871.770103 306.093892 
L 876.407646 305.046153 
L 881.045189 307.903623 
L 885.682732 305.236651 
L 890.320275 300.124954 
L 894.957818 290.282557 
L 899.595361 287.679084 
L 904.232904 281.995894 
L 908.870447 286.885342 
L 913.50799 286.1551 
L 918.145533 285.774104 
L 922.783076 281.519649 
L 927.420619 282.884884 
L 932.058162 284.916863 
L 936.695704 300.156704 
L 941.333247 300.696448 
L 945.97079 296.187995 
L 950.608333 298.410472 
L 955.245876 298.156475 
L 959.883419 299.331212 
L 964.520962 299.52171 
L 969.158505 295.140256 
L 973.796048 295.616501 
L 978.433591 295.489502 
L 983.071134 291.203297 
L 987.708677 292.695532 
L 992.34622 289.933311 
L 996.983763 296.124496 
L 1001.621306 296.283244 
L 1006.258849 295.584751 
L 1010.896392 290.02856 
L 1015.533935 291.616043 
L 1020.171478 290.663553 
L 1024.809021 288.568075 
L 1029.446564 287.837833 
L 1034.084107 282.821385 
L 1038.721649 282.535638 
L 1043.359192 283.900874 
L 1047.996735 281.741896 
L 1052.634278 283.646876 
L 1057.271821 282.408639 
L 1061.909364 282.694386 
L 1066.546907 279.836916 
L 1071.18445 279.551169 
L 1075.821993 280.344911 
L 1080.459536 284.472368 
L 1085.097079 281.583148 
L 1089.734622 280.186163 
L 1094.372165 281.646647 
L 1099.009708 280.630658 
L 1103.647251 280.630658 
L 1108.284794 277.868437 
L 1112.922337 283.011883 
L 1117.55988 281.646647 
L 1122.197423 286.377348 
L 1126.834966 289.01257 
L 1131.472509 288.472826 
L 1136.110052 290.885801 
L 1140.747595 289.234818 
L 1145.385137 284.980362 
L 1150.02268 284.599366 
L 1154.660223 281.710147 
L 1159.297766 282.31339 
L 1163.935309 278.281182 
L 1168.572852 277.931936 
L 1173.210395 276.852447 
L 1177.847938 277.868437 
L 1182.485481 277.169944 
L 1187.123024 281.3609 
L 1191.760567 280.884655 
L 1196.39811 279.138423 
L 1201.035653 278.058935 
L 1205.673196 281.138653 
L 1210.310739 278.312932 
L 1214.948282 282.535638 
L 1219.585825 280.979904 
L 1224.223368 279.233672 
L 1228.860911 275.582461 
L 1233.498454 274.534722 
L 1238.135997 277.900186 
L 1242.77354 277.614439 
L 1247.411082 283.996123 
L 1252.048625 286.250349 
L 1256.686168 281.456149 
L 1261.323711 277.709688 
L 1265.961254 281.741896 
L 1270.598797 279.932165 
L 1275.23634 276.312703 
L 1279.873883 275.931707 
L 1284.511426 286.726594 
L 1289.148969 292.663782 
L 1293.786512 296.69599 
L 1298.424055 317.841269 
L 1303.061598 318.69851 
L 1307.699141 298.60097 
L 1312.336684 303.014174 
L 1316.974227 282.916634 
L 1321.61177 292.028789 
L 1326.249313 291.93354 
L 1330.886856 309.713354 
L 1335.524399 295.457753 
L 1340.161942 323.905455 
L 1344.799485 354.861382 
L 1349.437027 316.031538 
L 1354.07457 333.716103 
L 1358.712113 302.791926 
L 1363.349656 305.30015 
L 1367.987199 326.31843 
L 1372.624742 352.988151 
L 1377.262285 368.005744 
L 1381.899828 350.321179 
L 1386.537371 357.782351 
L 1391.174914 337.272066 
L 1395.812457 328.413908 
L 1400.45 313.078819 
L 1400.45 313.078819 
" style="fill:none;stroke:#9467bd;stroke-linecap:square;stroke-width:1.5;"/>
   </g>
   <g id="patch_3">
    <path d="M 50.925 678.2 
L 50.925 26.8 
" style="fill:none;stroke:#000000;stroke-linecap:square;stroke-linejoin:miter;stroke-width:0.8;"/>
   </g>
   <g id="patch_4">
    <path d="M 1400.45 678.2 
L 1400.45 26.8 
" style="fill:none;stroke:#000000;stroke-linecap:square;stroke-linejoin:miter;stroke-width:0.8;"/>
   </g>
   <g id="patch_5">
    <path d="M 50.925 678.2 
L 1400.45 678.2 
" style="fill:none;stroke:#000000;stroke-linecap:square;stroke-linejoin:miter;stroke-width:0.8;"/>
   </g>
   <g id="patch_6">
    <path d="M 50.925 26.8 
L 1400.45 26.8 
" style="fill:none;stroke:#000000;stroke-linecap:square;stroke-linejoin:miter;stroke-width:0.8;"/>
   </g>
   <g id="text_27">
    <!-- Hygiene Stock Prices -->
    <defs>
     <path d="M 9.8125 72.90625 
L 19.671875 72.90625 
L 19.671875 43.015625 
L 55.515625 43.015625 
L 55.515625 72.90625 
L 65.375 72.90625 
L 65.375 0 
L 55.515625 0 
L 55.515625 34.71875 
L 19.671875 34.71875 
L 19.671875 0 
L 9.8125 0 
z
" id="DejaVuSans-72"/>
     <path d="M 32.171875 -5.078125 
Q 28.375 -14.84375 24.75 -17.8125 
Q 21.140625 -20.796875 15.09375 -20.796875 
L 7.90625 -20.796875 
L 7.90625 -13.28125 
L 13.1875 -13.28125 
Q 16.890625 -13.28125 18.9375 -11.515625 
Q 21 -9.765625 23.484375 -3.21875 
L 25.09375 0.875 
L 2.984375 54.6875 
L 12.5 54.6875 
L 29.59375 11.921875 
L 46.6875 54.6875 
L 56.203125 54.6875 
z
" id="DejaVuSans-121"/>
     <path d="M 45.40625 27.984375 
Q 45.40625 37.75 41.375 43.109375 
Q 37.359375 48.484375 30.078125 48.484375 
Q 22.859375 48.484375 18.828125 43.109375 
Q 14.796875 37.75 14.796875 27.984375 
Q 14.796875 18.265625 18.828125 12.890625 
Q 22.859375 7.515625 30.078125 7.515625 
Q 37.359375 7.515625 41.375 12.890625 
Q 45.40625 18.265625 45.40625 27.984375 
z
M 54.390625 6.78125 
Q 54.390625 -7.171875 48.1875 -13.984375 
Q 42 -20.796875 29.203125 -20.796875 
Q 24.46875 -20.796875 20.265625 -20.09375 
Q 16.0625 -19.390625 12.109375 -17.921875 
L 12.109375 -9.1875 
Q 16.0625 -11.328125 19.921875 -12.34375 
Q 23.78125 -13.375 27.78125 -13.375 
Q 36.625 -13.375 41.015625 -8.765625 
Q 45.40625 -4.15625 45.40625 5.171875 
L 45.40625 9.625 
Q 42.625 4.78125 38.28125 2.390625 
Q 33.9375 0 27.875 0 
Q 17.828125 0 11.671875 7.65625 
Q 5.515625 15.328125 5.515625 27.984375 
Q 5.515625 40.671875 11.671875 48.328125 
Q 17.828125 56 27.875 56 
Q 33.9375 56 38.28125 53.609375 
Q 42.625 51.21875 45.40625 46.390625 
L 45.40625 54.6875 
L 54.390625 54.6875 
z
" id="DejaVuSans-103"/>
     <path d="M 54.890625 33.015625 
L 54.890625 0 
L 45.90625 0 
L 45.90625 32.71875 
Q 45.90625 40.484375 42.875 44.328125 
Q 39.84375 48.1875 33.796875 48.1875 
Q 26.515625 48.1875 22.3125 43.546875 
Q 18.109375 38.921875 18.109375 30.90625 
L 18.109375 0 
L 9.078125 0 
L 9.078125 54.6875 
L 18.109375 54.6875 
L 18.109375 46.1875 
Q 21.34375 51.125 25.703125 53.5625 
Q 30.078125 56 35.796875 56 
Q 45.21875 56 50.046875 50.171875 
Q 54.890625 44.34375 54.890625 33.015625 
z
" id="DejaVuSans-110"/>
     <path d="M 53.515625 70.515625 
L 53.515625 60.890625 
Q 47.90625 63.578125 42.921875 64.890625 
Q 37.9375 66.21875 33.296875 66.21875 
Q 25.25 66.21875 20.875 63.09375 
Q 16.5 59.96875 16.5 54.203125 
Q 16.5 49.359375 19.40625 46.890625 
Q 22.3125 44.4375 30.421875 42.921875 
L 36.375 41.703125 
Q 47.40625 39.59375 52.65625 34.296875 
Q 57.90625 29 57.90625 20.125 
Q 57.90625 9.515625 50.796875 4.046875 
Q 43.703125 -1.421875 29.984375 -1.421875 
Q 24.8125 -1.421875 18.96875 -0.25 
Q 13.140625 0.921875 6.890625 3.21875 
L 6.890625 13.375 
Q 12.890625 10.015625 18.65625 8.296875 
Q 24.421875 6.59375 29.984375 6.59375 
Q 38.421875 6.59375 43.015625 9.90625 
Q 47.609375 13.234375 47.609375 19.390625 
Q 47.609375 24.75 44.3125 27.78125 
Q 41.015625 30.8125 33.5 32.328125 
L 27.484375 33.5 
Q 16.453125 35.6875 11.515625 40.375 
Q 6.59375 45.0625 6.59375 53.421875 
Q 6.59375 63.09375 13.40625 68.65625 
Q 20.21875 74.21875 32.171875 74.21875 
Q 37.3125 74.21875 42.625 73.28125 
Q 47.953125 72.359375 53.515625 70.515625 
z
" id="DejaVuSans-83"/>
     <path d="M 9.078125 75.984375 
L 18.109375 75.984375 
L 18.109375 31.109375 
L 44.921875 54.6875 
L 56.390625 54.6875 
L 27.390625 29.109375 
L 57.625 0 
L 45.90625 0 
L 18.109375 26.703125 
L 18.109375 0 
L 9.078125 0 
z
" id="DejaVuSans-107"/>
    </defs>
    <g transform="translate(662.675313 20.8)scale(0.12 -0.12)">
     <use xlink:href="#DejaVuSans-72"/>
     <use x="75.195312" xlink:href="#DejaVuSans-121"/>
     <use x="134.375" xlink:href="#DejaVuSans-103"/>
     <use x="197.851562" xlink:href="#DejaVuSans-105"/>
     <use x="225.634766" xlink:href="#DejaVuSans-101"/>
     <use x="287.158203" xlink:href="#DejaVuSans-110"/>
     <use x="350.537109" xlink:href="#DejaVuSans-101"/>
     <use x="412.060547" xlink:href="#DejaVuSans-32"/>
     <use x="443.847656" xlink:href="#DejaVuSans-83"/>
     <use x="507.324219" xlink:href="#DejaVuSans-116"/>
     <use x="546.533203" xlink:href="#DejaVuSans-111"/>
     <use x="607.714844" xlink:href="#DejaVuSans-99"/>
     <use x="662.695312" xlink:href="#DejaVuSans-107"/>
     <use x="720.605469" xlink:href="#DejaVuSans-32"/>
     <use x="752.392578" xlink:href="#DejaVuSans-80"/>
     <use x="812.679688" xlink:href="#DejaVuSans-114"/>
     <use x="853.792969" xlink:href="#DejaVuSans-105"/>
     <use x="881.576172" xlink:href="#DejaVuSans-99"/>
     <use x="936.556641" xlink:href="#DejaVuSans-101"/>
     <use x="998.080078" xlink:href="#DejaVuSans-115"/>
    </g>
   </g>
   <g id="legend_1">
    <g id="patch_7">
     <path d="M 57.925 108.190625 
L 110.096875 108.190625 
Q 112.096875 108.190625 112.096875 106.190625 
L 112.096875 33.8 
Q 112.096875 31.8 110.096875 31.8 
L 57.925 31.8 
Q 55.925 31.8 55.925 33.8 
L 55.925 106.190625 
Q 55.925 108.190625 57.925 108.190625 
z
" style="fill:#ffffff;opacity:0.8;stroke:#cccccc;stroke-linejoin:miter;"/>
    </g>
    <g id="line2d_54">
     <path d="M 59.925 39.898438 
L 79.925 39.898438 
" style="fill:none;stroke:#1f77b4;stroke-linecap:square;stroke-width:1.5;"/>
    </g>
    <g id="line2d_55"/>
    <g id="text_28">
     <!-- CL -->
     <defs>
      <path d="M 9.8125 72.90625 
L 19.671875 72.90625 
L 19.671875 8.296875 
L 55.171875 8.296875 
L 55.171875 0 
L 9.8125 0 
z
" id="DejaVuSans-76"/>
     </defs>
     <g transform="translate(87.925 43.398438)scale(0.1 -0.1)">
      <use xlink:href="#DejaVuSans-67"/>
      <use x="69.824219" xlink:href="#DejaVuSans-76"/>
     </g>
    </g>
    <g id="line2d_56">
     <path d="M 59.925 54.576563 
L 79.925 54.576563 
" style="fill:none;stroke:#ff7f0e;stroke-linecap:square;stroke-width:1.5;"/>
    </g>
    <g id="line2d_57"/>
    <g id="text_29">
     <!-- CLX -->
     <defs>
      <path d="M 6.296875 72.90625 
L 16.890625 72.90625 
L 35.015625 45.796875 
L 53.21875 72.90625 
L 63.8125 72.90625 
L 40.375 37.890625 
L 65.375 0 
L 54.78125 0 
L 34.28125 31 
L 13.625 0 
L 2.984375 0 
L 29 38.921875 
z
" id="DejaVuSans-88"/>
     </defs>
     <g transform="translate(87.925 58.076563)scale(0.1 -0.1)">
      <use xlink:href="#DejaVuSans-67"/>
      <use x="69.824219" xlink:href="#DejaVuSans-76"/>
      <use x="125.537109" xlink:href="#DejaVuSans-88"/>
     </g>
    </g>
    <g id="line2d_58">
     <path d="M 59.925 69.254688 
L 79.925 69.254688 
" style="fill:none;stroke:#2ca02c;stroke-linecap:square;stroke-width:1.5;"/>
    </g>
    <g id="line2d_59"/>
    <g id="text_30">
     <!-- CVS -->
     <defs>
      <path d="M 28.609375 0 
L 0.78125 72.90625 
L 11.078125 72.90625 
L 34.1875 11.53125 
L 57.328125 72.90625 
L 67.578125 72.90625 
L 39.796875 0 
z
" id="DejaVuSans-86"/>
     </defs>
     <g transform="translate(87.925 72.754688)scale(0.1 -0.1)">
      <use xlink:href="#DejaVuSans-67"/>
      <use x="69.824219" xlink:href="#DejaVuSans-86"/>
      <use x="138.232422" xlink:href="#DejaVuSans-83"/>
     </g>
    </g>
    <g id="line2d_60">
     <path d="M 59.925 83.932813 
L 79.925 83.932813 
" style="fill:none;stroke:#d62728;stroke-linecap:square;stroke-width:1.5;"/>
    </g>
    <g id="line2d_61"/>
    <g id="text_31">
     <!-- JNJ -->
     <defs>
      <path d="M 9.8125 72.90625 
L 19.671875 72.90625 
L 19.671875 5.078125 
Q 19.671875 -8.109375 14.671875 -14.0625 
Q 9.671875 -20.015625 -1.421875 -20.015625 
L -5.171875 -20.015625 
L -5.171875 -11.71875 
L -2.09375 -11.71875 
Q 4.4375 -11.71875 7.125 -8.046875 
Q 9.8125 -4.390625 9.8125 5.078125 
z
" id="DejaVuSans-74"/>
      <path d="M 9.8125 72.90625 
L 23.09375 72.90625 
L 55.421875 11.921875 
L 55.421875 72.90625 
L 64.984375 72.90625 
L 64.984375 0 
L 51.703125 0 
L 19.390625 60.984375 
L 19.390625 0 
L 9.8125 0 
z
" id="DejaVuSans-78"/>
     </defs>
     <g transform="translate(87.925 87.432813)scale(0.1 -0.1)">
      <use xlink:href="#DejaVuSans-74"/>
      <use x="29.492188" xlink:href="#DejaVuSans-78"/>
      <use x="104.296875" xlink:href="#DejaVuSans-74"/>
     </g>
    </g>
    <g id="line2d_62">
     <path d="M 59.925 98.610938 
L 79.925 98.610938 
" style="fill:none;stroke:#9467bd;stroke-linecap:square;stroke-width:1.5;"/>
    </g>
    <g id="line2d_63"/>
    <g id="text_32">
     <!-- PG -->
     <defs>
      <path d="M 59.515625 10.40625 
L 59.515625 29.984375 
L 43.40625 29.984375 
L 43.40625 38.09375 
L 69.28125 38.09375 
L 69.28125 6.78125 
Q 63.578125 2.734375 56.6875 0.65625 
Q 49.8125 -1.421875 42 -1.421875 
Q 24.90625 -1.421875 15.25 8.5625 
Q 5.609375 18.5625 5.609375 36.375 
Q 5.609375 54.25 15.25 64.234375 
Q 24.90625 74.21875 42 74.21875 
Q 49.125 74.21875 55.546875 72.453125 
Q 61.96875 70.703125 67.390625 67.28125 
L 67.390625 56.78125 
Q 61.921875 61.421875 55.765625 63.765625 
Q 49.609375 66.109375 42.828125 66.109375 
Q 29.4375 66.109375 22.71875 58.640625 
Q 16.015625 51.171875 16.015625 36.375 
Q 16.015625 21.625 22.71875 14.15625 
Q 29.4375 6.6875 42.828125 6.6875 
Q 48.046875 6.6875 52.140625 7.59375 
Q 56.25 8.5 59.515625 10.40625 
z
" id="DejaVuSans-71"/>
     </defs>
     <g transform="translate(87.925 102.110938)scale(0.1 -0.1)">
      <use xlink:href="#DejaVuSans-80"/>
      <use x="60.302734" xlink:href="#DejaVuSans-71"/>
     </g>
    </g>
   </g>
  </g>
 </g>
 <defs>
  <clipPath id="p1eb4f2ed63">
   <rect height="651.4" width="1349.525" x="50.925" y="26.8"/>
  </clipPath>
 </defs>
</svg>
