<?xml version="1.0" encoding="utf-8" standalone="no"?>
<!DOCTYPE svg PUBLIC "-//W3C//DTD SVG 1.1//EN"
  "http://www.w3.org/Graphics/SVG/1.1/DTD/svg11.dtd">
<!-- Created with matplotlib (https://matplotlib.org/) -->
<svg height="720pt" version="1.1" viewBox="0 0 1440 720" width="1440pt" xmlns="http://www.w3.org/2000/svg" xmlns:xlink="http://www.w3.org/1999/xlink">
 <defs>
  <style type="text/css">
*{stroke-linecap:butt;stroke-linejoin:round;}
  </style>
 </defs>
 <g id="figure_1">
  <g id="patch_1">
   <path d="M 0 720 
L 1440 720 
L 1440 0 
L 0 0 
z
" style="fill:#ffffff;"/>
  </g>
  <g id="axes_1">
   <g id="patch_2">
    <path d="M 44.425 678.2 
L 1400.45 678.2 
L 1400.45 26.8 
L 44.425 26.8 
z
" style="fill:#ffffff;"/>
   </g>
   <g id="matplotlib.axis_1">
    <g id="xtick_1">
     <g id="line2d_1">
      <path clip-path="url(#pc75903bdcf)" d="M 44.425 678.2 
L 44.425 26.8 
" style="fill:none;stroke:#b0b0b0;stroke-linecap:square;stroke-width:0.8;"/>
     </g>
     <g id="line2d_2">
      <defs>
       <path d="M 0 0 
L 0 3.5 
" id="mb4e928cdbb" style="stroke:#000000;stroke-width:0.8;"/>
      </defs>
      <g>
       <use style="stroke:#000000;stroke-width:0.8;" x="44.425" xlink:href="#mb4e928cdbb" y="678.2"/>
      </g>
     </g>
     <g id="text_1">
      <!-- 2019-02-01 -->
      <defs>
       <path d="M 19.1875 8.296875 
L 53.609375 8.296875 
L 53.609375 0 
L 7.328125 0 
L 7.328125 8.296875 
Q 12.9375 14.109375 22.625 23.890625 
Q 32.328125 33.6875 34.8125 36.53125 
Q 39.546875 41.84375 41.421875 45.53125 
Q 43.3125 49.21875 43.3125 52.78125 
Q 43.3125 58.59375 39.234375 62.25 
Q 35.15625 65.921875 28.609375 65.921875 
Q 23.96875 65.921875 18.8125 64.3125 
Q 13.671875 62.703125 7.8125 59.421875 
L 7.8125 69.390625 
Q 13.765625 71.78125 18.9375 73 
Q 24.125 74.21875 28.421875 74.21875 
Q 39.75 74.21875 46.484375 68.546875 
Q 53.21875 62.890625 53.21875 53.421875 
Q 53.21875 48.921875 51.53125 44.890625 
Q 49.859375 40.875 45.40625 35.40625 
Q 44.1875 33.984375 37.640625 27.21875 
Q 31.109375 20.453125 19.1875 8.296875 
z
" id="DejaVuSans-50"/>
       <path d="M 31.78125 66.40625 
Q 24.171875 66.40625 20.328125 58.90625 
Q 16.5 51.421875 16.5 36.375 
Q 16.5 21.390625 20.328125 13.890625 
Q 24.171875 6.390625 31.78125 6.390625 
Q 39.453125 6.390625 43.28125 13.890625 
Q 47.125 21.390625 47.125 36.375 
Q 47.125 51.421875 43.28125 58.90625 
Q 39.453125 66.40625 31.78125 66.40625 
z
M 31.78125 74.21875 
Q 44.046875 74.21875 50.515625 64.515625 
Q 56.984375 54.828125 56.984375 36.375 
Q 56.984375 17.96875 50.515625 8.265625 
Q 44.046875 -1.421875 31.78125 -1.421875 
Q 19.53125 -1.421875 13.0625 8.265625 
Q 6.59375 17.96875 6.59375 36.375 
Q 6.59375 54.828125 13.0625 64.515625 
Q 19.53125 74.21875 31.78125 74.21875 
z
" id="DejaVuSans-48"/>
       <path d="M 12.40625 8.296875 
L 28.515625 8.296875 
L 28.515625 63.921875 
L 10.984375 60.40625 
L 10.984375 69.390625 
L 28.421875 72.90625 
L 38.28125 72.90625 
L 38.28125 8.296875 
L 54.390625 8.296875 
L 54.390625 0 
L 12.40625 0 
z
" id="DejaVuSans-49"/>
       <path d="M 10.984375 1.515625 
L 10.984375 10.5 
Q 14.703125 8.734375 18.5 7.8125 
Q 22.3125 6.890625 25.984375 6.890625 
Q 35.75 6.890625 40.890625 13.453125 
Q 46.046875 20.015625 46.78125 33.40625 
Q 43.953125 29.203125 39.59375 26.953125 
Q 35.25 24.703125 29.984375 24.703125 
Q 19.046875 24.703125 12.671875 31.3125 
Q 6.296875 37.9375 6.296875 49.421875 
Q 6.296875 60.640625 12.9375 67.421875 
Q 19.578125 74.21875 30.609375 74.21875 
Q 43.265625 74.21875 49.921875 64.515625 
Q 56.59375 54.828125 56.59375 36.375 
Q 56.59375 19.140625 48.40625 8.859375 
Q 40.234375 -1.421875 26.421875 -1.421875 
Q 22.703125 -1.421875 18.890625 -0.6875 
Q 15.09375 0.046875 10.984375 1.515625 
z
M 30.609375 32.421875 
Q 37.25 32.421875 41.125 36.953125 
Q 45.015625 41.5 45.015625 49.421875 
Q 45.015625 57.28125 41.125 61.84375 
Q 37.25 66.40625 30.609375 66.40625 
Q 23.96875 66.40625 20.09375 61.84375 
Q 16.21875 57.28125 16.21875 49.421875 
Q 16.21875 41.5 20.09375 36.953125 
Q 23.96875 32.421875 30.609375 32.421875 
z
" id="DejaVuSans-57"/>
       <path d="M 4.890625 31.390625 
L 31.203125 31.390625 
L 31.203125 23.390625 
L 4.890625 23.390625 
z
" id="DejaVuSans-45"/>
      </defs>
      <g transform="translate(15.367187 692.798437)scale(0.1 -0.1)">
       <use xlink:href="#DejaVuSans-50"/>
       <use x="63.623047" xlink:href="#DejaVuSans-48"/>
       <use x="127.246094" xlink:href="#DejaVuSans-49"/>
       <use x="190.869141" xlink:href="#DejaVuSans-57"/>
       <use x="254.492188" xlink:href="#DejaVuSans-45"/>
       <use x="290.576172" xlink:href="#DejaVuSans-48"/>
       <use x="354.199219" xlink:href="#DejaVuSans-50"/>
       <use x="417.822266" xlink:href="#DejaVuSans-45"/>
       <use x="453.90625" xlink:href="#DejaVuSans-48"/>
       <use x="517.529297" xlink:href="#DejaVuSans-49"/>
      </g>
     </g>
    </g>
    <g id="xtick_2">
     <g id="line2d_3">
      <path clip-path="url(#pc75903bdcf)" d="M 128.302835 678.2 
L 128.302835 26.8 
" style="fill:none;stroke:#b0b0b0;stroke-linecap:square;stroke-width:0.8;"/>
     </g>
     <g id="line2d_4">
      <g>
       <use style="stroke:#000000;stroke-width:0.8;" x="128.302835" xlink:href="#mb4e928cdbb" y="678.2"/>
      </g>
     </g>
     <g id="text_2">
      <!-- 2019-03-01 -->
      <defs>
       <path d="M 40.578125 39.3125 
Q 47.65625 37.796875 51.625 33 
Q 55.609375 28.21875 55.609375 21.1875 
Q 55.609375 10.40625 48.1875 4.484375 
Q 40.765625 -1.421875 27.09375 -1.421875 
Q 22.515625 -1.421875 17.65625 -0.515625 
Q 12.796875 0.390625 7.625 2.203125 
L 7.625 11.71875 
Q 11.71875 9.328125 16.59375 8.109375 
Q 21.484375 6.890625 26.8125 6.890625 
Q 36.078125 6.890625 40.9375 10.546875 
Q 45.796875 14.203125 45.796875 21.1875 
Q 45.796875 27.640625 41.28125 31.265625 
Q 36.765625 34.90625 28.71875 34.90625 
L 20.21875 34.90625 
L 20.21875 43.015625 
L 29.109375 43.015625 
Q 36.375 43.015625 40.234375 45.921875 
Q 44.09375 48.828125 44.09375 54.296875 
Q 44.09375 59.90625 40.109375 62.90625 
Q 36.140625 65.921875 28.71875 65.921875 
Q 24.65625 65.921875 20.015625 65.03125 
Q 15.375 64.15625 9.8125 62.3125 
L 9.8125 71.09375 
Q 15.4375 72.65625 20.34375 73.4375 
Q 25.25 74.21875 29.59375 74.21875 
Q 40.828125 74.21875 47.359375 69.109375 
Q 53.90625 64.015625 53.90625 55.328125 
Q 53.90625 49.265625 50.4375 45.09375 
Q 46.96875 40.921875 40.578125 39.3125 
z
" id="DejaVuSans-51"/>
      </defs>
      <g transform="translate(99.245023 692.798437)scale(0.1 -0.1)">
       <use xlink:href="#DejaVuSans-50"/>
       <use x="63.623047" xlink:href="#DejaVuSans-48"/>
       <use x="127.246094" xlink:href="#DejaVuSans-49"/>
       <use x="190.869141" xlink:href="#DejaVuSans-57"/>
       <use x="254.492188" xlink:href="#DejaVuSans-45"/>
       <use x="290.576172" xlink:href="#DejaVuSans-48"/>
       <use x="354.199219" xlink:href="#DejaVuSans-51"/>
       <use x="417.822266" xlink:href="#DejaVuSans-45"/>
       <use x="453.90625" xlink:href="#DejaVuSans-48"/>
       <use x="517.529297" xlink:href="#DejaVuSans-49"/>
      </g>
     </g>
    </g>
    <g id="xtick_3">
     <g id="line2d_5">
      <path clip-path="url(#pc75903bdcf)" d="M 216.84055 678.2 
L 216.84055 26.8 
" style="fill:none;stroke:#b0b0b0;stroke-linecap:square;stroke-width:0.8;"/>
     </g>
     <g id="line2d_6">
      <g>
       <use style="stroke:#000000;stroke-width:0.8;" x="216.84055" xlink:href="#mb4e928cdbb" y="678.2"/>
      </g>
     </g>
     <g id="text_3">
      <!-- 2019-04-01 -->
      <defs>
       <path d="M 37.796875 64.3125 
L 12.890625 25.390625 
L 37.796875 25.390625 
z
M 35.203125 72.90625 
L 47.609375 72.90625 
L 47.609375 25.390625 
L 58.015625 25.390625 
L 58.015625 17.1875 
L 47.609375 17.1875 
L 47.609375 0 
L 37.796875 0 
L 37.796875 17.1875 
L 4.890625 17.1875 
L 4.890625 26.703125 
z
" id="DejaVuSans-52"/>
      </defs>
      <g transform="translate(187.782737 692.798437)scale(0.1 -0.1)">
       <use xlink:href="#DejaVuSans-50"/>
       <use x="63.623047" xlink:href="#DejaVuSans-48"/>
       <use x="127.246094" xlink:href="#DejaVuSans-49"/>
       <use x="190.869141" xlink:href="#DejaVuSans-57"/>
       <use x="254.492188" xlink:href="#DejaVuSans-45"/>
       <use x="290.576172" xlink:href="#DejaVuSans-48"/>
       <use x="354.199219" xlink:href="#DejaVuSans-52"/>
       <use x="417.822266" xlink:href="#DejaVuSans-45"/>
       <use x="453.90625" xlink:href="#DejaVuSans-48"/>
       <use x="517.529297" xlink:href="#DejaVuSans-49"/>
      </g>
     </g>
    </g>
    <g id="xtick_4">
     <g id="line2d_7">
      <path clip-path="url(#pc75903bdcf)" d="M 314.698024 678.2 
L 314.698024 26.8 
" style="fill:none;stroke:#b0b0b0;stroke-linecap:square;stroke-width:0.8;"/>
     </g>
     <g id="line2d_8">
      <g>
       <use style="stroke:#000000;stroke-width:0.8;" x="314.698024" xlink:href="#mb4e928cdbb" y="678.2"/>
      </g>
     </g>
     <g id="text_4">
      <!-- 2019-05-01 -->
      <defs>
       <path d="M 10.796875 72.90625 
L 49.515625 72.90625 
L 49.515625 64.59375 
L 19.828125 64.59375 
L 19.828125 46.734375 
Q 21.96875 47.46875 24.109375 47.828125 
Q 26.265625 48.1875 28.421875 48.1875 
Q 40.625 48.1875 47.75 41.5 
Q 54.890625 34.8125 54.890625 23.390625 
Q 54.890625 11.625 47.5625 5.09375 
Q 40.234375 -1.421875 26.90625 -1.421875 
Q 22.3125 -1.421875 17.546875 -0.640625 
Q 12.796875 0.140625 7.71875 1.703125 
L 7.71875 11.625 
Q 12.109375 9.234375 16.796875 8.0625 
Q 21.484375 6.890625 26.703125 6.890625 
Q 35.15625 6.890625 40.078125 11.328125 
Q 45.015625 15.765625 45.015625 23.390625 
Q 45.015625 31 40.078125 35.4375 
Q 35.15625 39.890625 26.703125 39.890625 
Q 22.75 39.890625 18.8125 39.015625 
Q 14.890625 38.140625 10.796875 36.28125 
z
" id="DejaVuSans-53"/>
      </defs>
      <g transform="translate(285.640212 692.798437)scale(0.1 -0.1)">
       <use xlink:href="#DejaVuSans-50"/>
       <use x="63.623047" xlink:href="#DejaVuSans-48"/>
       <use x="127.246094" xlink:href="#DejaVuSans-49"/>
       <use x="190.869141" xlink:href="#DejaVuSans-57"/>
       <use x="254.492188" xlink:href="#DejaVuSans-45"/>
       <use x="290.576172" xlink:href="#DejaVuSans-48"/>
       <use x="354.199219" xlink:href="#DejaVuSans-53"/>
       <use x="417.822266" xlink:href="#DejaVuSans-45"/>
       <use x="453.90625" xlink:href="#DejaVuSans-48"/>
       <use x="517.529297" xlink:href="#DejaVuSans-49"/>
      </g>
     </g>
    </g>
    <g id="xtick_5">
     <g id="line2d_9">
      <path clip-path="url(#pc75903bdcf)" d="M 412.555498 678.2 
L 412.555498 26.8 
" style="fill:none;stroke:#b0b0b0;stroke-linecap:square;stroke-width:0.8;"/>
     </g>
     <g id="line2d_10">
      <g>
       <use style="stroke:#000000;stroke-width:0.8;" x="412.555498" xlink:href="#mb4e928cdbb" y="678.2"/>
      </g>
     </g>
     <g id="text_5">
      <!-- 2019-06-03 -->
      <defs>
       <path d="M 33.015625 40.375 
Q 26.375 40.375 22.484375 35.828125 
Q 18.609375 31.296875 18.609375 23.390625 
Q 18.609375 15.53125 22.484375 10.953125 
Q 26.375 6.390625 33.015625 6.390625 
Q 39.65625 6.390625 43.53125 10.953125 
Q 47.40625 15.53125 47.40625 23.390625 
Q 47.40625 31.296875 43.53125 35.828125 
Q 39.65625 40.375 33.015625 40.375 
z
M 52.59375 71.296875 
L 52.59375 62.3125 
Q 48.875 64.0625 45.09375 64.984375 
Q 41.3125 65.921875 37.59375 65.921875 
Q 27.828125 65.921875 22.671875 59.328125 
Q 17.53125 52.734375 16.796875 39.40625 
Q 19.671875 43.65625 24.015625 45.921875 
Q 28.375 48.1875 33.59375 48.1875 
Q 44.578125 48.1875 50.953125 41.515625 
Q 57.328125 34.859375 57.328125 23.390625 
Q 57.328125 12.15625 50.6875 5.359375 
Q 44.046875 -1.421875 33.015625 -1.421875 
Q 20.359375 -1.421875 13.671875 8.265625 
Q 6.984375 17.96875 6.984375 36.375 
Q 6.984375 53.65625 15.1875 63.9375 
Q 23.390625 74.21875 37.203125 74.21875 
Q 40.921875 74.21875 44.703125 73.484375 
Q 48.484375 72.75 52.59375 71.296875 
z
" id="DejaVuSans-54"/>
      </defs>
      <g transform="translate(383.497686 692.798437)scale(0.1 -0.1)">
       <use xlink:href="#DejaVuSans-50"/>
       <use x="63.623047" xlink:href="#DejaVuSans-48"/>
       <use x="127.246094" xlink:href="#DejaVuSans-49"/>
       <use x="190.869141" xlink:href="#DejaVuSans-57"/>
       <use x="254.492188" xlink:href="#DejaVuSans-45"/>
       <use x="290.576172" xlink:href="#DejaVuSans-48"/>
       <use x="354.199219" xlink:href="#DejaVuSans-54"/>
       <use x="417.822266" xlink:href="#DejaVuSans-45"/>
       <use x="453.90625" xlink:href="#DejaVuSans-48"/>
       <use x="517.529297" xlink:href="#DejaVuSans-51"/>
      </g>
     </g>
    </g>
    <g id="xtick_6">
     <g id="line2d_11">
      <path clip-path="url(#pc75903bdcf)" d="M 505.753093 678.2 
L 505.753093 26.8 
" style="fill:none;stroke:#b0b0b0;stroke-linecap:square;stroke-width:0.8;"/>
     </g>
     <g id="line2d_12">
      <g>
       <use style="stroke:#000000;stroke-width:0.8;" x="505.753093" xlink:href="#mb4e928cdbb" y="678.2"/>
      </g>
     </g>
     <g id="text_6">
      <!-- 2019-07-01 -->
      <defs>
       <path d="M 8.203125 72.90625 
L 55.078125 72.90625 
L 55.078125 68.703125 
L 28.609375 0 
L 18.3125 0 
L 43.21875 64.59375 
L 8.203125 64.59375 
z
" id="DejaVuSans-55"/>
      </defs>
      <g transform="translate(476.69528 692.798437)scale(0.1 -0.1)">
       <use xlink:href="#DejaVuSans-50"/>
       <use x="63.623047" xlink:href="#DejaVuSans-48"/>
       <use x="127.246094" xlink:href="#DejaVuSans-49"/>
       <use x="190.869141" xlink:href="#DejaVuSans-57"/>
       <use x="254.492188" xlink:href="#DejaVuSans-45"/>
       <use x="290.576172" xlink:href="#DejaVuSans-48"/>
       <use x="354.199219" xlink:href="#DejaVuSans-55"/>
       <use x="417.822266" xlink:href="#DejaVuSans-45"/>
       <use x="453.90625" xlink:href="#DejaVuSans-48"/>
       <use x="517.529297" xlink:href="#DejaVuSans-49"/>
      </g>
     </g>
    </g>
    <g id="xtick_7">
     <g id="line2d_13">
      <path clip-path="url(#pc75903bdcf)" d="M 612.930326 678.2 
L 612.930326 26.8 
" style="fill:none;stroke:#b0b0b0;stroke-linecap:square;stroke-width:0.8;"/>
     </g>
     <g id="line2d_14">
      <g>
       <use style="stroke:#000000;stroke-width:0.8;" x="612.930326" xlink:href="#mb4e928cdbb" y="678.2"/>
      </g>
     </g>
     <g id="text_7">
      <!-- 2019-08-01 -->
      <defs>
       <path d="M 31.78125 34.625 
Q 24.75 34.625 20.71875 30.859375 
Q 16.703125 27.09375 16.703125 20.515625 
Q 16.703125 13.921875 20.71875 10.15625 
Q 24.75 6.390625 31.78125 6.390625 
Q 38.8125 6.390625 42.859375 10.171875 
Q 46.921875 13.96875 46.921875 20.515625 
Q 46.921875 27.09375 42.890625 30.859375 
Q 38.875 34.625 31.78125 34.625 
z
M 21.921875 38.8125 
Q 15.578125 40.375 12.03125 44.71875 
Q 8.5 49.078125 8.5 55.328125 
Q 8.5 64.0625 14.71875 69.140625 
Q 20.953125 74.21875 31.78125 74.21875 
Q 42.671875 74.21875 48.875 69.140625 
Q 55.078125 64.0625 55.078125 55.328125 
Q 55.078125 49.078125 51.53125 44.71875 
Q 48 40.375 41.703125 38.8125 
Q 48.828125 37.15625 52.796875 32.3125 
Q 56.78125 27.484375 56.78125 20.515625 
Q 56.78125 9.90625 50.3125 4.234375 
Q 43.84375 -1.421875 31.78125 -1.421875 
Q 19.734375 -1.421875 13.25 4.234375 
Q 6.78125 9.90625 6.78125 20.515625 
Q 6.78125 27.484375 10.78125 32.3125 
Q 14.796875 37.15625 21.921875 38.8125 
z
M 18.3125 54.390625 
Q 18.3125 48.734375 21.84375 45.5625 
Q 25.390625 42.390625 31.78125 42.390625 
Q 38.140625 42.390625 41.71875 45.5625 
Q 45.3125 48.734375 45.3125 54.390625 
Q 45.3125 60.0625 41.71875 63.234375 
Q 38.140625 66.40625 31.78125 66.40625 
Q 25.390625 66.40625 21.84375 63.234375 
Q 18.3125 60.0625 18.3125 54.390625 
z
" id="DejaVuSans-56"/>
      </defs>
      <g transform="translate(583.872514 692.798437)scale(0.1 -0.1)">
       <use xlink:href="#DejaVuSans-50"/>
       <use x="63.623047" xlink:href="#DejaVuSans-48"/>
       <use x="127.246094" xlink:href="#DejaVuSans-49"/>
       <use x="190.869141" xlink:href="#DejaVuSans-57"/>
       <use x="254.492188" xlink:href="#DejaVuSans-45"/>
       <use x="290.576172" xlink:href="#DejaVuSans-48"/>
       <use x="354.199219" xlink:href="#DejaVuSans-56"/>
       <use x="417.822266" xlink:href="#DejaVuSans-45"/>
       <use x="453.90625" xlink:href="#DejaVuSans-48"/>
       <use x="517.529297" xlink:href="#DejaVuSans-49"/>
      </g>
     </g>
    </g>
    <g id="xtick_8">
     <g id="line2d_15">
      <path clip-path="url(#pc75903bdcf)" d="M 706.127921 678.2 
L 706.127921 26.8 
" style="fill:none;stroke:#b0b0b0;stroke-linecap:square;stroke-width:0.8;"/>
     </g>
     <g id="line2d_16">
      <g>
       <use style="stroke:#000000;stroke-width:0.8;" x="706.127921" xlink:href="#mb4e928cdbb" y="678.2"/>
      </g>
     </g>
     <g id="text_8">
      <!-- 2019-09-03 -->
      <g transform="translate(677.070108 692.798437)scale(0.1 -0.1)">
       <use xlink:href="#DejaVuSans-50"/>
       <use x="63.623047" xlink:href="#DejaVuSans-48"/>
       <use x="127.246094" xlink:href="#DejaVuSans-49"/>
       <use x="190.869141" xlink:href="#DejaVuSans-57"/>
       <use x="254.492188" xlink:href="#DejaVuSans-45"/>
       <use x="290.576172" xlink:href="#DejaVuSans-48"/>
       <use x="354.199219" xlink:href="#DejaVuSans-57"/>
       <use x="417.822266" xlink:href="#DejaVuSans-45"/>
       <use x="453.90625" xlink:href="#DejaVuSans-48"/>
       <use x="517.529297" xlink:href="#DejaVuSans-51"/>
      </g>
     </g>
    </g>
    <g id="xtick_9">
     <g id="line2d_17">
      <path clip-path="url(#pc75903bdcf)" d="M 808.645275 678.2 
L 808.645275 26.8 
" style="fill:none;stroke:#b0b0b0;stroke-linecap:square;stroke-width:0.8;"/>
     </g>
     <g id="line2d_18">
      <g>
       <use style="stroke:#000000;stroke-width:0.8;" x="808.645275" xlink:href="#mb4e928cdbb" y="678.2"/>
      </g>
     </g>
     <g id="text_9">
      <!-- 2019-10-01 -->
      <g transform="translate(779.587462 692.798437)scale(0.1 -0.1)">
       <use xlink:href="#DejaVuSans-50"/>
       <use x="63.623047" xlink:href="#DejaVuSans-48"/>
       <use x="127.246094" xlink:href="#DejaVuSans-49"/>
       <use x="190.869141" xlink:href="#DejaVuSans-57"/>
       <use x="254.492188" xlink:href="#DejaVuSans-45"/>
       <use x="290.576172" xlink:href="#DejaVuSans-49"/>
       <use x="354.199219" xlink:href="#DejaVuSans-48"/>
       <use x="417.822266" xlink:href="#DejaVuSans-45"/>
       <use x="453.90625" xlink:href="#DejaVuSans-48"/>
       <use x="517.529297" xlink:href="#DejaVuSans-49"/>
      </g>
     </g>
    </g>
    <g id="xtick_10">
     <g id="line2d_19">
      <path clip-path="url(#pc75903bdcf)" d="M 911.162629 678.2 
L 911.162629 26.8 
" style="fill:none;stroke:#b0b0b0;stroke-linecap:square;stroke-width:0.8;"/>
     </g>
     <g id="line2d_20">
      <g>
       <use style="stroke:#000000;stroke-width:0.8;" x="911.162629" xlink:href="#mb4e928cdbb" y="678.2"/>
      </g>
     </g>
     <g id="text_10">
      <!-- 2019-11-01 -->
      <g transform="translate(882.104816 692.798437)scale(0.1 -0.1)">
       <use xlink:href="#DejaVuSans-50"/>
       <use x="63.623047" xlink:href="#DejaVuSans-48"/>
       <use x="127.246094" xlink:href="#DejaVuSans-49"/>
       <use x="190.869141" xlink:href="#DejaVuSans-57"/>
       <use x="254.492188" xlink:href="#DejaVuSans-45"/>
       <use x="290.576172" xlink:href="#DejaVuSans-49"/>
       <use x="354.199219" xlink:href="#DejaVuSans-49"/>
       <use x="417.822266" xlink:href="#DejaVuSans-45"/>
       <use x="453.90625" xlink:href="#DejaVuSans-48"/>
       <use x="517.529297" xlink:href="#DejaVuSans-49"/>
      </g>
     </g>
    </g>
    <g id="xtick_11">
     <g id="line2d_21">
      <path clip-path="url(#pc75903bdcf)" d="M 1004.360223 678.2 
L 1004.360223 26.8 
" style="fill:none;stroke:#b0b0b0;stroke-linecap:square;stroke-width:0.8;"/>
     </g>
     <g id="line2d_22">
      <g>
       <use style="stroke:#000000;stroke-width:0.8;" x="1004.360223" xlink:href="#mb4e928cdbb" y="678.2"/>
      </g>
     </g>
     <g id="text_11">
      <!-- 2019-12-02 -->
      <g transform="translate(975.302411 692.798437)scale(0.1 -0.1)">
       <use xlink:href="#DejaVuSans-50"/>
       <use x="63.623047" xlink:href="#DejaVuSans-48"/>
       <use x="127.246094" xlink:href="#DejaVuSans-49"/>
       <use x="190.869141" xlink:href="#DejaVuSans-57"/>
       <use x="254.492188" xlink:href="#DejaVuSans-45"/>
       <use x="290.576172" xlink:href="#DejaVuSans-49"/>
       <use x="354.199219" xlink:href="#DejaVuSans-50"/>
       <use x="417.822266" xlink:href="#DejaVuSans-45"/>
       <use x="453.90625" xlink:href="#DejaVuSans-48"/>
       <use x="517.529297" xlink:href="#DejaVuSans-50"/>
      </g>
     </g>
    </g>
    <g id="xtick_12">
     <g id="line2d_23">
      <path clip-path="url(#pc75903bdcf)" d="M 1106.877577 678.2 
L 1106.877577 26.8 
" style="fill:none;stroke:#b0b0b0;stroke-linecap:square;stroke-width:0.8;"/>
     </g>
     <g id="line2d_24">
      <g>
       <use style="stroke:#000000;stroke-width:0.8;" x="1106.877577" xlink:href="#mb4e928cdbb" y="678.2"/>
      </g>
     </g>
     <g id="text_12">
      <!-- 2020-01-02 -->
      <g transform="translate(1077.819765 692.798437)scale(0.1 -0.1)">
       <use xlink:href="#DejaVuSans-50"/>
       <use x="63.623047" xlink:href="#DejaVuSans-48"/>
       <use x="127.246094" xlink:href="#DejaVuSans-50"/>
       <use x="190.869141" xlink:href="#DejaVuSans-48"/>
       <use x="254.492188" xlink:href="#DejaVuSans-45"/>
       <use x="290.576172" xlink:href="#DejaVuSans-48"/>
       <use x="354.199219" xlink:href="#DejaVuSans-49"/>
       <use x="417.822266" xlink:href="#DejaVuSans-45"/>
       <use x="453.90625" xlink:href="#DejaVuSans-48"/>
       <use x="517.529297" xlink:href="#DejaVuSans-50"/>
      </g>
     </g>
    </g>
    <g id="xtick_13">
     <g id="line2d_25">
      <path clip-path="url(#pc75903bdcf)" d="M 1204.735052 678.2 
L 1204.735052 26.8 
" style="fill:none;stroke:#b0b0b0;stroke-linecap:square;stroke-width:0.8;"/>
     </g>
     <g id="line2d_26">
      <g>
       <use style="stroke:#000000;stroke-width:0.8;" x="1204.735052" xlink:href="#mb4e928cdbb" y="678.2"/>
      </g>
     </g>
     <g id="text_13">
      <!-- 2020-02-03 -->
      <g transform="translate(1175.677239 692.798437)scale(0.1 -0.1)">
       <use xlink:href="#DejaVuSans-50"/>
       <use x="63.623047" xlink:href="#DejaVuSans-48"/>
       <use x="127.246094" xlink:href="#DejaVuSans-50"/>
       <use x="190.869141" xlink:href="#DejaVuSans-48"/>
       <use x="254.492188" xlink:href="#DejaVuSans-45"/>
       <use x="290.576172" xlink:href="#DejaVuSans-48"/>
       <use x="354.199219" xlink:href="#DejaVuSans-50"/>
       <use x="417.822266" xlink:href="#DejaVuSans-45"/>
       <use x="453.90625" xlink:href="#DejaVuSans-48"/>
       <use x="517.529297" xlink:href="#DejaVuSans-51"/>
      </g>
     </g>
    </g>
    <g id="xtick_14">
     <g id="line2d_27">
      <path clip-path="url(#pc75903bdcf)" d="M 1302.592526 678.2 
L 1302.592526 26.8 
" style="fill:none;stroke:#b0b0b0;stroke-linecap:square;stroke-width:0.8;"/>
     </g>
     <g id="line2d_28">
      <g>
       <use style="stroke:#000000;stroke-width:0.8;" x="1302.592526" xlink:href="#mb4e928cdbb" y="678.2"/>
      </g>
     </g>
     <g id="text_14">
      <!-- 2020-03-02 -->
      <g transform="translate(1273.534713 692.798437)scale(0.1 -0.1)">
       <use xlink:href="#DejaVuSans-50"/>
       <use x="63.623047" xlink:href="#DejaVuSans-48"/>
       <use x="127.246094" xlink:href="#DejaVuSans-50"/>
       <use x="190.869141" xlink:href="#DejaVuSans-48"/>
       <use x="254.492188" xlink:href="#DejaVuSans-45"/>
       <use x="290.576172" xlink:href="#DejaVuSans-48"/>
       <use x="354.199219" xlink:href="#DejaVuSans-51"/>
       <use x="417.822266" xlink:href="#DejaVuSans-45"/>
       <use x="453.90625" xlink:href="#DejaVuSans-48"/>
       <use x="517.529297" xlink:href="#DejaVuSans-50"/>
      </g>
     </g>
    </g>
    <g id="xtick_15">
     <g id="line2d_29">
      <path clip-path="url(#pc75903bdcf)" d="M 1400.45 678.2 
L 1400.45 26.8 
" style="fill:none;stroke:#b0b0b0;stroke-linecap:square;stroke-width:0.8;"/>
     </g>
     <g id="line2d_30">
      <g>
       <use style="stroke:#000000;stroke-width:0.8;" x="1400.45" xlink:href="#mb4e928cdbb" y="678.2"/>
      </g>
     </g>
     <g id="text_15">
      <!-- 2020-03-30 -->
      <g transform="translate(1371.392187 692.798437)scale(0.1 -0.1)">
       <use xlink:href="#DejaVuSans-50"/>
       <use x="63.623047" xlink:href="#DejaVuSans-48"/>
       <use x="127.246094" xlink:href="#DejaVuSans-50"/>
       <use x="190.869141" xlink:href="#DejaVuSans-48"/>
       <use x="254.492188" xlink:href="#DejaVuSans-45"/>
       <use x="290.576172" xlink:href="#DejaVuSans-48"/>
       <use x="354.199219" xlink:href="#DejaVuSans-51"/>
       <use x="417.822266" xlink:href="#DejaVuSans-45"/>
       <use x="453.90625" xlink:href="#DejaVuSans-51"/>
       <use x="517.529297" xlink:href="#DejaVuSans-48"/>
      </g>
     </g>
    </g>
    <g id="text_16">
     <!-- Date -->
     <defs>
      <path d="M 19.671875 64.796875 
L 19.671875 8.109375 
L 31.59375 8.109375 
Q 46.6875 8.109375 53.6875 14.9375 
Q 60.6875 21.78125 60.6875 36.53125 
Q 60.6875 51.171875 53.6875 57.984375 
Q 46.6875 64.796875 31.59375 64.796875 
z
M 9.8125 72.90625 
L 30.078125 72.90625 
Q 51.265625 72.90625 61.171875 64.09375 
Q 71.09375 55.28125 71.09375 36.53125 
Q 71.09375 17.671875 61.125 8.828125 
Q 51.171875 0 30.078125 0 
L 9.8125 0 
z
" id="DejaVuSans-68"/>
      <path d="M 34.28125 27.484375 
Q 23.390625 27.484375 19.1875 25 
Q 14.984375 22.515625 14.984375 16.5 
Q 14.984375 11.71875 18.140625 8.90625 
Q 21.296875 6.109375 26.703125 6.109375 
Q 34.1875 6.109375 38.703125 11.40625 
Q 43.21875 16.703125 43.21875 25.484375 
L 43.21875 27.484375 
z
M 52.203125 31.203125 
L 52.203125 0 
L 43.21875 0 
L 43.21875 8.296875 
Q 40.140625 3.328125 35.546875 0.953125 
Q 30.953125 -1.421875 24.3125 -1.421875 
Q 15.921875 -1.421875 10.953125 3.296875 
Q 6 8.015625 6 15.921875 
Q 6 25.140625 12.171875 29.828125 
Q 18.359375 34.515625 30.609375 34.515625 
L 43.21875 34.515625 
L 43.21875 35.40625 
Q 43.21875 41.609375 39.140625 45 
Q 35.0625 48.390625 27.6875 48.390625 
Q 23 48.390625 18.546875 47.265625 
Q 14.109375 46.140625 10.015625 43.890625 
L 10.015625 52.203125 
Q 14.9375 54.109375 19.578125 55.046875 
Q 24.21875 56 28.609375 56 
Q 40.484375 56 46.34375 49.84375 
Q 52.203125 43.703125 52.203125 31.203125 
z
" id="DejaVuSans-97"/>
      <path d="M 18.3125 70.21875 
L 18.3125 54.6875 
L 36.8125 54.6875 
L 36.8125 47.703125 
L 18.3125 47.703125 
L 18.3125 18.015625 
Q 18.3125 11.328125 20.140625 9.421875 
Q 21.96875 7.515625 27.59375 7.515625 
L 36.8125 7.515625 
L 36.8125 0 
L 27.59375 0 
Q 17.1875 0 13.234375 3.875 
Q 9.28125 7.765625 9.28125 18.015625 
L 9.28125 47.703125 
L 2.6875 47.703125 
L 2.6875 54.6875 
L 9.28125 54.6875 
L 9.28125 70.21875 
z
" id="DejaVuSans-116"/>
      <path d="M 56.203125 29.59375 
L 56.203125 25.203125 
L 14.890625 25.203125 
Q 15.484375 15.921875 20.484375 11.0625 
Q 25.484375 6.203125 34.421875 6.203125 
Q 39.59375 6.203125 44.453125 7.46875 
Q 49.3125 8.734375 54.109375 11.28125 
L 54.109375 2.78125 
Q 49.265625 0.734375 44.1875 -0.34375 
Q 39.109375 -1.421875 33.890625 -1.421875 
Q 20.796875 -1.421875 13.15625 6.1875 
Q 5.515625 13.8125 5.515625 26.8125 
Q 5.515625 40.234375 12.765625 48.109375 
Q 20.015625 56 32.328125 56 
Q 43.359375 56 49.78125 48.890625 
Q 56.203125 41.796875 56.203125 29.59375 
z
M 47.21875 32.234375 
Q 47.125 39.59375 43.09375 43.984375 
Q 39.0625 48.390625 32.421875 48.390625 
Q 24.90625 48.390625 20.390625 44.140625 
Q 15.875 39.890625 15.1875 32.171875 
z
" id="DejaVuSans-101"/>
     </defs>
     <g transform="translate(710.486719 706.476562)scale(0.1 -0.1)">
      <use xlink:href="#DejaVuSans-68"/>
      <use x="77.001953" xlink:href="#DejaVuSans-97"/>
      <use x="138.28125" xlink:href="#DejaVuSans-116"/>
      <use x="177.490234" xlink:href="#DejaVuSans-101"/>
     </g>
    </g>
   </g>
   <g id="matplotlib.axis_2">
    <g id="ytick_1">
     <g id="line2d_31">
      <path clip-path="url(#pc75903bdcf)" d="M 44.425 678.2 
L 1400.45 678.2 
" style="fill:none;stroke:#b0b0b0;stroke-linecap:square;stroke-width:0.8;"/>
     </g>
     <g id="line2d_32">
      <defs>
       <path d="M 0 0 
L -3.5 0 
" id="m49c5d1cd71" style="stroke:#000000;stroke-width:0.8;"/>
      </defs>
      <g>
       <use style="stroke:#000000;stroke-width:0.8;" x="44.425" xlink:href="#m49c5d1cd71" y="678.2"/>
      </g>
     </g>
     <g id="text_17">
      <!-- 0 -->
      <g transform="translate(31.0625 681.999219)scale(0.1 -0.1)">
       <use xlink:href="#DejaVuSans-48"/>
      </g>
     </g>
    </g>
    <g id="ytick_2">
     <g id="line2d_33">
      <path clip-path="url(#pc75903bdcf)" d="M 44.425 542.454902 
L 1400.45 542.454902 
" style="fill:none;stroke:#b0b0b0;stroke-linecap:square;stroke-width:0.8;"/>
     </g>
     <g id="line2d_34">
      <g>
       <use style="stroke:#000000;stroke-width:0.8;" x="44.425" xlink:href="#m49c5d1cd71" y="542.454902"/>
      </g>
     </g>
     <g id="text_18">
      <!-- 10 -->
      <g transform="translate(24.7 546.254121)scale(0.1 -0.1)">
       <use xlink:href="#DejaVuSans-49"/>
       <use x="63.623047" xlink:href="#DejaVuSans-48"/>
      </g>
     </g>
    </g>
    <g id="ytick_3">
     <g id="line2d_35">
      <path clip-path="url(#pc75903bdcf)" d="M 44.425 406.709805 
L 1400.45 406.709805 
" style="fill:none;stroke:#b0b0b0;stroke-linecap:square;stroke-width:0.8;"/>
     </g>
     <g id="line2d_36">
      <g>
       <use style="stroke:#000000;stroke-width:0.8;" x="44.425" xlink:href="#m49c5d1cd71" y="406.709805"/>
      </g>
     </g>
     <g id="text_19">
      <!-- 20 -->
      <g transform="translate(24.7 410.509023)scale(0.1 -0.1)">
       <use xlink:href="#DejaVuSans-50"/>
       <use x="63.623047" xlink:href="#DejaVuSans-48"/>
      </g>
     </g>
    </g>
    <g id="ytick_4">
     <g id="line2d_37">
      <path clip-path="url(#pc75903bdcf)" d="M 44.425 270.964707 
L 1400.45 270.964707 
" style="fill:none;stroke:#b0b0b0;stroke-linecap:square;stroke-width:0.8;"/>
     </g>
     <g id="line2d_38">
      <g>
       <use style="stroke:#000000;stroke-width:0.8;" x="44.425" xlink:href="#m49c5d1cd71" y="270.964707"/>
      </g>
     </g>
     <g id="text_20">
      <!-- 30 -->
      <g transform="translate(24.7 274.763926)scale(0.1 -0.1)">
       <use xlink:href="#DejaVuSans-51"/>
       <use x="63.623047" xlink:href="#DejaVuSans-48"/>
      </g>
     </g>
    </g>
    <g id="ytick_5">
     <g id="line2d_39">
      <path clip-path="url(#pc75903bdcf)" d="M 44.425 135.219609 
L 1400.45 135.219609 
" style="fill:none;stroke:#b0b0b0;stroke-linecap:square;stroke-width:0.8;"/>
     </g>
     <g id="line2d_40">
      <g>
       <use style="stroke:#000000;stroke-width:0.8;" x="44.425" xlink:href="#m49c5d1cd71" y="135.219609"/>
      </g>
     </g>
     <g id="text_21">
      <!-- 40 -->
      <g transform="translate(24.7 139.018828)scale(0.1 -0.1)">
       <use xlink:href="#DejaVuSans-52"/>
       <use x="63.623047" xlink:href="#DejaVuSans-48"/>
      </g>
     </g>
    </g>
    <g id="text_22">
     <!-- Close Price -->
     <defs>
      <path d="M 64.40625 67.28125 
L 64.40625 56.890625 
Q 59.421875 61.53125 53.78125 63.8125 
Q 48.140625 66.109375 41.796875 66.109375 
Q 29.296875 66.109375 22.65625 58.46875 
Q 16.015625 50.828125 16.015625 36.375 
Q 16.015625 21.96875 22.65625 14.328125 
Q 29.296875 6.6875 41.796875 6.6875 
Q 48.140625 6.6875 53.78125 8.984375 
Q 59.421875 11.28125 64.40625 15.921875 
L 64.40625 5.609375 
Q 59.234375 2.09375 53.4375 0.328125 
Q 47.65625 -1.421875 41.21875 -1.421875 
Q 24.65625 -1.421875 15.125 8.703125 
Q 5.609375 18.84375 5.609375 36.375 
Q 5.609375 53.953125 15.125 64.078125 
Q 24.65625 74.21875 41.21875 74.21875 
Q 47.75 74.21875 53.53125 72.484375 
Q 59.328125 70.75 64.40625 67.28125 
z
" id="DejaVuSans-67"/>
      <path d="M 9.421875 75.984375 
L 18.40625 75.984375 
L 18.40625 0 
L 9.421875 0 
z
" id="DejaVuSans-108"/>
      <path d="M 30.609375 48.390625 
Q 23.390625 48.390625 19.1875 42.75 
Q 14.984375 37.109375 14.984375 27.296875 
Q 14.984375 17.484375 19.15625 11.84375 
Q 23.34375 6.203125 30.609375 6.203125 
Q 37.796875 6.203125 41.984375 11.859375 
Q 46.1875 17.53125 46.1875 27.296875 
Q 46.1875 37.015625 41.984375 42.703125 
Q 37.796875 48.390625 30.609375 48.390625 
z
M 30.609375 56 
Q 42.328125 56 49.015625 48.375 
Q 55.71875 40.765625 55.71875 27.296875 
Q 55.71875 13.875 49.015625 6.21875 
Q 42.328125 -1.421875 30.609375 -1.421875 
Q 18.84375 -1.421875 12.171875 6.21875 
Q 5.515625 13.875 5.515625 27.296875 
Q 5.515625 40.765625 12.171875 48.375 
Q 18.84375 56 30.609375 56 
z
" id="DejaVuSans-111"/>
      <path d="M 44.28125 53.078125 
L 44.28125 44.578125 
Q 40.484375 46.53125 36.375 47.5 
Q 32.28125 48.484375 27.875 48.484375 
Q 21.1875 48.484375 17.84375 46.4375 
Q 14.5 44.390625 14.5 40.28125 
Q 14.5 37.15625 16.890625 35.375 
Q 19.28125 33.59375 26.515625 31.984375 
L 29.59375 31.296875 
Q 39.15625 29.25 43.1875 25.515625 
Q 47.21875 21.78125 47.21875 15.09375 
Q 47.21875 7.46875 41.1875 3.015625 
Q 35.15625 -1.421875 24.609375 -1.421875 
Q 20.21875 -1.421875 15.453125 -0.5625 
Q 10.6875 0.296875 5.421875 2 
L 5.421875 11.28125 
Q 10.40625 8.6875 15.234375 7.390625 
Q 20.0625 6.109375 24.8125 6.109375 
Q 31.15625 6.109375 34.5625 8.28125 
Q 37.984375 10.453125 37.984375 14.40625 
Q 37.984375 18.0625 35.515625 20.015625 
Q 33.0625 21.96875 24.703125 23.78125 
L 21.578125 24.515625 
Q 13.234375 26.265625 9.515625 29.90625 
Q 5.8125 33.546875 5.8125 39.890625 
Q 5.8125 47.609375 11.28125 51.796875 
Q 16.75 56 26.8125 56 
Q 31.78125 56 36.171875 55.265625 
Q 40.578125 54.546875 44.28125 53.078125 
z
" id="DejaVuSans-115"/>
      <path id="DejaVuSans-32"/>
      <path d="M 19.671875 64.796875 
L 19.671875 37.40625 
L 32.078125 37.40625 
Q 38.96875 37.40625 42.71875 40.96875 
Q 46.484375 44.53125 46.484375 51.125 
Q 46.484375 57.671875 42.71875 61.234375 
Q 38.96875 64.796875 32.078125 64.796875 
z
M 9.8125 72.90625 
L 32.078125 72.90625 
Q 44.34375 72.90625 50.609375 67.359375 
Q 56.890625 61.8125 56.890625 51.125 
Q 56.890625 40.328125 50.609375 34.8125 
Q 44.34375 29.296875 32.078125 29.296875 
L 19.671875 29.296875 
L 19.671875 0 
L 9.8125 0 
z
" id="DejaVuSans-80"/>
      <path d="M 41.109375 46.296875 
Q 39.59375 47.171875 37.8125 47.578125 
Q 36.03125 48 33.890625 48 
Q 26.265625 48 22.1875 43.046875 
Q 18.109375 38.09375 18.109375 28.8125 
L 18.109375 0 
L 9.078125 0 
L 9.078125 54.6875 
L 18.109375 54.6875 
L 18.109375 46.1875 
Q 20.953125 51.171875 25.484375 53.578125 
Q 30.03125 56 36.53125 56 
Q 37.453125 56 38.578125 55.875 
Q 39.703125 55.765625 41.0625 55.515625 
z
" id="DejaVuSans-114"/>
      <path d="M 9.421875 54.6875 
L 18.40625 54.6875 
L 18.40625 0 
L 9.421875 0 
z
M 9.421875 75.984375 
L 18.40625 75.984375 
L 18.40625 64.59375 
L 9.421875 64.59375 
z
" id="DejaVuSans-105"/>
      <path d="M 48.78125 52.59375 
L 48.78125 44.1875 
Q 44.96875 46.296875 41.140625 47.34375 
Q 37.3125 48.390625 33.40625 48.390625 
Q 24.65625 48.390625 19.8125 42.84375 
Q 14.984375 37.3125 14.984375 27.296875 
Q 14.984375 17.28125 19.8125 11.734375 
Q 24.65625 6.203125 33.40625 6.203125 
Q 37.3125 6.203125 41.140625 7.25 
Q 44.96875 8.296875 48.78125 10.40625 
L 48.78125 2.09375 
Q 45.015625 0.34375 40.984375 -0.53125 
Q 36.96875 -1.421875 32.421875 -1.421875 
Q 20.0625 -1.421875 12.78125 6.34375 
Q 5.515625 14.109375 5.515625 27.296875 
Q 5.515625 40.671875 12.859375 48.328125 
Q 20.21875 56 33.015625 56 
Q 37.15625 56 41.109375 55.140625 
Q 45.0625 54.296875 48.78125 52.59375 
z
" id="DejaVuSans-99"/>
     </defs>
     <g transform="translate(18.620312 379.994531)rotate(-90)scale(0.1 -0.1)">
      <use xlink:href="#DejaVuSans-67"/>
      <use x="69.824219" xlink:href="#DejaVuSans-108"/>
      <use x="97.607422" xlink:href="#DejaVuSans-111"/>
      <use x="158.789062" xlink:href="#DejaVuSans-115"/>
      <use x="210.888672" xlink:href="#DejaVuSans-101"/>
      <use x="272.412109" xlink:href="#DejaVuSans-32"/>
      <use x="304.199219" xlink:href="#DejaVuSans-80"/>
      <use x="364.486328" xlink:href="#DejaVuSans-114"/>
      <use x="405.599609" xlink:href="#DejaVuSans-105"/>
      <use x="433.382812" xlink:href="#DejaVuSans-99"/>
      <use x="488.363281" xlink:href="#DejaVuSans-101"/>
     </g>
    </g>
   </g>
   <g id="line2d_41">
    <path clip-path="url(#pc75903bdcf)" d="M 44.425 212.526443 
L 49.08488 214.312848 
L 53.744759 212.18708 
L 58.404639 216.906937 
L 63.064519 228.272874 
L 67.724399 232.413099 
L 72.384278 231.734374 
L 77.044158 218.974335 
L 86.363918 225.218609 
L 91.023797 221.146256 
L 95.683677 218.702845 
L 100.343557 213.544531 
L 105.003436 214.132307 
L 109.663316 211.644099 
L 114.323196 204.856845 
L 118.983076 204.831053 
L 123.642955 206.214296 
L 128.302835 211.101119 
L 132.962715 207.843237 
L 137.622595 212.068982 
L 142.282474 214.766237 
L 146.942354 218.56167 
L 151.602234 229.918104 
L 156.262113 233.546571 
L 160.921993 226.58149 
L 165.581873 226.971078 
L 170.241753 226.971078 
L 174.901632 233.634805 
L 188.881271 221.093316 
L 193.541151 224.880604 
L 198.201031 226.73081 
L 202.860911 234.992256 
L 207.52079 236.553325 
L 212.18067 233.473269 
L 216.84055 232.987301 
L 221.50043 234.042041 
L 226.160309 232.413099 
L 230.820189 221.530415 
L 235.480069 218.313256 
L 240.139948 213.00155 
L 244.799828 208.264047 
L 249.459708 207.028766 
L 254.119588 205.53557 
L 258.779467 208.941415 
L 263.439347 206.605241 
L 268.099227 206.607956 
L 272.759107 201.870452 
L 277.418986 204.721099 
L 282.078866 201.216161 
L 286.738746 187.890065 
L 291.398625 184.359335 
L 296.058505 187.209982 
L 300.718385 190.739354 
L 305.378265 200.667751 
L 310.038144 206.735557 
L 314.698024 204.178119 
L 319.357904 202.684923 
L 324.017784 203.635139 
L 328.677663 205.087611 
L 333.337543 203.779028 
L 337.997423 199.427041 
L 342.657302 208.521962 
L 347.317182 218.024119 
L 351.977062 217.963034 
L 356.636942 227.205917 
L 361.296821 230.105433 
L 365.956701 240.897168 
L 370.616581 234.449276 
L 375.27646 232.088669 
L 379.93634 233.431188 
L 384.59622 240.557805 
L 389.2561 245.281735 
L 393.915979 243.679942 
L 403.235739 254.946786 
L 407.895619 251.390264 
L 412.555498 245.987609 
L 417.215378 248.076726 
L 421.875258 248.076726 
L 426.535137 255.761256 
L 431.195017 254.53955 
L 435.854897 239.913016 
L 440.514777 241.236531 
L 445.174656 242.136521 
L 449.834536 238.653302 
L 454.494416 234.992256 
L 459.154296 232.820335 
L 463.814175 232.820335 
L 468.474055 238.161904 
L 473.133935 249.248206 
L 477.793814 246.53059 
L 482.453694 239.444695 
L 487.113574 238.046521 
L 491.773454 236.322558 
L 496.433333 234.313531 
L 501.093213 234.449276 
L 505.753093 234.449276 
L 510.412973 234.177786 
L 515.072852 231.49682 
L 519.732732 231.49682 
L 524.392612 224.801872 
L 529.052491 228.593232 
L 533.712371 228.593232 
L 538.372251 226.57606 
L 543.032131 227.662021 
L 547.69201 233.77055 
L 552.35189 232.619432 
L 557.01177 236.349707 
L 561.671649 236.349707 
L 566.331529 229.833943 
L 570.991409 229.833943 
L 575.651289 231.575552 
L 580.311168 233.634805 
L 584.971048 232.413099 
L 589.630928 232.548844 
L 594.290808 225.354354 
L 598.950687 220.752595 
L 603.610567 232.472827 
L 612.930326 236.68907 
L 617.590206 240.298532 
L 622.250086 242.322492 
L 626.909966 250.602942 
L 631.569845 258.339056 
L 636.229725 264.584688 
L 640.889605 259.450808 
L 645.549485 261.46255 
L 650.209364 253.710148 
L 654.869244 257.254452 
L 659.529124 257.254452 
L 664.189003 260.383377 
L 668.848883 273.060611 
L 673.508763 277.578208 
L 678.168643 271.507687 
L 682.828522 269.200021 
L 687.488402 269.200021 
L 692.148282 268.484644 
L 696.808162 267.372892 
L 701.468041 274.222589 
L 706.127921 269.878746 
L 710.787801 269.047986 
L 715.44768 266.485119 
L 720.10756 262.955746 
L 724.76744 261.662096 
L 729.42732 261.598295 
L 734.087199 257.812365 
L 738.747079 247.480805 
L 743.406959 247.480805 
L 748.066838 239.10126 
L 752.726718 235.875957 
L 757.386598 229.969688 
L 762.046478 228.157491 
L 766.706357 222.996462 
L 771.366237 228.544364 
L 776.026117 232.141609 
L 780.685997 230.835741 
L 785.345876 232.094098 
L 790.005756 234.866013 
L 794.665636 236.424367 
L 803.985395 243.802113 
L 808.645275 242.348283 
L 813.305155 243.476325 
L 817.965034 242.15281 
L 822.624914 242.15281 
L 827.284794 257.390197 
L 831.944674 258.476158 
L 836.604553 256.439982 
L 841.264433 255.557639 
L 845.924313 258.706925 
L 850.584192 255.489766 
L 855.244072 252.136862 
L 859.903952 239.359176 
L 864.563832 242.079508 
L 869.223711 234.042041 
L 873.883591 229.833943 
L 878.543471 230.241178 
L 883.203351 232.95608 
L 887.86323 230.105433 
L 892.52311 228.730335 
L 897.18299 228.566083 
L 901.842869 224.607756 
L 906.502749 219.547179 
L 911.162629 213.544531 
L 915.822509 212.694766 
L 920.482388 213.984345 
L 925.142268 222.096472 
L 929.802148 214.717368 
L 934.462027 210.408819 
L 939.121907 208.201604 
L 943.781787 212.902456 
L 948.441667 207.436001 
L 953.101546 205.80706 
L 957.761426 205.128335 
L 962.421306 205.53557 
L 967.081186 209.675796 
L 971.741065 213.549961 
L 976.400945 211.508354 
L 981.060825 214.854471 
L 985.720704 215.173472 
L 990.380584 222.503707 
L 995.040464 220.196041 
L 999.700344 220.535403 
L 1004.360223 217.073903 
L 1009.020103 218.687913 
L 1013.679983 217.345394 
L 1018.339863 224.132648 
L 1022.999742 226.57606 
L 1027.659622 227.594148 
L 1032.319502 222.707325 
L 1036.979381 224.132648 
L 1041.639261 220.806894 
L 1046.299141 224.879246 
L 1050.959021 224.811374 
L 1055.6189 221.214129 
L 1060.27878 215.173472 
L 1064.93866 218.295609 
L 1069.59854 214.847684 
L 1074.258419 214.766237 
L 1078.918299 213.877106 
L 1083.578179 214.766237 
L 1088.238058 216.055815 
L 1092.897938 215.716452 
L 1097.557818 218.702845 
L 1102.217698 216.331378 
L 1106.877577 216.598796 
L 1111.537457 221.757109 
L 1116.197337 219.756226 
L 1120.857216 213.191594 
L 1125.517096 220.196041 
L 1130.176976 219.839031 
L 1134.836856 217.820501 
L 1139.496735 215.538626 
L 1144.156615 215.987943 
L 1148.816495 218.974335 
L 1153.476375 210.558139 
L 1158.136254 210.829629 
L 1162.796134 216.327305 
L 1167.456014 214.606057 
L 1172.115893 214.424159 
L 1176.775773 214.977999 
L 1181.435653 213.408786 
L 1186.095533 215.37709 
L 1190.755412 222.435835 
L 1195.415292 233.906295 
L 1200.075172 227.667451 
L 1204.735052 226.198689 
L 1209.394931 222.503707 
L 1214.054811 229.463358 
L 1218.714691 214.087511 
L 1223.37457 195.761923 
L 1228.03445 209.173539 
L 1232.69433 205.838282 
L 1237.35421 211.508354 
L 1242.014089 209.424667 
L 1246.673969 205.671315 
L 1251.333849 200.037894 
L 1255.993729 201.666835 
L 1260.653608 206.07855 
L 1265.313488 202.395786 
L 1269.973368 195.15107 
L 1274.633247 195.897668 
L 1279.293127 199.427041 
L 1283.953007 223.629034 
L 1288.612887 232.616717 
L 1293.272766 230.30905 
L 1297.932646 252.237313 
L 1302.592526 256.780702 
L 1307.252405 244.457762 
L 1311.912285 250.683032 
L 1316.572165 242.622488 
L 1321.232045 257.661688 
L 1325.891924 264.888757 
L 1330.551804 302.325897 
L 1335.211684 287.321991 
L 1339.871564 301.037676 
L 1344.531443 344.461175 
L 1349.191323 335.526433 
L 1353.851203 379.006945 
L 1358.511082 371.238253 
L 1363.170962 397.479138 
L 1367.830842 388.791452 
L 1372.490722 390.624011 
L 1377.150601 395.964223 
L 1381.810481 358.311248 
L 1386.470361 342.160296 
L 1391.130241 336.122354 
L 1395.79012 347.049834 
L 1400.45 348.27154 
L 1400.45 348.27154 
" style="fill:none;stroke:#1f77b4;stroke-linecap:square;stroke-width:1.5;"/>
   </g>
   <g id="line2d_42">
    <path clip-path="url(#pc75903bdcf)" d="M 44.425 415.940471 
L 49.08488 415.940471 
L 53.744759 417.23005 
L 58.404639 421.641765 
L 63.064519 422.727726 
L 72.384278 422.727726 
L 77.044158 418.248138 
L 86.363918 418.248138 
L 91.023797 419.334099 
L 95.683677 419.334099 
L 100.343557 418.397458 
L 105.003436 418.590216 
L 109.663316 422.116873 
L 114.323196 421.888822 
L 123.642955 421.888822 
L 128.302835 419.334099 
L 132.962715 419.334099 
L 137.622595 419.605589 
L 142.282474 416.076216 
L 146.942354 419.741334 
L 151.602234 420.148569 
L 165.581873 420.148569 
L 170.241753 417.840903 
L 174.901632 417.840903 
L 179.561512 415.804726 
L 184.221392 415.398848 
L 193.541151 415.398848 
L 198.201031 411.596628 
L 202.860911 411.596628 
L 207.52079 409.560452 
L 212.18067 409.560452 
L 216.84055 410.239177 
L 221.50043 409.126067 
L 226.160309 406.575417 
L 230.820189 407.38853 
L 235.480069 407.38853 
L 240.139948 409.54552 
L 244.799828 409.288962 
L 249.459708 408.067256 
L 254.119588 406.981295 
L 258.779467 406.981295 
L 268.099227 406.098952 
L 272.759107 404.673628 
L 277.418986 404.537883 
L 282.078866 405.080864 
L 286.738746 405.135162 
L 291.398625 402.908942 
L 296.058505 403.044687 
L 300.718385 402.569579 
L 305.378265 402.569579 
L 310.038144 402.365962 
L 314.698024 401.670947 
L 319.357904 399.65106 
L 324.017784 399.65106 
L 328.677663 399.786805 
L 333.337543 401.968228 
L 342.657302 401.968228 
L 347.317182 402.094471 
L 351.977062 402.094471 
L 356.636942 401.551491 
L 361.296821 397.750628 
L 370.616581 397.750628 
L 375.27646 398.293609 
L 379.93634 394.902696 
L 384.59622 393.135295 
L 393.915979 393.135295 
L 398.575859 399.813954 
L 403.235739 400.19404 
L 407.895619 400.19404 
L 412.555498 403.415271 
L 417.215378 410.917903 
L 421.875258 409.290319 
L 426.535137 411.053648 
L 431.195017 407.66002 
L 435.854897 405.352354 
L 440.514777 401.551491 
L 449.834536 398.293609 
L 454.494416 398.700844 
L 459.154296 396.394535 
L 463.814175 396.123045 
L 468.474055 396.123045 
L 473.133935 397.256516 
L 477.793814 400.466888 
L 482.453694 400.466888 
L 487.113574 402.918444 
L 491.773454 398.837947 
L 496.433333 399.021202 
L 501.093213 398.157864 
L 505.753093 398.157864 
L 510.412973 403.65554 
L 519.732732 403.65554 
L 524.392612 400.601275 
L 529.052491 400.601275 
L 533.712371 395.099527 
L 538.372251 395.652009 
L 552.35189 395.714452 
L 557.01177 398.561027 
L 566.331529 398.561027 
L 570.991409 398.836589 
L 575.651289 398.836589 
L 580.311168 399.379569 
L 584.971048 397.735696 
L 594.290808 397.735696 
L 598.950687 398.827087 
L 603.610567 398.827087 
L 608.270447 395.144322 
L 612.930326 395.850197 
L 617.590206 395.850197 
L 622.250086 397.886373 
L 626.909966 393.815378 
L 631.569845 398.565099 
L 636.229725 401.958726 
L 640.889605 403.587667 
L 645.549485 403.587667 
L 650.209364 395.442962 
L 654.869244 397.071903 
L 659.529124 397.913522 
L 664.189003 396.291368 
L 668.848883 401.415746 
L 673.508763 398.836589 
L 678.168643 395.985942 
L 682.828522 393.678275 
L 687.488402 396.257432 
L 692.148282 393.54253 
L 696.808162 393.678275 
L 701.468041 395.035726 
L 706.127921 395.984585 
L 710.787801 397.207648 
L 715.44768 395.442962 
L 720.10756 395.578707 
L 724.76744 392.703626 
L 729.42732 392.703626 
L 734.087199 390.013158 
L 738.747079 389.198687 
L 743.406959 388.791452 
L 748.066838 389.741668 
L 752.726718 390.827628 
L 762.046478 388.248471 
L 766.706357 387.533095 
L 771.366237 387.533095 
L 776.026117 392.320824 
L 780.685997 387.047127 
L 790.005756 387.235813 
L 794.665636 388.521319 
L 799.325515 388.112726 
L 803.985395 389.605922 
L 808.645275 389.605922 
L 813.305155 389.741668 
L 822.624914 389.741668 
L 827.284794 394.764236 
L 831.944674 393.678275 
L 836.604553 393.678275 
L 841.264433 392.863805 
L 845.924313 393.81402 
L 850.584192 392.185079 
L 855.244072 394.357001 
L 859.903952 392.863805 
L 864.563832 393.406785 
L 869.223711 394.764236 
L 873.883591 395.848839 
L 878.543471 394.764236 
L 883.203351 394.382792 
L 887.86323 394.764236 
L 892.52311 395.714452 
L 897.18299 396.393177 
L 901.842869 397.343393 
L 906.502749 397.614883 
L 911.162629 397.614883 
L 915.822509 395.049301 
L 920.482388 395.119888 
L 925.142268 395.041156 
L 929.802148 392.190509 
L 934.462027 393.406785 
L 939.121907 392.863805 
L 943.781787 391.099119 
L 948.441667 392.592315 
L 953.101546 395.442962 
L 962.421306 395.442962 
L 967.081186 392.049334 
L 971.741065 392.049334 
L 976.400945 391.224004 
L 981.060825 391.090974 
L 985.720704 389.26656 
L 990.380584 389.603208 
L 995.040464 392.0887 
L 999.700344 395.103599 
L 1004.360223 390.759756 
L 1009.020103 391.147987 
L 1013.679983 390.759756 
L 1018.339863 391.147987 
L 1022.999742 387.704134 
L 1027.659622 387.879245 
L 1032.319502 387.879245 
L 1041.639261 384.245349 
L 1046.299141 384.040373 
L 1050.959021 384.583354 
L 1055.6189 384.990589 
L 1060.27878 385.59194 
L 1064.93866 386.851654 
L 1069.59854 384.854844 
L 1074.258419 385.262079 
L 1078.918299 385.811847 
L 1083.578179 382.818668 
L 1088.238058 378.746315 
L 1092.897938 380.511001 
L 1097.557818 379.42504 
L 1102.217698 379.830918 
L 1106.877577 378.61057 
L 1111.537457 379.289295 
L 1116.197337 378.61057 
L 1120.857216 379.15355 
L 1130.176976 379.69653 
L 1134.836856 379.69653 
L 1139.496735 381.868452 
L 1144.156615 382.682922 
L 1148.816495 381.296965 
L 1153.476375 381.234522 
L 1158.136254 379.560785 
L 1162.796134 378.355369 
L 1167.456014 378.746315 
L 1172.115893 375.96354 
L 1176.775773 376.343626 
L 1186.095533 376.438648 
L 1190.755412 379.968021 
L 1195.415292 382.278402 
L 1200.075172 382.682922 
L 1204.735052 383.361648 
L 1209.394931 382.004197 
L 1214.054811 384.719099 
L 1218.714691 383.558478 
L 1223.37457 382.996494 
L 1228.03445 381.877954 
L 1232.69433 381.470719 
L 1237.35421 380.922309 
L 1246.673969 378.097453 
L 1251.333849 377.931844 
L 1255.993729 377.288412 
L 1260.653608 365.714785 
L 1265.313488 380.511001 
L 1274.633247 380.511001 
L 1279.293127 382.495594 
L 1283.953007 387.116357 
L 1288.612887 394.196822 
L 1293.272766 398.194515 
L 1297.932646 409.19394 
L 1302.592526 415.525091 
L 1307.252405 404.828378 
L 1311.912285 407.979021 
L 1316.572165 398.60175 
L 1321.232045 405.006204 
L 1325.891924 412.954079 
L 1330.551804 422.986999 
L 1335.211684 418.075742 
L 1339.871564 423.694231 
L 1344.531443 454.649543 
L 1349.191323 444.066856 
L 1353.851203 461.32956 
L 1358.511082 445.155531 
L 1363.170962 461.143589 
L 1367.830842 457.463539 
L 1372.490722 464.72183 
L 1377.150601 471.244382 
L 1381.810481 459.03411 
L 1386.470361 456.839112 
L 1391.130241 445.940138 
L 1395.79012 447.840569 
L 1400.45 441.73204 
L 1400.45 441.73204 
" style="fill:none;stroke:#ff7f0e;stroke-linecap:square;stroke-width:1.5;"/>
   </g>
   <g id="line2d_43">
    <path clip-path="url(#pc75903bdcf)" d="M 44.425 297.299256 
L 49.08488 298.113727 
L 53.744759 300.014158 
L 58.404639 299.471178 
L 63.064519 303.00055 
L 67.724399 297.842236 
L 72.384278 295.26308 
L 77.044158 291.869452 
L 81.704038 290.919236 
L 86.363918 290.647746 
L 91.023797 281.41708 
L 95.683677 279.380903 
L 100.343557 276.258766 
L 105.003436 277.751962 
L 109.663316 273.815354 
L 114.323196 273.815354 
L 118.983076 274.49408 
L 123.642955 273.815354 
L 128.302835 275.172805 
L 132.962715 275.03706 
L 137.622595 279.652393 
L 142.282474 282.638786 
L 146.942354 285.082197 
L 156.262113 285.896668 
L 160.921993 280.059629 
L 165.581873 279.380903 
L 170.241753 278.023452 
L 174.901632 277.887707 
L 179.561512 274.76557 
L 184.221392 273.951099 
L 188.881271 276.666001 
L 193.541151 280.466864 
L 198.201031 274.222589 
L 202.860911 278.023452 
L 207.52079 278.159197 
L 212.18067 273.408119 
L 216.84055 274.358335 
L 221.50043 277.344727 
L 226.160309 274.49408 
L 230.820189 269.335766 
L 235.480069 269.878746 
L 240.139948 266.824482 
L 244.799828 267.299589 
L 249.459708 266.077884 
L 254.119588 264.313197 
L 258.779467 266.213629 
L 263.439347 261.598295 
L 268.099227 261.46255 
L 272.759107 259.290629 
L 277.418986 259.426374 
L 282.078866 256.847217 
L 286.738746 262.141276 
L 291.398625 261.326805 
L 296.058505 260.240844 
L 300.718385 260.376589 
L 305.378265 260.783825 
L 310.038144 267.84257 
L 314.698024 267.163844 
L 319.357904 265.806393 
L 324.017784 266.620864 
L 328.677663 270.693217 
L 333.337543 271.236197 
L 337.997423 270.421727 
L 342.657302 273.408119 
L 347.317182 278.973668 
L 351.977062 279.245158 
L 356.636942 281.824315 
L 361.296821 279.923884 
L 365.956701 290.783491 
L 370.616581 287.661354 
L 375.27646 285.69305 
L 379.93634 278.566433 
L 384.59622 279.109413 
L 389.2561 278.023452 
L 393.915979 274.358335 
L 398.575859 277.208982 
L 403.235739 283.046021 
L 407.895619 279.923884 
L 412.555498 283.589001 
L 417.215378 286.439648 
L 421.875258 286.982629 
L 426.535137 298.113727 
L 431.195017 294.787972 
L 435.854897 287.797099 
L 440.514777 281.96006 
L 445.174656 278.159197 
L 449.834536 276.394511 
L 454.494416 277.208982 
L 459.154296 275.851531 
L 463.814175 277.480472 
L 468.474055 275.58004 
L 473.133935 278.566433 
L 477.793814 279.923884 
L 482.453694 275.987276 
L 487.113574 274.086844 
L 491.773454 272.050668 
L 496.433333 273.951099 
L 501.093213 274.086844 
L 505.753093 279.788138 
L 510.412973 280.195374 
L 515.072852 278.159197 
L 519.732732 278.430687 
L 524.392612 277.480472 
L 529.052491 272.322158 
L 533.712371 268.792786 
L 538.372251 267.57108 
L 543.032131 271.779178 
L 547.69201 271.236197 
L 552.35189 267.84257 
L 557.01177 267.299589 
L 561.671649 263.159364 
L 566.331529 262.277021 
L 570.991409 263.227237 
L 575.651289 265.806393 
L 580.311168 265.942138 
L 584.971048 268.38555 
L 589.630928 270.285982 
L 594.290808 269.607256 
L 598.950687 266.349374 
L 603.610567 267.978315 
L 608.270447 263.362982 
L 612.930326 262.684256 
L 617.590206 265.534903 
L 622.250086 271.507687 
L 626.909966 274.49408 
L 631.569845 282.638786 
L 636.229725 291.597962 
L 640.889605 286.846884 
L 645.549485 288.475825 
L 650.209364 283.453256 
L 659.529124 290.104766 
L 664.189003 284.131982 
L 668.848883 294.448609 
L 673.508763 302.864805 
L 678.168643 297.977982 
L 682.828522 292.276687 
L 687.488402 295.941805 
L 692.148282 292.140942 
L 696.808162 292.548178 
L 701.468041 301.507354 
L 706.127921 297.299256 
L 710.787801 299.199687 
L 715.44768 296.34904 
L 720.10756 292.548178 
L 724.76744 292.955413 
L 729.42732 294.991589 
L 734.087199 291.597962 
L 738.747079 287.118374 
L 743.406959 284.267727 
L 748.066838 284.810707 
L 752.726718 280.059629 
L 757.386598 272.865138 
L 762.046478 272.050668 
L 766.706357 275.03706 
L 771.366237 275.58004 
L 776.026117 277.073237 
L 785.345876 278.430687 
L 790.005756 275.444295 
L 794.665636 278.023452 
L 799.325515 282.367295 
L 803.985395 279.788138 
L 808.645275 281.68857 
L 813.305155 283.181766 
L 817.965034 281.824315 
L 822.624914 289.018805 
L 827.284794 294.584354 
L 831.944674 293.905629 
L 836.604553 289.561785 
L 841.264433 288.34008 
L 845.924313 291.869452 
L 850.584192 290.240511 
L 855.244072 288.204335 
L 859.903952 285.082197 
L 864.563832 286.575393 
L 869.223711 281.96006 
L 873.883591 281.68857 
L 878.543471 279.652393 
L 883.203351 276.801746 
L 887.86323 276.258766 
L 897.18299 276.801746 
L 901.842869 282.095805 
L 906.502749 280.466864 
L 911.162629 275.851531 
L 915.822509 277.344727 
L 920.482388 273.951099 
L 925.142268 273.679609 
L 929.802148 276.801746 
L 934.462027 277.208982 
L 939.121907 276.394511 
L 943.781787 276.530256 
L 948.441667 271.371942 
L 953.101546 271.371942 
L 957.761426 271.779178 
L 962.421306 273.272374 
L 967.081186 273.272374 
L 971.741065 275.987276 
L 976.400945 273.408119 
L 981.060825 272.457903 
L 990.380584 279.109413 
L 995.040464 279.109413 
L 999.700344 277.480472 
L 1004.360223 277.208982 
L 1009.020103 277.073237 
L 1013.679983 275.58004 
L 1018.339863 275.715786 
L 1022.999742 279.109413 
L 1027.659622 279.380903 
L 1032.319502 277.751962 
L 1036.979381 279.109413 
L 1041.639261 278.023452 
L 1046.299141 280.059629 
L 1050.959021 280.331119 
L 1055.6189 279.516648 
L 1060.27878 275.715786 
L 1064.93866 277.616217 
L 1069.59854 277.616217 
L 1074.258419 277.480472 
L 1078.918299 277.751962 
L 1083.578179 274.222589 
L 1088.238058 272.186413 
L 1092.897938 272.322158 
L 1097.557818 273.543864 
L 1102.217698 272.593648 
L 1106.877577 272.322158 
L 1111.537457 273.408119 
L 1116.197337 272.593648 
L 1120.857216 272.322158 
L 1125.517096 274.49408 
L 1130.176976 273.951099 
L 1134.836856 275.03706 
L 1139.496735 273.408119 
L 1144.156615 273.408119 
L 1148.816495 275.58004 
L 1153.476375 273.815354 
L 1158.136254 273.951099 
L 1162.796134 273.543864 
L 1167.456014 268.792786 
L 1172.115893 267.028099 
L 1176.775773 265.670648 
L 1181.435653 263.227237 
L 1186.095533 264.448942 
L 1190.755412 264.448942 
L 1195.415292 269.335766 
L 1200.075172 266.485119 
L 1204.735052 275.715786 
L 1209.394931 275.444295 
L 1214.054811 278.837923 
L 1218.714691 281.145589 
L 1223.37457 274.76557 
L 1228.03445 271.779178 
L 1232.69433 268.928531 
L 1237.35421 269.064276 
L 1242.014089 266.892354 
L 1246.673969 261.73404 
L 1251.333849 260.376589 
L 1255.993729 261.869786 
L 1260.653608 264.313197 
L 1265.313488 264.991923 
L 1269.973368 261.598295 
L 1274.633247 261.598295 
L 1279.293127 264.448942 
L 1283.953007 271.914923 
L 1288.612887 281.009844 
L 1293.272766 282.095805 
L 1297.932646 297.435001 
L 1302.592526 298.249472 
L 1307.252405 284.946452 
L 1311.912285 293.905629 
L 1316.572165 278.294942 
L 1321.232045 287.389864 
L 1325.891924 292.548178 
L 1330.551804 315.896334 
L 1335.211684 302.864805 
L 1339.871564 318.611236 
L 1344.531443 350.104099 
L 1349.191323 324.31253 
L 1353.851203 352.00453 
L 1358.511082 331.642766 
L 1363.170962 343.452589 
L 1367.830842 343.99557 
L 1372.490722 361.642432 
L 1377.150601 370.737354 
L 1381.810481 352.411766 
L 1386.470361 354.312197 
L 1391.130241 333.814687 
L 1395.79012 342.638119 
L 1400.45 333.271707 
L 1400.45 333.271707 
" style="fill:none;stroke:#2ca02c;stroke-linecap:square;stroke-width:1.5;"/>
   </g>
   <g id="line2d_44">
    <path clip-path="url(#pc75903bdcf)" d="M 44.425 456.664001 
L 49.08488 456.664001 
L 53.744759 457.885707 
L 58.404639 457.478471 
L 63.064519 459.514648 
L 67.724399 459.378903 
L 72.384278 460.600608 
L 77.044158 459.378903 
L 81.704038 457.885707 
L 86.363918 457.206981 
L 91.023797 453.134628 
L 95.683677 452.455903 
L 100.343557 451.641432 
L 105.003436 451.098452 
L 109.663316 450.419726 
L 114.323196 454.084844 
L 123.642955 451.912922 
L 128.302835 452.320158 
L 132.962715 454.763569 
L 137.622595 454.220589 
L 142.282474 453.270373 
L 146.942354 454.356334 
L 156.262113 455.442295 
L 160.921993 454.899314 
L 165.581873 453.270373 
L 170.241753 451.505687 
L 174.901632 452.863138 
L 179.561512 452.863138 
L 184.221392 451.912922 
L 188.881271 451.369942 
L 193.541151 449.19802 
L 198.201031 450.555471 
L 202.860911 452.320158 
L 207.52079 451.777177 
L 212.18067 450.962707 
L 216.84055 452.184412 
L 221.50043 452.998883 
L 226.160309 452.727393 
L 230.820189 450.691216 
L 235.480069 450.148236 
L 240.139948 450.012491 
L 244.799828 449.741001 
L 249.459708 448.65504 
L 254.119588 447.840569 
L 258.779467 448.247805 
L 263.439347 446.211628 
L 268.099227 447.569079 
L 272.759107 447.026099 
L 277.418986 447.569079 
L 282.078866 448.247805 
L 286.738746 448.519295 
L 291.398625 448.38355 
L 296.058505 446.754609 
L 300.718385 446.890354 
L 305.378265 447.297589 
L 310.038144 447.840569 
L 314.698024 450.555471 
L 319.357904 450.691216 
L 324.017784 450.012491 
L 328.677663 450.283981 
L 333.337543 453.270373 
L 337.997423 453.134628 
L 342.657302 452.455903 
L 347.317182 455.57804 
L 351.977062 454.627824 
L 356.636942 455.985275 
L 361.296821 455.442295 
L 365.956701 456.664001 
L 370.616581 453.406118 
L 375.27646 451.777177 
L 379.93634 450.012491 
L 384.59622 452.184412 
L 389.2561 451.369942 
L 393.915979 451.505687 
L 398.575859 454.356334 
L 403.235739 459.243158 
L 407.895619 456.664001 
L 412.555498 454.899314 
L 417.215378 455.30655 
L 421.875258 457.749961 
L 426.535137 463.722746 
L 431.195017 464.672961 
L 435.854897 463.04402 
L 440.514777 467.659354 
L 445.174656 464.401471 
L 449.834536 463.587001 
L 454.494416 464.129981 
L 459.154296 462.77253 
L 463.814175 465.758922 
L 468.474055 463.04402 
L 473.133935 462.297422 
L 477.793814 463.04402 
L 482.453694 460.600608 
L 487.113574 461.415079 
L 491.773454 457.342726 
L 496.433333 456.935491 
L 501.093213 455.57804 
L 505.753093 454.763569 
L 510.412973 453.134628 
L 515.072852 453.134628 
L 519.732732 455.985275 
L 524.392612 455.57804 
L 529.052491 459.243158 
L 533.712371 457.206981 
L 538.372251 456.664001 
L 543.032131 457.206981 
L 547.69201 456.12102 
L 552.35189 451.505687 
L 557.01177 451.369942 
L 561.671649 450.555471 
L 566.331529 453.677609 
L 575.651289 458.021452 
L 580.311168 459.786138 
L 584.971048 458.292942 
L 589.630928 458.700177 
L 594.290808 457.682089 
L 598.950687 458.700177 
L 603.610567 459.107412 
L 608.270447 458.835922 
L 612.930326 458.021452 
L 617.590206 456.799746 
L 622.250086 457.885707 
L 626.909966 464.129981 
L 631.569845 463.722746 
L 636.229725 465.487432 
L 640.889605 466.980628 
L 645.549485 469.559785 
L 654.869244 466.912756 
L 659.529124 468.745314 
L 664.189003 463.858491 
L 668.848883 467.387863 
L 673.508763 468.745314 
L 678.168643 468.473824 
L 682.828522 467.659354 
L 687.488402 467.659354 
L 692.148282 466.844883 
L 696.808162 467.795099 
L 701.468041 469.42404 
L 706.127921 469.559785 
L 710.787801 468.066589 
L 715.44768 465.758922 
L 720.10756 465.487432 
L 724.76744 468.609569 
L 729.42732 470.102765 
L 734.087199 465.080197 
L 738.747079 465.351687 
L 743.406959 465.351687 
L 748.066838 463.31551 
L 752.726718 462.636785 
L 757.386598 464.265726 
L 762.046478 465.080197 
L 766.706357 465.080197 
L 771.366237 455.84953 
L 776.026117 460.329118 
L 780.685997 461.279334 
L 785.345876 459.921883 
L 790.005756 460.464863 
L 794.665636 459.650393 
L 799.325515 462.365295 
L 803.985395 463.179765 
L 808.645275 463.31551 
L 813.305155 463.722746 
L 817.965034 466.166158 
L 822.624914 466.437648 
L 827.284794 468.066589 
L 831.944674 468.066589 
L 836.604553 466.844883 
L 841.264433 466.844883 
L 845.924313 467.116373 
L 850.584192 466.301903 
L 855.244072 464.944452 
L 859.903952 462.50104 
L 864.563832 463.858491 
L 869.223711 464.401471 
L 873.883591 464.129981 
L 878.543471 463.179765 
L 883.203351 463.179765 
L 887.86323 463.31551 
L 892.52311 463.31551 
L 897.18299 460.872099 
L 901.842869 459.650393 
L 906.502749 458.564432 
L 911.162629 459.378903 
L 915.822509 459.514648 
L 920.482388 461.143589 
L 925.142268 462.365295 
L 929.802148 458.564432 
L 934.462027 457.206981 
L 939.121907 456.664001 
L 943.781787 458.971667 
L 948.441667 459.243158 
L 953.101546 458.700177 
L 957.761426 459.989756 
L 967.081186 459.107412 
L 971.741065 459.921883 
L 976.400945 458.971667 
L 981.060825 461.279334 
L 985.720704 463.179765 
L 990.380584 460.464863 
L 995.040464 458.700177 
L 1004.360223 458.971667 
L 1009.020103 457.614216 
L 1013.679983 458.428687 
L 1018.339863 462.636785 
L 1022.999742 463.179765 
L 1027.659622 462.908275 
L 1032.319502 460.193373 
L 1036.979381 459.514648 
L 1041.639261 458.157197 
L 1046.299141 458.428687 
L 1050.959021 457.478471 
L 1055.6189 458.428687 
L 1060.27878 456.935491 
L 1064.93866 455.713785 
L 1069.59854 453.949099 
L 1074.258419 452.591648 
L 1078.918299 452.455903 
L 1083.578179 451.912922 
L 1088.238058 452.184412 
L 1092.897938 455.170805 
L 1097.557818 453.813354 
L 1102.217698 452.591648 
L 1106.877577 451.912922 
L 1111.537457 452.184412 
L 1116.197337 453.406118 
L 1120.857216 452.320158 
L 1125.517096 450.419726 
L 1130.176976 450.148236 
L 1134.836856 450.555471 
L 1139.496735 453.677609 
L 1144.156615 454.899314 
L 1148.816495 454.899314 
L 1153.476375 456.256765 
L 1158.136254 455.57804 
L 1162.796134 456.528256 
L 1167.456014 456.935491 
L 1172.115893 456.12102 
L 1176.775773 457.342726 
L 1181.435653 460.464863 
L 1186.095533 462.093805 
L 1190.755412 465.215942 
L 1195.415292 469.15255 
L 1200.075172 468.066589 
L 1204.735052 468.881059 
L 1209.394931 470.510001 
L 1214.054811 472.817667 
L 1218.714691 476.07555 
L 1223.37457 475.804059 
L 1228.03445 472.953412 
L 1232.69433 472.003197 
L 1237.35421 472.953412 
L 1242.014089 474.718099 
L 1246.673969 474.446608 
L 1251.333849 471.052981 
L 1255.993729 470.374256 
L 1260.653608 470.645746 
L 1265.313488 469.69553 
L 1269.973368 467.659354 
L 1274.633247 468.338079 
L 1279.293127 469.627657 
L 1283.953007 473.224903 
L 1288.612887 477.297256 
L 1293.272766 479.401305 
L 1297.932646 482.455569 
L 1302.592526 486.120687 
L 1307.252405 481.912589 
L 1311.912285 481.369608 
L 1316.572165 480.962373 
L 1321.232045 483.81302 
L 1325.891924 489.650059 
L 1330.551804 504.446275 
L 1335.211684 499.016471 
L 1339.871564 502.545844 
L 1344.531443 510.147569 
L 1349.191323 508.382883 
L 1353.851203 515.848863 
L 1358.511082 519.921216 
L 1363.170962 524.80804 
L 1367.830842 521.550157 
L 1372.490722 522.636118 
L 1377.150601 520.871432 
L 1381.810481 517.070569 
L 1386.470361 510.69055 
L 1391.130241 516.527589 
L 1395.79012 515.984608 
L 1400.45 517.070569 
L 1400.45 517.070569 
" style="fill:none;stroke:#d62728;stroke-linecap:square;stroke-width:1.5;"/>
   </g>
   <g id="line2d_45">
    <path clip-path="url(#pc75903bdcf)" d="M 44.425 83.093492 
L 49.08488 76.577727 
L 53.744759 70.333453 
L 67.724399 82.007531 
L 72.384278 78.749649 
L 77.044158 68.840257 
L 81.704038 68.568767 
L 86.363918 69.790472 
L 91.023797 62.731727 
L 95.683677 59.473845 
L 100.343557 58.523629 
L 105.003436 68.161531 
L 109.663316 65.310884 
L 114.323196 63.410453 
L 118.983076 58.930865 
L 123.642955 52.68659 
L 128.302835 55.401492 
L 132.962715 51.464884 
L 137.622595 63.546198 
L 142.282474 58.523629 
L 146.942354 63.410453 
L 151.602234 71.962394 
L 156.262113 76.849217 
L 160.921993 65.853865 
L 165.581873 64.224923 
L 170.241753 62.460237 
L 174.901632 72.098139 
L 179.561512 75.356021 
L 184.221392 71.283668 
L 188.881271 73.72708 
L 193.541151 79.156884 
L 198.201031 73.048355 
L 202.860911 88.794786 
L 207.52079 82.007531 
L 212.18067 77.663688 
L 216.84055 71.555159 
L 221.50043 69.111747 
L 226.160309 67.211316 
L 230.820189 63.274708 
L 235.480069 68.976002 
L 240.139948 65.582374 
L 244.799828 58.79512 
L 249.459708 58.79512 
L 254.119588 60.559806 
L 258.779467 68.025786 
L 263.439347 59.06661 
L 268.099227 63.003218 
L 272.759107 64.360669 
L 277.418986 63.681943 
L 282.078866 60.695551 
L 286.738746 59.88108 
L 291.398625 62.867472 
L 296.058505 75.491767 
L 300.718385 65.582374 
L 305.378265 55.265747 
L 310.038144 60.967041 
L 314.698024 56.487453 
L 319.357904 54.994257 
L 324.017784 58.116394 
L 328.677663 66.2611 
L 333.337543 61.917257 
L 337.997423 55.944472 
L 342.657302 60.559806 
L 347.317182 71.283668 
L 351.977062 69.926218 
L 356.636942 75.220276 
L 361.296821 79.156884 
L 365.956701 101.69057 
L 370.616581 93.817355 
L 375.27646 95.310551 
L 379.93634 95.039061 
L 384.59622 99.247159 
L 389.2561 101.14759 
L 393.915979 93.68161 
L 398.575859 104.541217 
L 403.235739 112.142943 
L 407.895619 112.278688 
L 412.555498 115.808061 
L 417.215378 128.432355 
L 421.875258 127.210649 
L 426.535137 134.540884 
L 431.195017 131.147257 
L 435.854897 114.99359 
L 440.514777 123.274041 
L 445.174656 125.310217 
L 449.834536 119.201688 
L 454.494416 115.943806 
L 459.154296 110.514002 
L 463.814175 112.278688 
L 468.474055 105.355688 
L 473.133935 106.713139 
L 477.793814 105.898668 
L 482.453694 102.369296 
L 487.113574 103.048021 
L 491.773454 100.60461 
L 496.433333 103.726747 
L 501.093213 112.550178 
L 505.753093 116.079551 
L 510.412973 113.636139 
L 515.072852 106.984629 
L 519.732732 103.048021 
L 524.392612 101.826315 
L 529.052491 106.305904 
L 533.712371 101.826315 
L 538.372251 94.903315 
L 543.032131 95.717786 
L 547.69201 99.382904 
L 552.35189 101.69057 
L 557.01177 101.554825 
L 561.671649 92.324159 
L 566.331529 93.817355 
L 570.991409 92.731394 
L 575.651289 99.111414 
L 580.311168 102.369296 
L 584.971048 101.554825 
L 589.630928 106.305904 
L 594.290808 103.319512 
L 598.950687 91.916923 
L 603.610567 98.161198 
L 608.270447 94.903315 
L 612.930326 93.817355 
L 617.590206 99.382904 
L 622.250086 100.061629 
L 626.909966 118.794453 
L 631.569845 121.509355 
L 636.229725 133.862159 
L 640.889605 126.939159 
L 645.549485 128.160864 
L 650.209364 119.880413 
L 654.869244 132.504708 
L 659.529124 142.4141 
L 664.189003 133.862159 
L 668.848883 156.667335 
L 673.508763 164.947786 
L 678.168643 154.088178 
L 682.828522 147.436668 
L 687.488402 152.459237 
L 692.148282 142.549845 
L 696.808162 134.133649 
L 701.468041 154.766904 
L 706.127921 148.794119 
L 710.787801 155.309884 
L 715.44768 141.328139 
L 720.10756 133.183433 
L 724.76744 138.341747 
L 729.42732 146.622198 
L 734.087199 140.785158 
L 738.747079 120.694884 
L 743.406959 121.509355 
L 748.066838 102.233551 
L 752.726718 86.215629 
L 757.386598 82.550512 
L 762.046478 87.30159 
L 766.706357 86.75861 
L 771.366237 93.545865 
L 776.026117 97.753963 
L 780.685997 103.591002 
L 785.345876 106.713139 
L 790.005756 111.056982 
L 794.665636 104.948453 
L 799.325515 109.699531 
L 803.985395 104.405472 
L 808.645275 108.07059 
L 813.305155 108.07059 
L 817.965034 102.233551 
L 822.624914 106.441649 
L 827.284794 121.6451 
L 831.944674 120.016159 
L 836.604553 116.215296 
L 841.264433 116.894021 
L 845.924313 125.038727 
L 850.584192 119.880413 
L 855.244072 114.043374 
L 859.903952 101.69057 
L 864.563832 107.52761 
L 869.223711 100.8761 
L 873.883591 97.482472 
L 878.543471 90.016492 
L 883.203351 98.432688 
L 887.86323 91.509688 
L 892.52311 84.179453 
L 897.18299 81.193061 
L 901.842869 82.007531 
L 906.502749 75.627512 
L 911.162629 70.604943 
L 915.822509 80.65008 
L 920.482388 85.265414 
L 925.142268 92.459904 
L 929.802148 85.265414 
L 934.462027 75.491767 
L 939.121907 68.025786 
L 943.781787 70.604943 
L 948.441667 71.419414 
L 953.101546 74.541551 
L 957.761426 74.948786 
L 962.421306 76.034747 
L 967.081186 79.156884 
L 971.741065 75.220276 
L 976.400945 69.247492 
L 981.060825 69.790472 
L 985.720704 81.600296 
L 990.380584 89.202021 
L 995.040464 91.102453 
L 999.700344 83.093492 
L 1004.360223 73.1841 
L 1009.020103 69.518982 
L 1013.679983 67.07557 
L 1018.339863 71.690904 
L 1022.999742 78.206668 
L 1027.659622 86.351374 
L 1032.319502 82.143276 
L 1036.979381 84.315198 
L 1041.639261 70.604943 
L 1046.299141 68.297276 
L 1050.959021 68.568767 
L 1055.6189 72.776865 
L 1060.27878 60.288316 
L 1064.93866 71.826649 
L 1069.59854 72.233884 
L 1074.258419 64.903649 
L 1078.918299 58.930865 
L 1083.578179 56.215963 
L 1088.238058 57.709159 
L 1092.897938 59.88108 
L 1097.557818 57.573414 
L 1102.217698 53.093825 
L 1106.877577 50.514669 
L 1111.537457 54.722767 
L 1116.197337 53.636806 
L 1125.517096 63.138963 
L 1130.176976 60.967041 
L 1134.836856 63.138963 
L 1139.496735 61.917257 
L 1144.156615 64.496414 
L 1148.816495 66.2611 
L 1158.136254 59.06661 
L 1162.796134 62.731727 
L 1167.456014 54.722767 
L 1172.115893 55.401492 
L 1176.775773 58.659374 
L 1181.435653 60.967041 
L 1186.095533 61.645767 
L 1190.755412 68.704512 
L 1195.415292 74.541551 
L 1200.075172 71.147923 
L 1204.735052 72.505374 
L 1209.394931 75.899002 
L 1214.054811 93.68161 
L 1218.714691 87.84457 
L 1223.37457 83.229237 
L 1228.03445 69.790472 
L 1232.69433 73.1841 
L 1237.35421 82.143276 
L 1242.014089 80.785825 
L 1246.673969 76.170492 
L 1251.333849 65.98961 
L 1255.993729 68.297276 
L 1260.653608 69.790472 
L 1265.313488 67.211316 
L 1269.973368 65.853865 
L 1274.633247 52.4151 
L 1279.293127 56.487453 
L 1283.953007 78.613904 
L 1288.612887 98.704178 
L 1293.272766 112.007198 
L 1297.932646 127.889374 
L 1302.592526 131.418747 
L 1307.252405 122.73106 
L 1311.912285 135.355355 
L 1316.572165 121.509355 
L 1321.232045 141.056649 
L 1325.891924 147.029433 
L 1330.551804 175.807394 
L 1335.211684 166.848217 
L 1339.871564 203.499394 
L 1344.531443 262.005531 
L 1349.191323 233.77055 
L 1353.851203 289.15455 
L 1358.511082 269.064276 
L 1363.170962 301.507354 
L 1367.830842 280.874099 
L 1372.490722 298.656707 
L 1377.150601 311.823981 
L 1381.810481 274.49408 
L 1386.470361 267.435335 
L 1391.130241 254.675295 
L 1395.79012 270.557472 
L 1400.45 270.693217 
L 1400.45 270.693217 
" style="fill:none;stroke:#9467bd;stroke-linecap:square;stroke-width:1.5;"/>
   </g>
   <g id="patch_3">
    <path d="M 44.425 678.2 
L 44.425 26.8 
" style="fill:none;stroke:#000000;stroke-linecap:square;stroke-linejoin:miter;stroke-width:0.8;"/>
   </g>
   <g id="patch_4">
    <path d="M 1400.45 678.2 
L 1400.45 26.8 
" style="fill:none;stroke:#000000;stroke-linecap:square;stroke-linejoin:miter;stroke-width:0.8;"/>
   </g>
   <g id="patch_5">
    <path d="M 44.425 678.2 
L 1400.45 678.2 
" style="fill:none;stroke:#000000;stroke-linecap:square;stroke-linejoin:miter;stroke-width:0.8;"/>
   </g>
   <g id="patch_6">
    <path d="M 44.425 26.8 
L 1400.45 26.8 
" style="fill:none;stroke:#000000;stroke-linecap:square;stroke-linejoin:miter;stroke-width:0.8;"/>
   </g>
   <g id="text_23">
    <!-- ETF Stock Prices -->
    <defs>
     <path d="M 9.8125 72.90625 
L 55.90625 72.90625 
L 55.90625 64.59375 
L 19.671875 64.59375 
L 19.671875 43.015625 
L 54.390625 43.015625 
L 54.390625 34.71875 
L 19.671875 34.71875 
L 19.671875 8.296875 
L 56.78125 8.296875 
L 56.78125 0 
L 9.8125 0 
z
" id="DejaVuSans-69"/>
     <path d="M -0.296875 72.90625 
L 61.375 72.90625 
L 61.375 64.59375 
L 35.5 64.59375 
L 35.5 0 
L 25.59375 0 
L 25.59375 64.59375 
L -0.296875 64.59375 
z
" id="DejaVuSans-84"/>
     <path d="M 9.8125 72.90625 
L 51.703125 72.90625 
L 51.703125 64.59375 
L 19.671875 64.59375 
L 19.671875 43.109375 
L 48.578125 43.109375 
L 48.578125 34.8125 
L 19.671875 34.8125 
L 19.671875 0 
L 9.8125 0 
z
" id="DejaVuSans-70"/>
     <path d="M 53.515625 70.515625 
L 53.515625 60.890625 
Q 47.90625 63.578125 42.921875 64.890625 
Q 37.9375 66.21875 33.296875 66.21875 
Q 25.25 66.21875 20.875 63.09375 
Q 16.5 59.96875 16.5 54.203125 
Q 16.5 49.359375 19.40625 46.890625 
Q 22.3125 44.4375 30.421875 42.921875 
L 36.375 41.703125 
Q 47.40625 39.59375 52.65625 34.296875 
Q 57.90625 29 57.90625 20.125 
Q 57.90625 9.515625 50.796875 4.046875 
Q 43.703125 -1.421875 29.984375 -1.421875 
Q 24.8125 -1.421875 18.96875 -0.25 
Q 13.140625 0.921875 6.890625 3.21875 
L 6.890625 13.375 
Q 12.890625 10.015625 18.65625 8.296875 
Q 24.421875 6.59375 29.984375 6.59375 
Q 38.421875 6.59375 43.015625 9.90625 
Q 47.609375 13.234375 47.609375 19.390625 
Q 47.609375 24.75 44.3125 27.78125 
Q 41.015625 30.8125 33.5 32.328125 
L 27.484375 33.5 
Q 16.453125 35.6875 11.515625 40.375 
Q 6.59375 45.0625 6.59375 53.421875 
Q 6.59375 63.09375 13.40625 68.65625 
Q 20.21875 74.21875 32.171875 74.21875 
Q 37.3125 74.21875 42.625 73.28125 
Q 47.953125 72.359375 53.515625 70.515625 
z
" id="DejaVuSans-83"/>
     <path d="M 9.078125 75.984375 
L 18.109375 75.984375 
L 18.109375 31.109375 
L 44.921875 54.6875 
L 56.390625 54.6875 
L 27.390625 29.109375 
L 57.625 0 
L 45.90625 0 
L 18.109375 26.703125 
L 18.109375 0 
L 9.078125 0 
z
" id="DejaVuSans-107"/>
    </defs>
    <g transform="translate(673.244063 20.8)scale(0.12 -0.12)">
     <use xlink:href="#DejaVuSans-69"/>
     <use x="63.183594" xlink:href="#DejaVuSans-84"/>
     <use x="124.267578" xlink:href="#DejaVuSans-70"/>
     <use x="181.787109" xlink:href="#DejaVuSans-32"/>
     <use x="213.574219" xlink:href="#DejaVuSans-83"/>
     <use x="277.050781" xlink:href="#DejaVuSans-116"/>
     <use x="316.259766" xlink:href="#DejaVuSans-111"/>
     <use x="377.441406" xlink:href="#DejaVuSans-99"/>
     <use x="432.421875" xlink:href="#DejaVuSans-107"/>
     <use x="490.332031" xlink:href="#DejaVuSans-32"/>
     <use x="522.119141" xlink:href="#DejaVuSans-80"/>
     <use x="582.40625" xlink:href="#DejaVuSans-114"/>
     <use x="623.519531" xlink:href="#DejaVuSans-105"/>
     <use x="651.302734" xlink:href="#DejaVuSans-99"/>
     <use x="706.283203" xlink:href="#DejaVuSans-101"/>
     <use x="767.806641" xlink:href="#DejaVuSans-115"/>
    </g>
   </g>
   <g id="legend_1">
    <g id="patch_7">
     <path d="M 1333.828125 108.190625 
L 1393.45 108.190625 
Q 1395.45 108.190625 1395.45 106.190625 
L 1395.45 33.8 
Q 1395.45 31.8 1393.45 31.8 
L 1333.828125 31.8 
Q 1331.828125 31.8 1331.828125 33.8 
L 1331.828125 106.190625 
Q 1331.828125 108.190625 1333.828125 108.190625 
z
" style="fill:#ffffff;opacity:0.8;stroke:#cccccc;stroke-linejoin:miter;"/>
    </g>
    <g id="line2d_46">
     <path d="M 1335.828125 39.898438 
L 1355.828125 39.898438 
" style="fill:none;stroke:#1f77b4;stroke-linecap:square;stroke-width:1.5;"/>
    </g>
    <g id="line2d_47"/>
    <g id="text_24">
     <!-- CARZ -->
     <defs>
      <path d="M 34.1875 63.1875 
L 20.796875 26.90625 
L 47.609375 26.90625 
z
M 28.609375 72.90625 
L 39.796875 72.90625 
L 67.578125 0 
L 57.328125 0 
L 50.6875 18.703125 
L 17.828125 18.703125 
L 11.1875 0 
L 0.78125 0 
z
" id="DejaVuSans-65"/>
      <path d="M 44.390625 34.1875 
Q 47.5625 33.109375 50.5625 29.59375 
Q 53.5625 26.078125 56.59375 19.921875 
L 66.609375 0 
L 56 0 
L 46.6875 18.703125 
Q 43.0625 26.03125 39.671875 28.421875 
Q 36.28125 30.8125 30.421875 30.8125 
L 19.671875 30.8125 
L 19.671875 0 
L 9.8125 0 
L 9.8125 72.90625 
L 32.078125 72.90625 
Q 44.578125 72.90625 50.734375 67.671875 
Q 56.890625 62.453125 56.890625 51.90625 
Q 56.890625 45.015625 53.6875 40.46875 
Q 50.484375 35.9375 44.390625 34.1875 
z
M 19.671875 64.796875 
L 19.671875 38.921875 
L 32.078125 38.921875 
Q 39.203125 38.921875 42.84375 42.21875 
Q 46.484375 45.515625 46.484375 51.90625 
Q 46.484375 58.296875 42.84375 61.546875 
Q 39.203125 64.796875 32.078125 64.796875 
z
" id="DejaVuSans-82"/>
      <path d="M 5.609375 72.90625 
L 62.890625 72.90625 
L 62.890625 65.375 
L 16.796875 8.296875 
L 64.015625 8.296875 
L 64.015625 0 
L 4.5 0 
L 4.5 7.515625 
L 50.59375 64.59375 
L 5.609375 64.59375 
z
" id="DejaVuSans-90"/>
     </defs>
     <g transform="translate(1363.828125 43.398438)scale(0.1 -0.1)">
      <use xlink:href="#DejaVuSans-67"/>
      <use x="69.824219" xlink:href="#DejaVuSans-65"/>
      <use x="138.232422" xlink:href="#DejaVuSans-82"/>
      <use x="207.714844" xlink:href="#DejaVuSans-90"/>
     </g>
    </g>
    <g id="line2d_48">
     <path d="M 1335.828125 54.576563 
L 1355.828125 54.576563 
" style="fill:none;stroke:#ff7f0e;stroke-linecap:square;stroke-width:1.5;"/>
    </g>
    <g id="line2d_49"/>
    <g id="text_25">
     <!-- FTXG -->
     <defs>
      <path d="M 6.296875 72.90625 
L 16.890625 72.90625 
L 35.015625 45.796875 
L 53.21875 72.90625 
L 63.8125 72.90625 
L 40.375 37.890625 
L 65.375 0 
L 54.78125 0 
L 34.28125 31 
L 13.625 0 
L 2.984375 0 
L 29 38.921875 
z
" id="DejaVuSans-88"/>
      <path d="M 59.515625 10.40625 
L 59.515625 29.984375 
L 43.40625 29.984375 
L 43.40625 38.09375 
L 69.28125 38.09375 
L 69.28125 6.78125 
Q 63.578125 2.734375 56.6875 0.65625 
Q 49.8125 -1.421875 42 -1.421875 
Q 24.90625 -1.421875 15.25 8.5625 
Q 5.609375 18.5625 5.609375 36.375 
Q 5.609375 54.25 15.25 64.234375 
Q 24.90625 74.21875 42 74.21875 
Q 49.125 74.21875 55.546875 72.453125 
Q 61.96875 70.703125 67.390625 67.28125 
L 67.390625 56.78125 
Q 61.921875 61.421875 55.765625 63.765625 
Q 49.609375 66.109375 42.828125 66.109375 
Q 29.4375 66.109375 22.71875 58.640625 
Q 16.015625 51.171875 16.015625 36.375 
Q 16.015625 21.625 22.71875 14.15625 
Q 29.4375 6.6875 42.828125 6.6875 
Q 48.046875 6.6875 52.140625 7.59375 
Q 56.25 8.5 59.515625 10.40625 
z
" id="DejaVuSans-71"/>
     </defs>
     <g transform="translate(1363.828125 58.076563)scale(0.1 -0.1)">
      <use xlink:href="#DejaVuSans-70"/>
      <use x="57.503906" xlink:href="#DejaVuSans-84"/>
      <use x="118.587891" xlink:href="#DejaVuSans-88"/>
      <use x="187.09375" xlink:href="#DejaVuSans-71"/>
     </g>
    </g>
    <g id="line2d_50">
     <path d="M 1335.828125 69.254688 
L 1355.828125 69.254688 
" style="fill:none;stroke:#2ca02c;stroke-linecap:square;stroke-width:1.5;"/>
    </g>
    <g id="line2d_51"/>
    <g id="text_26">
     <!-- IYZ -->
     <defs>
      <path d="M 9.8125 72.90625 
L 19.671875 72.90625 
L 19.671875 0 
L 9.8125 0 
z
" id="DejaVuSans-73"/>
      <path d="M -0.203125 72.90625 
L 10.40625 72.90625 
L 30.609375 42.921875 
L 50.6875 72.90625 
L 61.28125 72.90625 
L 35.5 34.71875 
L 35.5 0 
L 25.59375 0 
L 25.59375 34.71875 
z
" id="DejaVuSans-89"/>
     </defs>
     <g transform="translate(1363.828125 72.754688)scale(0.1 -0.1)">
      <use xlink:href="#DejaVuSans-73"/>
      <use x="29.492188" xlink:href="#DejaVuSans-89"/>
      <use x="90.576172" xlink:href="#DejaVuSans-90"/>
     </g>
    </g>
    <g id="line2d_52">
     <path d="M 1335.828125 83.932813 
L 1355.828125 83.932813 
" style="fill:none;stroke:#d62728;stroke-linecap:square;stroke-width:1.5;"/>
    </g>
    <g id="line2d_53"/>
    <g id="text_27">
     <!-- PDBC -->
     <defs>
      <path d="M 19.671875 34.8125 
L 19.671875 8.109375 
L 35.5 8.109375 
Q 43.453125 8.109375 47.28125 11.40625 
Q 51.125 14.703125 51.125 21.484375 
Q 51.125 28.328125 47.28125 31.5625 
Q 43.453125 34.8125 35.5 34.8125 
z
M 19.671875 64.796875 
L 19.671875 42.828125 
L 34.28125 42.828125 
Q 41.5 42.828125 45.03125 45.53125 
Q 48.578125 48.25 48.578125 53.8125 
Q 48.578125 59.328125 45.03125 62.0625 
Q 41.5 64.796875 34.28125 64.796875 
z
M 9.8125 72.90625 
L 35.015625 72.90625 
Q 46.296875 72.90625 52.390625 68.21875 
Q 58.5 63.53125 58.5 54.890625 
Q 58.5 48.1875 55.375 44.234375 
Q 52.25 40.28125 46.1875 39.3125 
Q 53.46875 37.75 57.5 32.78125 
Q 61.53125 27.828125 61.53125 20.40625 
Q 61.53125 10.640625 54.890625 5.3125 
Q 48.25 0 35.984375 0 
L 9.8125 0 
z
" id="DejaVuSans-66"/>
     </defs>
     <g transform="translate(1363.828125 87.432813)scale(0.1 -0.1)">
      <use xlink:href="#DejaVuSans-80"/>
      <use x="60.302734" xlink:href="#DejaVuSans-68"/>
      <use x="137.304688" xlink:href="#DejaVuSans-66"/>
      <use x="205.892578" xlink:href="#DejaVuSans-67"/>
     </g>
    </g>
    <g id="line2d_54">
     <path d="M 1335.828125 98.610938 
L 1355.828125 98.610938 
" style="fill:none;stroke:#9467bd;stroke-linecap:square;stroke-width:1.5;"/>
    </g>
    <g id="line2d_55"/>
    <g id="text_28">
     <!-- XRT -->
     <g transform="translate(1363.828125 102.110938)scale(0.1 -0.1)">
      <use xlink:href="#DejaVuSans-88"/>
      <use x="68.505859" xlink:href="#DejaVuSans-82"/>
      <use x="137.878906" xlink:href="#DejaVuSans-84"/>
     </g>
    </g>
   </g>
  </g>
 </g>
 <defs>
  <clipPath id="pc75903bdcf">
   <rect height="651.4" width="1356.025" x="44.425" y="26.8"/>
  </clipPath>
 </defs>
</svg>
