<?xml version="1.0" encoding="utf-8" standalone="no"?>
<!DOCTYPE svg PUBLIC "-//W3C//DTD SVG 1.1//EN"
  "http://www.w3.org/Graphics/SVG/1.1/DTD/svg11.dtd">
<!-- Created with matplotlib (http://matplotlib.org/) -->
<svg height="720pt" version="1.1" viewBox="0 0 1440 720" width="1440pt" xmlns="http://www.w3.org/2000/svg" xmlns:xlink="http://www.w3.org/1999/xlink">
 <defs>
  <style type="text/css">
*{stroke-linecap:butt;stroke-linejoin:round;}
  </style>
 </defs>
 <g id="figure_1">
  <g id="patch_1">
   <path d="M 0 720 
L 1440 720 
L 1440 0 
L 0 0 
z
" style="fill:#ffffff;"/>
  </g>
  <g id="axes_1">
   <g id="patch_2">
    <path d="M 50.925 296.033496 
L 1425.7 296.033496 
L 1425.7 26.8 
L 50.925 26.8 
z
" style="fill:#ffffff;"/>
   </g>
   <g id="matplotlib.axis_1">
    <g id="xtick_1">
     <g id="line2d_1">
      <path clip-path="url(#pf324bc08c9)" d="M 167.753706 296.033496 
L 167.753706 26.8 
" style="fill:none;stroke:#b0b0b0;stroke-linecap:square;stroke-width:0.8;"/>
     </g>
     <g id="line2d_2">
      <defs>
       <path d="M 0 0 
L 0 3.5 
" id="m7c6ddf5f4d" style="stroke:#000000;stroke-width:0.8;"/>
      </defs>
      <g>
       <use style="stroke:#000000;stroke-width:0.8;" x="167.753706" xlink:href="#m7c6ddf5f4d" y="296.033496"/>
      </g>
     </g>
     <g id="text_1">
      <!-- 2020-01-24 -->
      <defs>
       <path d="M 19.1875 8.296875 
L 53.609375 8.296875 
L 53.609375 0 
L 7.328125 0 
L 7.328125 8.296875 
Q 12.9375 14.109375 22.625 23.890625 
Q 32.328125 33.6875 34.8125 36.53125 
Q 39.546875 41.84375 41.421875 45.53125 
Q 43.3125 49.21875 43.3125 52.78125 
Q 43.3125 58.59375 39.234375 62.25 
Q 35.15625 65.921875 28.609375 65.921875 
Q 23.96875 65.921875 18.8125 64.3125 
Q 13.671875 62.703125 7.8125 59.421875 
L 7.8125 69.390625 
Q 13.765625 71.78125 18.9375 73 
Q 24.125 74.21875 28.421875 74.21875 
Q 39.75 74.21875 46.484375 68.546875 
Q 53.21875 62.890625 53.21875 53.421875 
Q 53.21875 48.921875 51.53125 44.890625 
Q 49.859375 40.875 45.40625 35.40625 
Q 44.1875 33.984375 37.640625 27.21875 
Q 31.109375 20.453125 19.1875 8.296875 
z
" id="DejaVuSans-32"/>
       <path d="M 31.78125 66.40625 
Q 24.171875 66.40625 20.328125 58.90625 
Q 16.5 51.421875 16.5 36.375 
Q 16.5 21.390625 20.328125 13.890625 
Q 24.171875 6.390625 31.78125 6.390625 
Q 39.453125 6.390625 43.28125 13.890625 
Q 47.125 21.390625 47.125 36.375 
Q 47.125 51.421875 43.28125 58.90625 
Q 39.453125 66.40625 31.78125 66.40625 
z
M 31.78125 74.21875 
Q 44.046875 74.21875 50.515625 64.515625 
Q 56.984375 54.828125 56.984375 36.375 
Q 56.984375 17.96875 50.515625 8.265625 
Q 44.046875 -1.421875 31.78125 -1.421875 
Q 19.53125 -1.421875 13.0625 8.265625 
Q 6.59375 17.96875 6.59375 36.375 
Q 6.59375 54.828125 13.0625 64.515625 
Q 19.53125 74.21875 31.78125 74.21875 
z
" id="DejaVuSans-30"/>
       <path d="M 4.890625 31.390625 
L 31.203125 31.390625 
L 31.203125 23.390625 
L 4.890625 23.390625 
z
" id="DejaVuSans-2d"/>
       <path d="M 12.40625 8.296875 
L 28.515625 8.296875 
L 28.515625 63.921875 
L 10.984375 60.40625 
L 10.984375 69.390625 
L 28.421875 72.90625 
L 38.28125 72.90625 
L 38.28125 8.296875 
L 54.390625 8.296875 
L 54.390625 0 
L 12.40625 0 
z
" id="DejaVuSans-31"/>
       <path d="M 37.796875 64.3125 
L 12.890625 25.390625 
L 37.796875 25.390625 
z
M 35.203125 72.90625 
L 47.609375 72.90625 
L 47.609375 25.390625 
L 58.015625 25.390625 
L 58.015625 17.1875 
L 47.609375 17.1875 
L 47.609375 0 
L 37.796875 0 
L 37.796875 17.1875 
L 4.890625 17.1875 
L 4.890625 26.703125 
z
" id="DejaVuSans-34"/>
      </defs>
      <g transform="translate(116.384254 338.671748)rotate(-30)scale(0.1 -0.1)">
       <use xlink:href="#DejaVuSans-32"/>
       <use x="63.623047" xlink:href="#DejaVuSans-30"/>
       <use x="127.246094" xlink:href="#DejaVuSans-32"/>
       <use x="190.869141" xlink:href="#DejaVuSans-30"/>
       <use x="254.492188" xlink:href="#DejaVuSans-2d"/>
       <use x="290.576172" xlink:href="#DejaVuSans-30"/>
       <use x="354.199219" xlink:href="#DejaVuSans-31"/>
       <use x="417.822266" xlink:href="#DejaVuSans-2d"/>
       <use x="453.90625" xlink:href="#DejaVuSans-32"/>
       <use x="517.529297" xlink:href="#DejaVuSans-34"/>
      </g>
     </g>
    </g>
    <g id="xtick_2">
     <g id="line2d_3">
      <path clip-path="url(#pf324bc08c9)" d="M 421.335392 296.033496 
L 421.335392 26.8 
" style="fill:none;stroke:#b0b0b0;stroke-linecap:square;stroke-width:0.8;"/>
     </g>
     <g id="line2d_4">
      <g>
       <use style="stroke:#000000;stroke-width:0.8;" x="421.335392" xlink:href="#m7c6ddf5f4d" y="296.033496"/>
      </g>
     </g>
     <g id="text_2">
      <!-- 2020-02-07 -->
      <defs>
       <path d="M 8.203125 72.90625 
L 55.078125 72.90625 
L 55.078125 68.703125 
L 28.609375 0 
L 18.3125 0 
L 43.21875 64.59375 
L 8.203125 64.59375 
z
" id="DejaVuSans-37"/>
      </defs>
      <g transform="translate(369.965941 338.671748)rotate(-30)scale(0.1 -0.1)">
       <use xlink:href="#DejaVuSans-32"/>
       <use x="63.623047" xlink:href="#DejaVuSans-30"/>
       <use x="127.246094" xlink:href="#DejaVuSans-32"/>
       <use x="190.869141" xlink:href="#DejaVuSans-30"/>
       <use x="254.492188" xlink:href="#DejaVuSans-2d"/>
       <use x="290.576172" xlink:href="#DejaVuSans-30"/>
       <use x="354.199219" xlink:href="#DejaVuSans-32"/>
       <use x="417.822266" xlink:href="#DejaVuSans-2d"/>
       <use x="453.90625" xlink:href="#DejaVuSans-30"/>
       <use x="517.529297" xlink:href="#DejaVuSans-37"/>
      </g>
     </g>
    </g>
    <g id="xtick_3">
     <g id="line2d_5">
      <path clip-path="url(#pf324bc08c9)" d="M 674.917078 296.033496 
L 674.917078 26.8 
" style="fill:none;stroke:#b0b0b0;stroke-linecap:square;stroke-width:0.8;"/>
     </g>
     <g id="line2d_6">
      <g>
       <use style="stroke:#000000;stroke-width:0.8;" x="674.917078" xlink:href="#m7c6ddf5f4d" y="296.033496"/>
      </g>
     </g>
     <g id="text_3">
      <!-- 2020-02-21 -->
      <g transform="translate(623.547627 338.671748)rotate(-30)scale(0.1 -0.1)">
       <use xlink:href="#DejaVuSans-32"/>
       <use x="63.623047" xlink:href="#DejaVuSans-30"/>
       <use x="127.246094" xlink:href="#DejaVuSans-32"/>
       <use x="190.869141" xlink:href="#DejaVuSans-30"/>
       <use x="254.492188" xlink:href="#DejaVuSans-2d"/>
       <use x="290.576172" xlink:href="#DejaVuSans-30"/>
       <use x="354.199219" xlink:href="#DejaVuSans-32"/>
       <use x="417.822266" xlink:href="#DejaVuSans-2d"/>
       <use x="453.90625" xlink:href="#DejaVuSans-32"/>
       <use x="517.529297" xlink:href="#DejaVuSans-31"/>
      </g>
     </g>
    </g>
    <g id="xtick_4">
     <g id="line2d_7">
      <path clip-path="url(#pf324bc08c9)" d="M 928.498765 296.033496 
L 928.498765 26.8 
" style="fill:none;stroke:#b0b0b0;stroke-linecap:square;stroke-width:0.8;"/>
     </g>
     <g id="line2d_8">
      <g>
       <use style="stroke:#000000;stroke-width:0.8;" x="928.498765" xlink:href="#m7c6ddf5f4d" y="296.033496"/>
      </g>
     </g>
     <g id="text_4">
      <!-- 2020-03-06 -->
      <defs>
       <path d="M 40.578125 39.3125 
Q 47.65625 37.796875 51.625 33 
Q 55.609375 28.21875 55.609375 21.1875 
Q 55.609375 10.40625 48.1875 4.484375 
Q 40.765625 -1.421875 27.09375 -1.421875 
Q 22.515625 -1.421875 17.65625 -0.515625 
Q 12.796875 0.390625 7.625 2.203125 
L 7.625 11.71875 
Q 11.71875 9.328125 16.59375 8.109375 
Q 21.484375 6.890625 26.8125 6.890625 
Q 36.078125 6.890625 40.9375 10.546875 
Q 45.796875 14.203125 45.796875 21.1875 
Q 45.796875 27.640625 41.28125 31.265625 
Q 36.765625 34.90625 28.71875 34.90625 
L 20.21875 34.90625 
L 20.21875 43.015625 
L 29.109375 43.015625 
Q 36.375 43.015625 40.234375 45.921875 
Q 44.09375 48.828125 44.09375 54.296875 
Q 44.09375 59.90625 40.109375 62.90625 
Q 36.140625 65.921875 28.71875 65.921875 
Q 24.65625 65.921875 20.015625 65.03125 
Q 15.375 64.15625 9.8125 62.3125 
L 9.8125 71.09375 
Q 15.4375 72.65625 20.34375 73.4375 
Q 25.25 74.21875 29.59375 74.21875 
Q 40.828125 74.21875 47.359375 69.109375 
Q 53.90625 64.015625 53.90625 55.328125 
Q 53.90625 49.265625 50.4375 45.09375 
Q 46.96875 40.921875 40.578125 39.3125 
z
" id="DejaVuSans-33"/>
       <path d="M 33.015625 40.375 
Q 26.375 40.375 22.484375 35.828125 
Q 18.609375 31.296875 18.609375 23.390625 
Q 18.609375 15.53125 22.484375 10.953125 
Q 26.375 6.390625 33.015625 6.390625 
Q 39.65625 6.390625 43.53125 10.953125 
Q 47.40625 15.53125 47.40625 23.390625 
Q 47.40625 31.296875 43.53125 35.828125 
Q 39.65625 40.375 33.015625 40.375 
z
M 52.59375 71.296875 
L 52.59375 62.3125 
Q 48.875 64.0625 45.09375 64.984375 
Q 41.3125 65.921875 37.59375 65.921875 
Q 27.828125 65.921875 22.671875 59.328125 
Q 17.53125 52.734375 16.796875 39.40625 
Q 19.671875 43.65625 24.015625 45.921875 
Q 28.375 48.1875 33.59375 48.1875 
Q 44.578125 48.1875 50.953125 41.515625 
Q 57.328125 34.859375 57.328125 23.390625 
Q 57.328125 12.15625 50.6875 5.359375 
Q 44.046875 -1.421875 33.015625 -1.421875 
Q 20.359375 -1.421875 13.671875 8.265625 
Q 6.984375 17.96875 6.984375 36.375 
Q 6.984375 53.65625 15.1875 63.9375 
Q 23.390625 74.21875 37.203125 74.21875 
Q 40.921875 74.21875 44.703125 73.484375 
Q 48.484375 72.75 52.59375 71.296875 
z
" id="DejaVuSans-36"/>
      </defs>
      <g transform="translate(877.129313 338.671748)rotate(-30)scale(0.1 -0.1)">
       <use xlink:href="#DejaVuSans-32"/>
       <use x="63.623047" xlink:href="#DejaVuSans-30"/>
       <use x="127.246094" xlink:href="#DejaVuSans-32"/>
       <use x="190.869141" xlink:href="#DejaVuSans-30"/>
       <use x="254.492188" xlink:href="#DejaVuSans-2d"/>
       <use x="290.576172" xlink:href="#DejaVuSans-30"/>
       <use x="354.199219" xlink:href="#DejaVuSans-33"/>
       <use x="417.822266" xlink:href="#DejaVuSans-2d"/>
       <use x="453.90625" xlink:href="#DejaVuSans-30"/>
       <use x="517.529297" xlink:href="#DejaVuSans-36"/>
      </g>
     </g>
    </g>
    <g id="xtick_5">
     <g id="line2d_9">
      <path clip-path="url(#pf324bc08c9)" d="M 1182.080451 296.033496 
L 1182.080451 26.8 
" style="fill:none;stroke:#b0b0b0;stroke-linecap:square;stroke-width:0.8;"/>
     </g>
     <g id="line2d_10">
      <g>
       <use style="stroke:#000000;stroke-width:0.8;" x="1182.080451" xlink:href="#m7c6ddf5f4d" y="296.033496"/>
      </g>
     </g>
     <g id="text_5">
      <!-- 2020-03-20 -->
      <g transform="translate(1130.711 338.671748)rotate(-30)scale(0.1 -0.1)">
       <use xlink:href="#DejaVuSans-32"/>
       <use x="63.623047" xlink:href="#DejaVuSans-30"/>
       <use x="127.246094" xlink:href="#DejaVuSans-32"/>
       <use x="190.869141" xlink:href="#DejaVuSans-30"/>
       <use x="254.492188" xlink:href="#DejaVuSans-2d"/>
       <use x="290.576172" xlink:href="#DejaVuSans-30"/>
       <use x="354.199219" xlink:href="#DejaVuSans-33"/>
       <use x="417.822266" xlink:href="#DejaVuSans-2d"/>
       <use x="453.90625" xlink:href="#DejaVuSans-32"/>
       <use x="517.529297" xlink:href="#DejaVuSans-30"/>
      </g>
     </g>
    </g>
    <g id="text_6">
     <!-- Date -->
     <defs>
      <path d="M 19.671875 64.796875 
L 19.671875 8.109375 
L 31.59375 8.109375 
Q 46.6875 8.109375 53.6875 14.9375 
Q 60.6875 21.78125 60.6875 36.53125 
Q 60.6875 51.171875 53.6875 57.984375 
Q 46.6875 64.796875 31.59375 64.796875 
z
M 9.8125 72.90625 
L 30.078125 72.90625 
Q 51.265625 72.90625 61.171875 64.09375 
Q 71.09375 55.28125 71.09375 36.53125 
Q 71.09375 17.671875 61.125 8.828125 
Q 51.171875 0 30.078125 0 
L 9.8125 0 
z
" id="DejaVuSans-44"/>
      <path d="M 34.28125 27.484375 
Q 23.390625 27.484375 19.1875 25 
Q 14.984375 22.515625 14.984375 16.5 
Q 14.984375 11.71875 18.140625 8.90625 
Q 21.296875 6.109375 26.703125 6.109375 
Q 34.1875 6.109375 38.703125 11.40625 
Q 43.21875 16.703125 43.21875 25.484375 
L 43.21875 27.484375 
z
M 52.203125 31.203125 
L 52.203125 0 
L 43.21875 0 
L 43.21875 8.296875 
Q 40.140625 3.328125 35.546875 0.953125 
Q 30.953125 -1.421875 24.3125 -1.421875 
Q 15.921875 -1.421875 10.953125 3.296875 
Q 6 8.015625 6 15.921875 
Q 6 25.140625 12.171875 29.828125 
Q 18.359375 34.515625 30.609375 34.515625 
L 43.21875 34.515625 
L 43.21875 35.40625 
Q 43.21875 41.609375 39.140625 45 
Q 35.0625 48.390625 27.6875 48.390625 
Q 23 48.390625 18.546875 47.265625 
Q 14.109375 46.140625 10.015625 43.890625 
L 10.015625 52.203125 
Q 14.9375 54.109375 19.578125 55.046875 
Q 24.21875 56 28.609375 56 
Q 40.484375 56 46.34375 49.84375 
Q 52.203125 43.703125 52.203125 31.203125 
z
" id="DejaVuSans-61"/>
      <path d="M 18.3125 70.21875 
L 18.3125 54.6875 
L 36.8125 54.6875 
L 36.8125 47.703125 
L 18.3125 47.703125 
L 18.3125 18.015625 
Q 18.3125 11.328125 20.140625 9.421875 
Q 21.96875 7.515625 27.59375 7.515625 
L 36.8125 7.515625 
L 36.8125 0 
L 27.59375 0 
Q 17.1875 0 13.234375 3.875 
Q 9.28125 7.765625 9.28125 18.015625 
L 9.28125 47.703125 
L 2.6875 47.703125 
L 2.6875 54.6875 
L 9.28125 54.6875 
L 9.28125 70.21875 
z
" id="DejaVuSans-74"/>
      <path d="M 56.203125 29.59375 
L 56.203125 25.203125 
L 14.890625 25.203125 
Q 15.484375 15.921875 20.484375 11.0625 
Q 25.484375 6.203125 34.421875 6.203125 
Q 39.59375 6.203125 44.453125 7.46875 
Q 49.3125 8.734375 54.109375 11.28125 
L 54.109375 2.78125 
Q 49.265625 0.734375 44.1875 -0.34375 
Q 39.109375 -1.421875 33.890625 -1.421875 
Q 20.796875 -1.421875 13.15625 6.1875 
Q 5.515625 13.8125 5.515625 26.8125 
Q 5.515625 40.234375 12.765625 48.109375 
Q 20.015625 56 32.328125 56 
Q 43.359375 56 49.78125 48.890625 
Q 56.203125 41.796875 56.203125 29.59375 
z
M 47.21875 32.234375 
Q 47.125 39.59375 43.09375 43.984375 
Q 39.0625 48.390625 32.421875 48.390625 
Q 24.90625 48.390625 20.390625 44.140625 
Q 15.875 39.890625 15.1875 32.171875 
z
" id="DejaVuSans-65"/>
     </defs>
     <g transform="translate(726.361719 352.071248)scale(0.1 -0.1)">
      <use xlink:href="#DejaVuSans-44"/>
      <use x="77.001953" xlink:href="#DejaVuSans-61"/>
      <use x="138.28125" xlink:href="#DejaVuSans-74"/>
      <use x="177.490234" xlink:href="#DejaVuSans-65"/>
     </g>
    </g>
   </g>
   <g id="matplotlib.axis_2">
    <g id="ytick_1">
     <g id="line2d_11">
      <path clip-path="url(#pf324bc08c9)" d="M 50.925 293.355897 
L 1425.7 293.355897 
" style="fill:none;stroke:#b0b0b0;stroke-linecap:square;stroke-width:0.8;"/>
     </g>
     <g id="line2d_12">
      <defs>
       <path d="M 0 0 
L -3.5 0 
" id="me6c11f693d" style="stroke:#000000;stroke-width:0.8;"/>
      </defs>
      <g>
       <use style="stroke:#000000;stroke-width:0.8;" x="50.925" xlink:href="#me6c11f693d" y="293.355897"/>
      </g>
     </g>
     <g id="text_7">
      <!-- 65 -->
      <defs>
       <path d="M 10.796875 72.90625 
L 49.515625 72.90625 
L 49.515625 64.59375 
L 19.828125 64.59375 
L 19.828125 46.734375 
Q 21.96875 47.46875 24.109375 47.828125 
Q 26.265625 48.1875 28.421875 48.1875 
Q 40.625 48.1875 47.75 41.5 
Q 54.890625 34.8125 54.890625 23.390625 
Q 54.890625 11.625 47.5625 5.09375 
Q 40.234375 -1.421875 26.90625 -1.421875 
Q 22.3125 -1.421875 17.546875 -0.640625 
Q 12.796875 0.140625 7.71875 1.703125 
L 7.71875 11.625 
Q 12.109375 9.234375 16.796875 8.0625 
Q 21.484375 6.890625 26.703125 6.890625 
Q 35.15625 6.890625 40.078125 11.328125 
Q 45.015625 15.765625 45.015625 23.390625 
Q 45.015625 31 40.078125 35.4375 
Q 35.15625 39.890625 26.703125 39.890625 
Q 22.75 39.890625 18.8125 39.015625 
Q 14.890625 38.140625 10.796875 36.28125 
z
" id="DejaVuSans-35"/>
      </defs>
      <g transform="translate(31.2 297.155116)scale(0.1 -0.1)">
       <use xlink:href="#DejaVuSans-36"/>
       <use x="63.623047" xlink:href="#DejaVuSans-35"/>
      </g>
     </g>
    </g>
    <g id="ytick_2">
     <g id="line2d_13">
      <path clip-path="url(#pf324bc08c9)" d="M 50.925 257.414968 
L 1425.7 257.414968 
" style="fill:none;stroke:#b0b0b0;stroke-linecap:square;stroke-width:0.8;"/>
     </g>
     <g id="line2d_14">
      <g>
       <use style="stroke:#000000;stroke-width:0.8;" x="50.925" xlink:href="#me6c11f693d" y="257.414968"/>
      </g>
     </g>
     <g id="text_8">
      <!-- 70 -->
      <g transform="translate(31.2 261.214187)scale(0.1 -0.1)">
       <use xlink:href="#DejaVuSans-37"/>
       <use x="63.623047" xlink:href="#DejaVuSans-30"/>
      </g>
     </g>
    </g>
    <g id="ytick_3">
     <g id="line2d_15">
      <path clip-path="url(#pf324bc08c9)" d="M 50.925 221.47404 
L 1425.7 221.47404 
" style="fill:none;stroke:#b0b0b0;stroke-linecap:square;stroke-width:0.8;"/>
     </g>
     <g id="line2d_16">
      <g>
       <use style="stroke:#000000;stroke-width:0.8;" x="50.925" xlink:href="#me6c11f693d" y="221.47404"/>
      </g>
     </g>
     <g id="text_9">
      <!-- 75 -->
      <g transform="translate(31.2 225.273258)scale(0.1 -0.1)">
       <use xlink:href="#DejaVuSans-37"/>
       <use x="63.623047" xlink:href="#DejaVuSans-35"/>
      </g>
     </g>
    </g>
    <g id="ytick_4">
     <g id="line2d_17">
      <path clip-path="url(#pf324bc08c9)" d="M 50.925 185.533111 
L 1425.7 185.533111 
" style="fill:none;stroke:#b0b0b0;stroke-linecap:square;stroke-width:0.8;"/>
     </g>
     <g id="line2d_18">
      <g>
       <use style="stroke:#000000;stroke-width:0.8;" x="50.925" xlink:href="#me6c11f693d" y="185.533111"/>
      </g>
     </g>
     <g id="text_10">
      <!-- 80 -->
      <defs>
       <path d="M 31.78125 34.625 
Q 24.75 34.625 20.71875 30.859375 
Q 16.703125 27.09375 16.703125 20.515625 
Q 16.703125 13.921875 20.71875 10.15625 
Q 24.75 6.390625 31.78125 6.390625 
Q 38.8125 6.390625 42.859375 10.171875 
Q 46.921875 13.96875 46.921875 20.515625 
Q 46.921875 27.09375 42.890625 30.859375 
Q 38.875 34.625 31.78125 34.625 
z
M 21.921875 38.8125 
Q 15.578125 40.375 12.03125 44.71875 
Q 8.5 49.078125 8.5 55.328125 
Q 8.5 64.0625 14.71875 69.140625 
Q 20.953125 74.21875 31.78125 74.21875 
Q 42.671875 74.21875 48.875 69.140625 
Q 55.078125 64.0625 55.078125 55.328125 
Q 55.078125 49.078125 51.53125 44.71875 
Q 48 40.375 41.703125 38.8125 
Q 48.828125 37.15625 52.796875 32.3125 
Q 56.78125 27.484375 56.78125 20.515625 
Q 56.78125 9.90625 50.3125 4.234375 
Q 43.84375 -1.421875 31.78125 -1.421875 
Q 19.734375 -1.421875 13.25 4.234375 
Q 6.78125 9.90625 6.78125 20.515625 
Q 6.78125 27.484375 10.78125 32.3125 
Q 14.796875 37.15625 21.921875 38.8125 
z
M 18.3125 54.390625 
Q 18.3125 48.734375 21.84375 45.5625 
Q 25.390625 42.390625 31.78125 42.390625 
Q 38.140625 42.390625 41.71875 45.5625 
Q 45.3125 48.734375 45.3125 54.390625 
Q 45.3125 60.0625 41.71875 63.234375 
Q 38.140625 66.40625 31.78125 66.40625 
Q 25.390625 66.40625 21.84375 63.234375 
Q 18.3125 60.0625 18.3125 54.390625 
z
" id="DejaVuSans-38"/>
      </defs>
      <g transform="translate(31.2 189.33233)scale(0.1 -0.1)">
       <use xlink:href="#DejaVuSans-38"/>
       <use x="63.623047" xlink:href="#DejaVuSans-30"/>
      </g>
     </g>
    </g>
    <g id="ytick_5">
     <g id="line2d_19">
      <path clip-path="url(#pf324bc08c9)" d="M 50.925 149.592182 
L 1425.7 149.592182 
" style="fill:none;stroke:#b0b0b0;stroke-linecap:square;stroke-width:0.8;"/>
     </g>
     <g id="line2d_20">
      <g>
       <use style="stroke:#000000;stroke-width:0.8;" x="50.925" xlink:href="#me6c11f693d" y="149.592182"/>
      </g>
     </g>
     <g id="text_11">
      <!-- 85 -->
      <g transform="translate(31.2 153.391401)scale(0.1 -0.1)">
       <use xlink:href="#DejaVuSans-38"/>
       <use x="63.623047" xlink:href="#DejaVuSans-35"/>
      </g>
     </g>
    </g>
    <g id="ytick_6">
     <g id="line2d_21">
      <path clip-path="url(#pf324bc08c9)" d="M 50.925 113.651254 
L 1425.7 113.651254 
" style="fill:none;stroke:#b0b0b0;stroke-linecap:square;stroke-width:0.8;"/>
     </g>
     <g id="line2d_22">
      <g>
       <use style="stroke:#000000;stroke-width:0.8;" x="50.925" xlink:href="#me6c11f693d" y="113.651254"/>
      </g>
     </g>
     <g id="text_12">
      <!-- 90 -->
      <defs>
       <path d="M 10.984375 1.515625 
L 10.984375 10.5 
Q 14.703125 8.734375 18.5 7.8125 
Q 22.3125 6.890625 25.984375 6.890625 
Q 35.75 6.890625 40.890625 13.453125 
Q 46.046875 20.015625 46.78125 33.40625 
Q 43.953125 29.203125 39.59375 26.953125 
Q 35.25 24.703125 29.984375 24.703125 
Q 19.046875 24.703125 12.671875 31.3125 
Q 6.296875 37.9375 6.296875 49.421875 
Q 6.296875 60.640625 12.9375 67.421875 
Q 19.578125 74.21875 30.609375 74.21875 
Q 43.265625 74.21875 49.921875 64.515625 
Q 56.59375 54.828125 56.59375 36.375 
Q 56.59375 19.140625 48.40625 8.859375 
Q 40.234375 -1.421875 26.421875 -1.421875 
Q 22.703125 -1.421875 18.890625 -0.6875 
Q 15.09375 0.046875 10.984375 1.515625 
z
M 30.609375 32.421875 
Q 37.25 32.421875 41.125 36.953125 
Q 45.015625 41.5 45.015625 49.421875 
Q 45.015625 57.28125 41.125 61.84375 
Q 37.25 66.40625 30.609375 66.40625 
Q 23.96875 66.40625 20.09375 61.84375 
Q 16.21875 57.28125 16.21875 49.421875 
Q 16.21875 41.5 20.09375 36.953125 
Q 23.96875 32.421875 30.609375 32.421875 
z
" id="DejaVuSans-39"/>
      </defs>
      <g transform="translate(31.2 117.450473)scale(0.1 -0.1)">
       <use xlink:href="#DejaVuSans-39"/>
       <use x="63.623047" xlink:href="#DejaVuSans-30"/>
      </g>
     </g>
    </g>
    <g id="ytick_7">
     <g id="line2d_23">
      <path clip-path="url(#pf324bc08c9)" d="M 50.925 77.710325 
L 1425.7 77.710325 
" style="fill:none;stroke:#b0b0b0;stroke-linecap:square;stroke-width:0.8;"/>
     </g>
     <g id="line2d_24">
      <g>
       <use style="stroke:#000000;stroke-width:0.8;" x="50.925" xlink:href="#me6c11f693d" y="77.710325"/>
      </g>
     </g>
     <g id="text_13">
      <!-- 95 -->
      <g transform="translate(31.2 81.509544)scale(0.1 -0.1)">
       <use xlink:href="#DejaVuSans-39"/>
       <use x="63.623047" xlink:href="#DejaVuSans-35"/>
      </g>
     </g>
    </g>
    <g id="ytick_8">
     <g id="line2d_25">
      <path clip-path="url(#pf324bc08c9)" d="M 50.925 41.769397 
L 1425.7 41.769397 
" style="fill:none;stroke:#b0b0b0;stroke-linecap:square;stroke-width:0.8;"/>
     </g>
     <g id="line2d_26">
      <g>
       <use style="stroke:#000000;stroke-width:0.8;" x="50.925" xlink:href="#me6c11f693d" y="41.769397"/>
      </g>
     </g>
     <g id="text_14">
      <!-- 100 -->
      <g transform="translate(24.8375 45.568616)scale(0.1 -0.1)">
       <use xlink:href="#DejaVuSans-31"/>
       <use x="63.623047" xlink:href="#DejaVuSans-30"/>
       <use x="127.246094" xlink:href="#DejaVuSans-30"/>
      </g>
     </g>
    </g>
    <g id="text_15">
     <!-- Daily Percent Change -->
     <defs>
      <path d="M 9.421875 54.6875 
L 18.40625 54.6875 
L 18.40625 0 
L 9.421875 0 
z
M 9.421875 75.984375 
L 18.40625 75.984375 
L 18.40625 64.59375 
L 9.421875 64.59375 
z
" id="DejaVuSans-69"/>
      <path d="M 9.421875 75.984375 
L 18.40625 75.984375 
L 18.40625 0 
L 9.421875 0 
z
" id="DejaVuSans-6c"/>
      <path d="M 32.171875 -5.078125 
Q 28.375 -14.84375 24.75 -17.8125 
Q 21.140625 -20.796875 15.09375 -20.796875 
L 7.90625 -20.796875 
L 7.90625 -13.28125 
L 13.1875 -13.28125 
Q 16.890625 -13.28125 18.9375 -11.515625 
Q 21 -9.765625 23.484375 -3.21875 
L 25.09375 0.875 
L 2.984375 54.6875 
L 12.5 54.6875 
L 29.59375 11.921875 
L 46.6875 54.6875 
L 56.203125 54.6875 
z
" id="DejaVuSans-79"/>
      <path id="DejaVuSans-20"/>
      <path d="M 19.671875 64.796875 
L 19.671875 37.40625 
L 32.078125 37.40625 
Q 38.96875 37.40625 42.71875 40.96875 
Q 46.484375 44.53125 46.484375 51.125 
Q 46.484375 57.671875 42.71875 61.234375 
Q 38.96875 64.796875 32.078125 64.796875 
z
M 9.8125 72.90625 
L 32.078125 72.90625 
Q 44.34375 72.90625 50.609375 67.359375 
Q 56.890625 61.8125 56.890625 51.125 
Q 56.890625 40.328125 50.609375 34.8125 
Q 44.34375 29.296875 32.078125 29.296875 
L 19.671875 29.296875 
L 19.671875 0 
L 9.8125 0 
z
" id="DejaVuSans-50"/>
      <path d="M 41.109375 46.296875 
Q 39.59375 47.171875 37.8125 47.578125 
Q 36.03125 48 33.890625 48 
Q 26.265625 48 22.1875 43.046875 
Q 18.109375 38.09375 18.109375 28.8125 
L 18.109375 0 
L 9.078125 0 
L 9.078125 54.6875 
L 18.109375 54.6875 
L 18.109375 46.1875 
Q 20.953125 51.171875 25.484375 53.578125 
Q 30.03125 56 36.53125 56 
Q 37.453125 56 38.578125 55.875 
Q 39.703125 55.765625 41.0625 55.515625 
z
" id="DejaVuSans-72"/>
      <path d="M 48.78125 52.59375 
L 48.78125 44.1875 
Q 44.96875 46.296875 41.140625 47.34375 
Q 37.3125 48.390625 33.40625 48.390625 
Q 24.65625 48.390625 19.8125 42.84375 
Q 14.984375 37.3125 14.984375 27.296875 
Q 14.984375 17.28125 19.8125 11.734375 
Q 24.65625 6.203125 33.40625 6.203125 
Q 37.3125 6.203125 41.140625 7.25 
Q 44.96875 8.296875 48.78125 10.40625 
L 48.78125 2.09375 
Q 45.015625 0.34375 40.984375 -0.53125 
Q 36.96875 -1.421875 32.421875 -1.421875 
Q 20.0625 -1.421875 12.78125 6.34375 
Q 5.515625 14.109375 5.515625 27.296875 
Q 5.515625 40.671875 12.859375 48.328125 
Q 20.21875 56 33.015625 56 
Q 37.15625 56 41.109375 55.140625 
Q 45.0625 54.296875 48.78125 52.59375 
z
" id="DejaVuSans-63"/>
      <path d="M 54.890625 33.015625 
L 54.890625 0 
L 45.90625 0 
L 45.90625 32.71875 
Q 45.90625 40.484375 42.875 44.328125 
Q 39.84375 48.1875 33.796875 48.1875 
Q 26.515625 48.1875 22.3125 43.546875 
Q 18.109375 38.921875 18.109375 30.90625 
L 18.109375 0 
L 9.078125 0 
L 9.078125 54.6875 
L 18.109375 54.6875 
L 18.109375 46.1875 
Q 21.34375 51.125 25.703125 53.5625 
Q 30.078125 56 35.796875 56 
Q 45.21875 56 50.046875 50.171875 
Q 54.890625 44.34375 54.890625 33.015625 
z
" id="DejaVuSans-6e"/>
      <path d="M 64.40625 67.28125 
L 64.40625 56.890625 
Q 59.421875 61.53125 53.78125 63.8125 
Q 48.140625 66.109375 41.796875 66.109375 
Q 29.296875 66.109375 22.65625 58.46875 
Q 16.015625 50.828125 16.015625 36.375 
Q 16.015625 21.96875 22.65625 14.328125 
Q 29.296875 6.6875 41.796875 6.6875 
Q 48.140625 6.6875 53.78125 8.984375 
Q 59.421875 11.28125 64.40625 15.921875 
L 64.40625 5.609375 
Q 59.234375 2.09375 53.4375 0.328125 
Q 47.65625 -1.421875 41.21875 -1.421875 
Q 24.65625 -1.421875 15.125 8.703125 
Q 5.609375 18.84375 5.609375 36.375 
Q 5.609375 53.953125 15.125 64.078125 
Q 24.65625 74.21875 41.21875 74.21875 
Q 47.75 74.21875 53.53125 72.484375 
Q 59.328125 70.75 64.40625 67.28125 
z
" id="DejaVuSans-43"/>
      <path d="M 54.890625 33.015625 
L 54.890625 0 
L 45.90625 0 
L 45.90625 32.71875 
Q 45.90625 40.484375 42.875 44.328125 
Q 39.84375 48.1875 33.796875 48.1875 
Q 26.515625 48.1875 22.3125 43.546875 
Q 18.109375 38.921875 18.109375 30.90625 
L 18.109375 0 
L 9.078125 0 
L 9.078125 75.984375 
L 18.109375 75.984375 
L 18.109375 46.1875 
Q 21.34375 51.125 25.703125 53.5625 
Q 30.078125 56 35.796875 56 
Q 45.21875 56 50.046875 50.171875 
Q 54.890625 44.34375 54.890625 33.015625 
z
" id="DejaVuSans-68"/>
      <path d="M 45.40625 27.984375 
Q 45.40625 37.75 41.375 43.109375 
Q 37.359375 48.484375 30.078125 48.484375 
Q 22.859375 48.484375 18.828125 43.109375 
Q 14.796875 37.75 14.796875 27.984375 
Q 14.796875 18.265625 18.828125 12.890625 
Q 22.859375 7.515625 30.078125 7.515625 
Q 37.359375 7.515625 41.375 12.890625 
Q 45.40625 18.265625 45.40625 27.984375 
z
M 54.390625 6.78125 
Q 54.390625 -7.171875 48.1875 -13.984375 
Q 42 -20.796875 29.203125 -20.796875 
Q 24.46875 -20.796875 20.265625 -20.09375 
Q 16.0625 -19.390625 12.109375 -17.921875 
L 12.109375 -9.1875 
Q 16.0625 -11.328125 19.921875 -12.34375 
Q 23.78125 -13.375 27.78125 -13.375 
Q 36.625 -13.375 41.015625 -8.765625 
Q 45.40625 -4.15625 45.40625 5.171875 
L 45.40625 9.625 
Q 42.625 4.78125 38.28125 2.390625 
Q 33.9375 0 27.875 0 
Q 17.828125 0 11.671875 7.65625 
Q 5.515625 15.328125 5.515625 27.984375 
Q 5.515625 40.671875 11.671875 48.328125 
Q 17.828125 56 27.875 56 
Q 33.9375 56 38.28125 53.609375 
Q 42.625 51.21875 45.40625 46.390625 
L 45.40625 54.6875 
L 54.390625 54.6875 
z
" id="DejaVuSans-67"/>
     </defs>
     <g transform="translate(18.757812 215.487842)rotate(-90)scale(0.1 -0.1)">
      <use xlink:href="#DejaVuSans-44"/>
      <use x="77.001953" xlink:href="#DejaVuSans-61"/>
      <use x="138.28125" xlink:href="#DejaVuSans-69"/>
      <use x="166.064453" xlink:href="#DejaVuSans-6c"/>
      <use x="193.847656" xlink:href="#DejaVuSans-79"/>
      <use x="253.027344" xlink:href="#DejaVuSans-20"/>
      <use x="284.814453" xlink:href="#DejaVuSans-50"/>
      <use x="345.070312" xlink:href="#DejaVuSans-65"/>
      <use x="406.59375" xlink:href="#DejaVuSans-72"/>
      <use x="447.675781" xlink:href="#DejaVuSans-63"/>
      <use x="502.65625" xlink:href="#DejaVuSans-65"/>
      <use x="564.179688" xlink:href="#DejaVuSans-6e"/>
      <use x="627.558594" xlink:href="#DejaVuSans-74"/>
      <use x="666.767578" xlink:href="#DejaVuSans-20"/>
      <use x="698.554688" xlink:href="#DejaVuSans-43"/>
      <use x="768.378906" xlink:href="#DejaVuSans-68"/>
      <use x="831.757812" xlink:href="#DejaVuSans-61"/>
      <use x="893.037109" xlink:href="#DejaVuSans-6e"/>
      <use x="956.416016" xlink:href="#DejaVuSans-67"/>
      <use x="1019.892578" xlink:href="#DejaVuSans-65"/>
     </g>
    </g>
   </g>
   <g id="line2d_27">
    <path clip-path="url(#pf324bc08c9)" d="M 113.414773 52.911085 
L 131.52775 52.767321 
L 149.640728 51.904739 
L 167.753706 58.374106 
L 222.092638 69.37203 
L 240.205616 62.471372 
L 258.318594 63.046426 
L 276.431571 60.889971 
L 294.544549 73.25365 
L 348.883482 68.293802 
L 366.996459 57.870933 
L 385.109437 49.963928 
L 403.222414 47.591827 
L 421.335392 51.473447 
L 475.674325 46.297954 
L 493.787302 45.075962 
L 511.90028 40.475523 
L 530.013258 41.625633 
L 548.126235 40.259878 
L 620.578146 42.416333 
L 638.691123 39.037886 
L 656.804101 41.769397 
L 674.917078 49.316992 
L 729.256011 73.181768 
L 747.368989 93.955625 
L 765.481966 96.47149 
L 783.594944 125.799288 
L 801.707922 131.046663 
L 856.046854 102.078275 
L 874.159832 120.551912 
L 892.27281 93.596216 
L 910.385787 116.167119 
L 928.498765 127.165043 
L 982.837698 175.325887 
L 1000.950675 146.429381 
L 1019.063653 176.404115 
L 1037.17663 231.968791 
L 1055.289608 182.873482 
L 1109.628541 252.095711 
L 1127.741518 221.617803 
L 1145.854496 249.579846 
L 1163.967474 247.135863 
L 1182.080451 269.419238 
L 1236.419384 283.79561 
L 1254.532362 239.085095 
L 1272.645339 233.047019 
L 1290.758317 200.125128 
L 1308.871294 219.030056 
L 1363.210227 200.843947 
" style="fill:none;stroke:#1f77b4;stroke-linecap:square;stroke-width:1.5;"/>
   </g>
   <g id="line2d_28">
    <path clip-path="url(#pf324bc08c9)" d="M 50.925 41.769397 
L 1425.7 41.769397 
" style="fill:none;opacity:0.5;stroke:#ff0000;stroke-dasharray:5.55,2.4;stroke-dashoffset:0;stroke-width:1.5;"/>
   </g>
   <g id="patch_3">
    <path d="M 50.925 296.033496 
L 50.925 26.8 
" style="fill:none;stroke:#000000;stroke-linecap:square;stroke-linejoin:miter;stroke-width:0.8;"/>
   </g>
   <g id="patch_4">
    <path d="M 1425.7 296.033496 
L 1425.7 26.8 
" style="fill:none;stroke:#000000;stroke-linecap:square;stroke-linejoin:miter;stroke-width:0.8;"/>
   </g>
   <g id="patch_5">
    <path d="M 50.925 296.033496 
L 1425.7 296.033496 
" style="fill:none;stroke:#000000;stroke-linecap:square;stroke-linejoin:miter;stroke-width:0.8;"/>
   </g>
   <g id="patch_6">
    <path d="M 50.925 26.8 
L 1425.7 26.8 
" style="fill:none;stroke:#000000;stroke-linecap:square;stroke-linejoin:miter;stroke-width:0.8;"/>
   </g>
   <g id="patch_7">
    <path d="M 601.857718 70.185572 
Q 623.607077 58.030736 645.356436 45.875899 
L 643.405054 42.384179 
Q 650.104578 42.076788 656.804101 41.769397 
Q 653.031649 47.314368 649.259198 52.85934 
L 647.307817 49.36762 
Q 625.558458 61.522456 603.809099 73.677292 
L 601.857718 70.185572 
z
" style="fill:#808080;stroke:#808080;stroke-linecap:round;"/>
   </g>
   <g id="text_16">
    <!-- Date of Crash -->
    <defs>
     <path d="M 30.609375 48.390625 
Q 23.390625 48.390625 19.1875 42.75 
Q 14.984375 37.109375 14.984375 27.296875 
Q 14.984375 17.484375 19.15625 11.84375 
Q 23.34375 6.203125 30.609375 6.203125 
Q 37.796875 6.203125 41.984375 11.859375 
Q 46.1875 17.53125 46.1875 27.296875 
Q 46.1875 37.015625 41.984375 42.703125 
Q 37.796875 48.390625 30.609375 48.390625 
z
M 30.609375 56 
Q 42.328125 56 49.015625 48.375 
Q 55.71875 40.765625 55.71875 27.296875 
Q 55.71875 13.875 49.015625 6.21875 
Q 42.328125 -1.421875 30.609375 -1.421875 
Q 18.84375 -1.421875 12.171875 6.21875 
Q 5.515625 13.875 5.515625 27.296875 
Q 5.515625 40.765625 12.171875 48.375 
Q 18.84375 56 30.609375 56 
z
" id="DejaVuSans-6f"/>
     <path d="M 37.109375 75.984375 
L 37.109375 68.5 
L 28.515625 68.5 
Q 23.6875 68.5 21.796875 66.546875 
Q 19.921875 64.59375 19.921875 59.515625 
L 19.921875 54.6875 
L 34.71875 54.6875 
L 34.71875 47.703125 
L 19.921875 47.703125 
L 19.921875 0 
L 10.890625 0 
L 10.890625 47.703125 
L 2.296875 47.703125 
L 2.296875 54.6875 
L 10.890625 54.6875 
L 10.890625 58.5 
Q 10.890625 67.625 15.140625 71.796875 
Q 19.390625 75.984375 28.609375 75.984375 
z
" id="DejaVuSans-66"/>
     <path d="M 44.28125 53.078125 
L 44.28125 44.578125 
Q 40.484375 46.53125 36.375 47.5 
Q 32.28125 48.484375 27.875 48.484375 
Q 21.1875 48.484375 17.84375 46.4375 
Q 14.5 44.390625 14.5 40.28125 
Q 14.5 37.15625 16.890625 35.375 
Q 19.28125 33.59375 26.515625 31.984375 
L 29.59375 31.296875 
Q 39.15625 29.25 43.1875 25.515625 
Q 47.21875 21.78125 47.21875 15.09375 
Q 47.21875 7.46875 41.1875 3.015625 
Q 35.15625 -1.421875 24.609375 -1.421875 
Q 20.21875 -1.421875 15.453125 -0.5625 
Q 10.6875 0.296875 5.421875 2 
L 5.421875 11.28125 
Q 10.40625 8.6875 15.234375 7.390625 
Q 20.0625 6.109375 24.8125 6.109375 
Q 31.15625 6.109375 34.5625 8.28125 
Q 37.984375 10.453125 37.984375 14.40625 
Q 37.984375 18.0625 35.515625 20.015625 
Q 33.0625 21.96875 24.703125 23.78125 
L 21.578125 24.515625 
Q 13.234375 26.265625 9.515625 29.90625 
Q 5.8125 33.546875 5.8125 39.890625 
Q 5.8125 47.609375 11.28125 51.796875 
Q 16.75 56 26.8125 56 
Q 31.78125 56 36.171875 55.265625 
Q 40.578125 54.546875 44.28125 53.078125 
z
" id="DejaVuSans-73"/>
    </defs>
    <g transform="translate(532.169375 80.646699)scale(0.1 -0.1)">
     <use xlink:href="#DejaVuSans-44"/>
     <use x="77.001953" xlink:href="#DejaVuSans-61"/>
     <use x="138.28125" xlink:href="#DejaVuSans-74"/>
     <use x="177.490234" xlink:href="#DejaVuSans-65"/>
     <use x="239.013672" xlink:href="#DejaVuSans-20"/>
     <use x="270.800781" xlink:href="#DejaVuSans-6f"/>
     <use x="331.982422" xlink:href="#DejaVuSans-66"/>
     <use x="367.1875" xlink:href="#DejaVuSans-20"/>
     <use x="398.974609" xlink:href="#DejaVuSans-43"/>
     <use x="468.798828" xlink:href="#DejaVuSans-72"/>
     <use x="509.912109" xlink:href="#DejaVuSans-61"/>
     <use x="571.191406" xlink:href="#DejaVuSans-73"/>
     <use x="623.291016" xlink:href="#DejaVuSans-68"/>
    </g>
   </g>
   <g id="patch_8">
    <path d="M 739.258385 150.881127 
Q 755.797737 140.647217 772.337089 130.413306 
L 770.232375 127.01181 
Q 776.91366 126.405549 783.594944 125.799288 
Q 780.070731 131.507793 776.546518 137.216299 
L 774.441804 133.814803 
Q 757.902452 144.048713 741.3631 154.282624 
L 739.258385 150.881127 
z
" style="fill:#808080;stroke:#808080;stroke-linecap:round;"/>
   </g>
   <g id="text_17">
    <!-- 1 Week Post Crash -->
    <defs>
     <path d="M 3.328125 72.90625 
L 13.28125 72.90625 
L 28.609375 11.28125 
L 43.890625 72.90625 
L 54.984375 72.90625 
L 70.3125 11.28125 
L 85.59375 72.90625 
L 95.609375 72.90625 
L 77.296875 0 
L 64.890625 0 
L 49.515625 63.28125 
L 33.984375 0 
L 21.578125 0 
z
" id="DejaVuSans-57"/>
     <path d="M 9.078125 75.984375 
L 18.109375 75.984375 
L 18.109375 31.109375 
L 44.921875 54.6875 
L 56.390625 54.6875 
L 27.390625 29.109375 
L 57.625 0 
L 45.90625 0 
L 18.109375 26.703125 
L 18.109375 0 
L 9.078125 0 
z
" id="DejaVuSans-6b"/>
    </defs>
    <g transform="translate(644.396875 161.416748)scale(0.1 -0.1)">
     <use xlink:href="#DejaVuSans-31"/>
     <use x="63.623047" xlink:href="#DejaVuSans-20"/>
     <use x="95.410156" xlink:href="#DejaVuSans-57"/>
     <use x="194.208984" xlink:href="#DejaVuSans-65"/>
     <use x="255.732422" xlink:href="#DejaVuSans-65"/>
     <use x="317.255859" xlink:href="#DejaVuSans-6b"/>
     <use x="375.166016" xlink:href="#DejaVuSans-20"/>
     <use x="406.953125" xlink:href="#DejaVuSans-50"/>
     <use x="467.208984" xlink:href="#DejaVuSans-6f"/>
     <use x="528.390625" xlink:href="#DejaVuSans-73"/>
     <use x="580.490234" xlink:href="#DejaVuSans-74"/>
     <use x="619.699219" xlink:href="#DejaVuSans-20"/>
     <use x="651.486328" xlink:href="#DejaVuSans-43"/>
     <use x="721.310547" xlink:href="#DejaVuSans-72"/>
     <use x="762.423828" xlink:href="#DejaVuSans-61"/>
     <use x="823.703125" xlink:href="#DejaVuSans-73"/>
     <use x="875.802734" xlink:href="#DejaVuSans-68"/>
    </g>
   </g>
   <g id="patch_9">
    <path d="M 876.156462 150.463517 
Q 888.475182 137.056841 900.793902 123.650166 
L 897.848491 120.943775 
Q 904.117139 118.555447 910.385787 116.167119 
Q 908.535256 122.615033 906.684726 129.062947 
L 903.739314 126.356557 
Q 891.420594 139.763232 879.101874 153.169907 
L 876.156462 150.463517 
z
" style="fill:#808080;stroke:#808080;stroke-linecap:round;"/>
   </g>
   <g id="text_18">
    <!-- 2 Weeks Post Crash -->
    <g transform="translate(776.665 161.416748)scale(0.1 -0.1)">
     <use xlink:href="#DejaVuSans-32"/>
     <use x="63.623047" xlink:href="#DejaVuSans-20"/>
     <use x="95.410156" xlink:href="#DejaVuSans-57"/>
     <use x="194.208984" xlink:href="#DejaVuSans-65"/>
     <use x="255.732422" xlink:href="#DejaVuSans-65"/>
     <use x="317.255859" xlink:href="#DejaVuSans-6b"/>
     <use x="375.166016" xlink:href="#DejaVuSans-73"/>
     <use x="427.265625" xlink:href="#DejaVuSans-20"/>
     <use x="459.052734" xlink:href="#DejaVuSans-50"/>
     <use x="519.308594" xlink:href="#DejaVuSans-6f"/>
     <use x="580.490234" xlink:href="#DejaVuSans-73"/>
     <use x="632.589844" xlink:href="#DejaVuSans-74"/>
     <use x="671.798828" xlink:href="#DejaVuSans-20"/>
     <use x="703.585938" xlink:href="#DejaVuSans-43"/>
     <use x="773.410156" xlink:href="#DejaVuSans-72"/>
     <use x="814.523438" xlink:href="#DejaVuSans-61"/>
     <use x="875.802734" xlink:href="#DejaVuSans-73"/>
     <use x="927.902344" xlink:href="#DejaVuSans-68"/>
    </g>
   </g>
   <g id="patch_10">
    <path d="M 1013.332662 258.252017 
Q 1020.702119 249.14607 1028.071577 240.040123 
L 1024.962259 237.523747 
Q 1031.069445 234.746269 1037.17663 231.968791 
Q 1035.733421 238.520832 1034.290211 245.072874 
L 1031.180894 242.556498 
Q 1023.811437 251.662445 1016.441979 260.768393 
L 1013.332662 258.252017 
z
" style="fill:#808080;stroke:#808080;stroke-linecap:round;"/>
   </g>
   <g id="text_19">
    <!-- 3 Weeks Post Crash -->
    <g transform="translate(914.1425 269.110146)scale(0.1 -0.1)">
     <use xlink:href="#DejaVuSans-33"/>
     <use x="63.623047" xlink:href="#DejaVuSans-20"/>
     <use x="95.410156" xlink:href="#DejaVuSans-57"/>
     <use x="194.208984" xlink:href="#DejaVuSans-65"/>
     <use x="255.732422" xlink:href="#DejaVuSans-65"/>
     <use x="317.255859" xlink:href="#DejaVuSans-6b"/>
     <use x="375.166016" xlink:href="#DejaVuSans-73"/>
     <use x="427.265625" xlink:href="#DejaVuSans-20"/>
     <use x="459.052734" xlink:href="#DejaVuSans-50"/>
     <use x="519.308594" xlink:href="#DejaVuSans-6f"/>
     <use x="580.490234" xlink:href="#DejaVuSans-73"/>
     <use x="632.589844" xlink:href="#DejaVuSans-74"/>
     <use x="671.798828" xlink:href="#DejaVuSans-20"/>
     <use x="703.585938" xlink:href="#DejaVuSans-43"/>
     <use x="773.410156" xlink:href="#DejaVuSans-72"/>
     <use x="814.523438" xlink:href="#DejaVuSans-61"/>
     <use x="875.802734" xlink:href="#DejaVuSans-73"/>
     <use x="927.902344" xlink:href="#DejaVuSans-68"/>
    </g>
   </g>
   <g id="text_20">
    <!-- 2020 S&amp;P 500 Stock Prices -->
    <defs>
     <path d="M 53.515625 70.515625 
L 53.515625 60.890625 
Q 47.90625 63.578125 42.921875 64.890625 
Q 37.9375 66.21875 33.296875 66.21875 
Q 25.25 66.21875 20.875 63.09375 
Q 16.5 59.96875 16.5 54.203125 
Q 16.5 49.359375 19.40625 46.890625 
Q 22.3125 44.4375 30.421875 42.921875 
L 36.375 41.703125 
Q 47.40625 39.59375 52.65625 34.296875 
Q 57.90625 29 57.90625 20.125 
Q 57.90625 9.515625 50.796875 4.046875 
Q 43.703125 -1.421875 29.984375 -1.421875 
Q 24.8125 -1.421875 18.96875 -0.25 
Q 13.140625 0.921875 6.890625 3.21875 
L 6.890625 13.375 
Q 12.890625 10.015625 18.65625 8.296875 
Q 24.421875 6.59375 29.984375 6.59375 
Q 38.421875 6.59375 43.015625 9.90625 
Q 47.609375 13.234375 47.609375 19.390625 
Q 47.609375 24.75 44.3125 27.78125 
Q 41.015625 30.8125 33.5 32.328125 
L 27.484375 33.5 
Q 16.453125 35.6875 11.515625 40.375 
Q 6.59375 45.0625 6.59375 53.421875 
Q 6.59375 63.09375 13.40625 68.65625 
Q 20.21875 74.21875 32.171875 74.21875 
Q 37.3125 74.21875 42.625 73.28125 
Q 47.953125 72.359375 53.515625 70.515625 
z
" id="DejaVuSans-53"/>
     <path d="M 24.3125 39.203125 
Q 19.875 35.25 17.796875 31.3125 
Q 15.71875 27.390625 15.71875 23.09375 
Q 15.71875 15.96875 20.890625 11.234375 
Q 26.078125 6.5 33.890625 6.5 
Q 38.53125 6.5 42.578125 8.03125 
Q 46.625 9.578125 50.203125 12.703125 
z
M 31.203125 44.671875 
L 56 19.28125 
Q 58.890625 23.640625 60.5 28.59375 
Q 62.109375 33.546875 62.40625 39.109375 
L 71.484375 39.109375 
Q 70.90625 32.671875 68.359375 26.359375 
Q 65.828125 20.0625 61.28125 13.921875 
L 74.90625 0 
L 62.59375 0 
L 55.609375 7.171875 
Q 50.53125 2.828125 44.96875 0.703125 
Q 39.40625 -1.421875 33.015625 -1.421875 
Q 21.234375 -1.421875 13.765625 5.296875 
Q 6.296875 12.015625 6.296875 22.515625 
Q 6.296875 28.765625 9.5625 34.25 
Q 12.84375 39.75 19.390625 44.578125 
Q 17.046875 47.65625 15.8125 50.703125 
Q 14.59375 53.765625 14.59375 56.6875 
Q 14.59375 64.59375 20.015625 69.40625 
Q 25.4375 74.21875 34.421875 74.21875 
Q 38.484375 74.21875 42.5 73.34375 
Q 46.53125 72.46875 50.6875 70.703125 
L 50.6875 61.8125 
Q 46.4375 64.109375 42.578125 65.296875 
Q 38.71875 66.5 35.40625 66.5 
Q 30.28125 66.5 27.078125 63.78125 
Q 23.875 61.078125 23.875 56.78125 
Q 23.875 54.296875 25.3125 51.78125 
Q 26.765625 49.265625 31.203125 44.671875 
z
" id="DejaVuSans-26"/>
    </defs>
    <g transform="translate(657.38375 20.8)scale(0.12 -0.12)">
     <use xlink:href="#DejaVuSans-32"/>
     <use x="63.623047" xlink:href="#DejaVuSans-30"/>
     <use x="127.246094" xlink:href="#DejaVuSans-32"/>
     <use x="190.869141" xlink:href="#DejaVuSans-30"/>
     <use x="254.492188" xlink:href="#DejaVuSans-20"/>
     <use x="286.279297" xlink:href="#DejaVuSans-53"/>
     <use x="349.755859" xlink:href="#DejaVuSans-26"/>
     <use x="427.734375" xlink:href="#DejaVuSans-50"/>
     <use x="488.037109" xlink:href="#DejaVuSans-20"/>
     <use x="519.824219" xlink:href="#DejaVuSans-35"/>
     <use x="583.447266" xlink:href="#DejaVuSans-30"/>
     <use x="647.070312" xlink:href="#DejaVuSans-30"/>
     <use x="710.693359" xlink:href="#DejaVuSans-20"/>
     <use x="742.480469" xlink:href="#DejaVuSans-53"/>
     <use x="805.957031" xlink:href="#DejaVuSans-74"/>
     <use x="845.166016" xlink:href="#DejaVuSans-6f"/>
     <use x="906.347656" xlink:href="#DejaVuSans-63"/>
     <use x="961.328125" xlink:href="#DejaVuSans-6b"/>
     <use x="1019.238281" xlink:href="#DejaVuSans-20"/>
     <use x="1051.025391" xlink:href="#DejaVuSans-50"/>
     <use x="1111.3125" xlink:href="#DejaVuSans-72"/>
     <use x="1152.425781" xlink:href="#DejaVuSans-69"/>
     <use x="1180.208984" xlink:href="#DejaVuSans-63"/>
     <use x="1235.189453" xlink:href="#DejaVuSans-65"/>
     <use x="1296.712891" xlink:href="#DejaVuSans-73"/>
    </g>
   </g>
  </g>
  <g id="axes_2">
   <g id="patch_11">
    <path d="M 50.925 650.664746 
L 1425.7 650.664746 
L 1425.7 381.43125 
L 50.925 381.43125 
z
" style="fill:#ffffff;"/>
   </g>
   <g id="matplotlib.axis_3">
    <g id="xtick_6">
     <g id="line2d_29">
      <path clip-path="url(#p88ba6a0c45)" d="M 92.926323 650.664746 
L 92.926323 381.43125 
" style="fill:none;stroke:#b0b0b0;stroke-linecap:square;stroke-width:0.8;"/>
     </g>
     <g id="line2d_30">
      <g>
       <use style="stroke:#000000;stroke-width:0.8;" x="92.926323" xlink:href="#m7c6ddf5f4d" y="650.664746"/>
      </g>
     </g>
     <g id="text_21">
      <!-- 2008-08-28 -->
      <g transform="translate(41.556871 693.302998)rotate(-30)scale(0.1 -0.1)">
       <use xlink:href="#DejaVuSans-32"/>
       <use x="63.623047" xlink:href="#DejaVuSans-30"/>
       <use x="127.246094" xlink:href="#DejaVuSans-30"/>
       <use x="190.869141" xlink:href="#DejaVuSans-38"/>
       <use x="254.492188" xlink:href="#DejaVuSans-2d"/>
       <use x="290.576172" xlink:href="#DejaVuSans-30"/>
       <use x="354.199219" xlink:href="#DejaVuSans-38"/>
       <use x="417.822266" xlink:href="#DejaVuSans-2d"/>
       <use x="453.90625" xlink:href="#DejaVuSans-32"/>
       <use x="517.529297" xlink:href="#DejaVuSans-38"/>
      </g>
     </g>
    </g>
    <g id="xtick_7">
     <g id="line2d_31">
      <path clip-path="url(#p88ba6a0c45)" d="M 236.345473 650.664746 
L 236.345473 381.43125 
" style="fill:none;stroke:#b0b0b0;stroke-linecap:square;stroke-width:0.8;"/>
     </g>
     <g id="line2d_32">
      <g>
       <use style="stroke:#000000;stroke-width:0.8;" x="236.345473" xlink:href="#m7c6ddf5f4d" y="650.664746"/>
      </g>
     </g>
     <g id="text_22">
      <!-- 2008-09-04 -->
      <g transform="translate(184.976022 693.302998)rotate(-30)scale(0.1 -0.1)">
       <use xlink:href="#DejaVuSans-32"/>
       <use x="63.623047" xlink:href="#DejaVuSans-30"/>
       <use x="127.246094" xlink:href="#DejaVuSans-30"/>
       <use x="190.869141" xlink:href="#DejaVuSans-38"/>
       <use x="254.492188" xlink:href="#DejaVuSans-2d"/>
       <use x="290.576172" xlink:href="#DejaVuSans-30"/>
       <use x="354.199219" xlink:href="#DejaVuSans-39"/>
       <use x="417.822266" xlink:href="#DejaVuSans-2d"/>
       <use x="453.90625" xlink:href="#DejaVuSans-30"/>
       <use x="517.529297" xlink:href="#DejaVuSans-34"/>
      </g>
     </g>
    </g>
    <g id="xtick_8">
     <g id="line2d_33">
      <path clip-path="url(#p88ba6a0c45)" d="M 379.764624 650.664746 
L 379.764624 381.43125 
" style="fill:none;stroke:#b0b0b0;stroke-linecap:square;stroke-width:0.8;"/>
     </g>
     <g id="line2d_34">
      <g>
       <use style="stroke:#000000;stroke-width:0.8;" x="379.764624" xlink:href="#m7c6ddf5f4d" y="650.664746"/>
      </g>
     </g>
     <g id="text_23">
      <!-- 2008-09-11 -->
      <g transform="translate(328.395172 693.302998)rotate(-30)scale(0.1 -0.1)">
       <use xlink:href="#DejaVuSans-32"/>
       <use x="63.623047" xlink:href="#DejaVuSans-30"/>
       <use x="127.246094" xlink:href="#DejaVuSans-30"/>
       <use x="190.869141" xlink:href="#DejaVuSans-38"/>
       <use x="254.492188" xlink:href="#DejaVuSans-2d"/>
       <use x="290.576172" xlink:href="#DejaVuSans-30"/>
       <use x="354.199219" xlink:href="#DejaVuSans-39"/>
       <use x="417.822266" xlink:href="#DejaVuSans-2d"/>
       <use x="453.90625" xlink:href="#DejaVuSans-31"/>
       <use x="517.529297" xlink:href="#DejaVuSans-31"/>
      </g>
     </g>
    </g>
    <g id="xtick_9">
     <g id="line2d_35">
      <path clip-path="url(#p88ba6a0c45)" d="M 523.183774 650.664746 
L 523.183774 381.43125 
" style="fill:none;stroke:#b0b0b0;stroke-linecap:square;stroke-width:0.8;"/>
     </g>
     <g id="line2d_36">
      <g>
       <use style="stroke:#000000;stroke-width:0.8;" x="523.183774" xlink:href="#m7c6ddf5f4d" y="650.664746"/>
      </g>
     </g>
     <g id="text_24">
      <!-- 2008-09-18 -->
      <g transform="translate(471.814323 693.302998)rotate(-30)scale(0.1 -0.1)">
       <use xlink:href="#DejaVuSans-32"/>
       <use x="63.623047" xlink:href="#DejaVuSans-30"/>
       <use x="127.246094" xlink:href="#DejaVuSans-30"/>
       <use x="190.869141" xlink:href="#DejaVuSans-38"/>
       <use x="254.492188" xlink:href="#DejaVuSans-2d"/>
       <use x="290.576172" xlink:href="#DejaVuSans-30"/>
       <use x="354.199219" xlink:href="#DejaVuSans-39"/>
       <use x="417.822266" xlink:href="#DejaVuSans-2d"/>
       <use x="453.90625" xlink:href="#DejaVuSans-31"/>
       <use x="517.529297" xlink:href="#DejaVuSans-38"/>
      </g>
     </g>
    </g>
    <g id="xtick_10">
     <g id="line2d_37">
      <path clip-path="url(#p88ba6a0c45)" d="M 666.602925 650.664746 
L 666.602925 381.43125 
" style="fill:none;stroke:#b0b0b0;stroke-linecap:square;stroke-width:0.8;"/>
     </g>
     <g id="line2d_38">
      <g>
       <use style="stroke:#000000;stroke-width:0.8;" x="666.602925" xlink:href="#m7c6ddf5f4d" y="650.664746"/>
      </g>
     </g>
     <g id="text_25">
      <!-- 2008-09-25 -->
      <g transform="translate(615.233473 693.302998)rotate(-30)scale(0.1 -0.1)">
       <use xlink:href="#DejaVuSans-32"/>
       <use x="63.623047" xlink:href="#DejaVuSans-30"/>
       <use x="127.246094" xlink:href="#DejaVuSans-30"/>
       <use x="190.869141" xlink:href="#DejaVuSans-38"/>
       <use x="254.492188" xlink:href="#DejaVuSans-2d"/>
       <use x="290.576172" xlink:href="#DejaVuSans-30"/>
       <use x="354.199219" xlink:href="#DejaVuSans-39"/>
       <use x="417.822266" xlink:href="#DejaVuSans-2d"/>
       <use x="453.90625" xlink:href="#DejaVuSans-32"/>
       <use x="517.529297" xlink:href="#DejaVuSans-35"/>
      </g>
     </g>
    </g>
    <g id="xtick_11">
     <g id="line2d_39">
      <path clip-path="url(#p88ba6a0c45)" d="M 810.022075 650.664746 
L 810.022075 381.43125 
" style="fill:none;stroke:#b0b0b0;stroke-linecap:square;stroke-width:0.8;"/>
     </g>
     <g id="line2d_40">
      <g>
       <use style="stroke:#000000;stroke-width:0.8;" x="810.022075" xlink:href="#m7c6ddf5f4d" y="650.664746"/>
      </g>
     </g>
     <g id="text_26">
      <!-- 2008-10-02 -->
      <g transform="translate(758.652624 693.302998)rotate(-30)scale(0.1 -0.1)">
       <use xlink:href="#DejaVuSans-32"/>
       <use x="63.623047" xlink:href="#DejaVuSans-30"/>
       <use x="127.246094" xlink:href="#DejaVuSans-30"/>
       <use x="190.869141" xlink:href="#DejaVuSans-38"/>
       <use x="254.492188" xlink:href="#DejaVuSans-2d"/>
       <use x="290.576172" xlink:href="#DejaVuSans-31"/>
       <use x="354.199219" xlink:href="#DejaVuSans-30"/>
       <use x="417.822266" xlink:href="#DejaVuSans-2d"/>
       <use x="453.90625" xlink:href="#DejaVuSans-30"/>
       <use x="517.529297" xlink:href="#DejaVuSans-32"/>
      </g>
     </g>
    </g>
    <g id="xtick_12">
     <g id="line2d_41">
      <path clip-path="url(#p88ba6a0c45)" d="M 953.441226 650.664746 
L 953.441226 381.43125 
" style="fill:none;stroke:#b0b0b0;stroke-linecap:square;stroke-width:0.8;"/>
     </g>
     <g id="line2d_42">
      <g>
       <use style="stroke:#000000;stroke-width:0.8;" x="953.441226" xlink:href="#m7c6ddf5f4d" y="650.664746"/>
      </g>
     </g>
     <g id="text_27">
      <!-- 2008-10-09 -->
      <g transform="translate(902.071774 693.302998)rotate(-30)scale(0.1 -0.1)">
       <use xlink:href="#DejaVuSans-32"/>
       <use x="63.623047" xlink:href="#DejaVuSans-30"/>
       <use x="127.246094" xlink:href="#DejaVuSans-30"/>
       <use x="190.869141" xlink:href="#DejaVuSans-38"/>
       <use x="254.492188" xlink:href="#DejaVuSans-2d"/>
       <use x="290.576172" xlink:href="#DejaVuSans-31"/>
       <use x="354.199219" xlink:href="#DejaVuSans-30"/>
       <use x="417.822266" xlink:href="#DejaVuSans-2d"/>
       <use x="453.90625" xlink:href="#DejaVuSans-30"/>
       <use x="517.529297" xlink:href="#DejaVuSans-39"/>
      </g>
     </g>
    </g>
    <g id="xtick_13">
     <g id="line2d_43">
      <path clip-path="url(#p88ba6a0c45)" d="M 1096.860376 650.664746 
L 1096.860376 381.43125 
" style="fill:none;stroke:#b0b0b0;stroke-linecap:square;stroke-width:0.8;"/>
     </g>
     <g id="line2d_44">
      <g>
       <use style="stroke:#000000;stroke-width:0.8;" x="1096.860376" xlink:href="#m7c6ddf5f4d" y="650.664746"/>
      </g>
     </g>
     <g id="text_28">
      <!-- 2008-10-16 -->
      <g transform="translate(1045.490925 693.302998)rotate(-30)scale(0.1 -0.1)">
       <use xlink:href="#DejaVuSans-32"/>
       <use x="63.623047" xlink:href="#DejaVuSans-30"/>
       <use x="127.246094" xlink:href="#DejaVuSans-30"/>
       <use x="190.869141" xlink:href="#DejaVuSans-38"/>
       <use x="254.492188" xlink:href="#DejaVuSans-2d"/>
       <use x="290.576172" xlink:href="#DejaVuSans-31"/>
       <use x="354.199219" xlink:href="#DejaVuSans-30"/>
       <use x="417.822266" xlink:href="#DejaVuSans-2d"/>
       <use x="453.90625" xlink:href="#DejaVuSans-31"/>
       <use x="517.529297" xlink:href="#DejaVuSans-36"/>
      </g>
     </g>
    </g>
    <g id="xtick_14">
     <g id="line2d_45">
      <path clip-path="url(#p88ba6a0c45)" d="M 1240.279527 650.664746 
L 1240.279527 381.43125 
" style="fill:none;stroke:#b0b0b0;stroke-linecap:square;stroke-width:0.8;"/>
     </g>
     <g id="line2d_46">
      <g>
       <use style="stroke:#000000;stroke-width:0.8;" x="1240.279527" xlink:href="#m7c6ddf5f4d" y="650.664746"/>
      </g>
     </g>
     <g id="text_29">
      <!-- 2008-10-23 -->
      <g transform="translate(1188.910075 693.302998)rotate(-30)scale(0.1 -0.1)">
       <use xlink:href="#DejaVuSans-32"/>
       <use x="63.623047" xlink:href="#DejaVuSans-30"/>
       <use x="127.246094" xlink:href="#DejaVuSans-30"/>
       <use x="190.869141" xlink:href="#DejaVuSans-38"/>
       <use x="254.492188" xlink:href="#DejaVuSans-2d"/>
       <use x="290.576172" xlink:href="#DejaVuSans-31"/>
       <use x="354.199219" xlink:href="#DejaVuSans-30"/>
       <use x="417.822266" xlink:href="#DejaVuSans-2d"/>
       <use x="453.90625" xlink:href="#DejaVuSans-32"/>
       <use x="517.529297" xlink:href="#DejaVuSans-33"/>
      </g>
     </g>
    </g>
    <g id="xtick_15">
     <g id="line2d_47">
      <path clip-path="url(#p88ba6a0c45)" d="M 1383.698677 650.664746 
L 1383.698677 381.43125 
" style="fill:none;stroke:#b0b0b0;stroke-linecap:square;stroke-width:0.8;"/>
     </g>
     <g id="line2d_48">
      <g>
       <use style="stroke:#000000;stroke-width:0.8;" x="1383.698677" xlink:href="#m7c6ddf5f4d" y="650.664746"/>
      </g>
     </g>
     <g id="text_30">
      <!-- 2008-10-30 -->
      <g transform="translate(1332.329226 693.302998)rotate(-30)scale(0.1 -0.1)">
       <use xlink:href="#DejaVuSans-32"/>
       <use x="63.623047" xlink:href="#DejaVuSans-30"/>
       <use x="127.246094" xlink:href="#DejaVuSans-30"/>
       <use x="190.869141" xlink:href="#DejaVuSans-38"/>
       <use x="254.492188" xlink:href="#DejaVuSans-2d"/>
       <use x="290.576172" xlink:href="#DejaVuSans-31"/>
       <use x="354.199219" xlink:href="#DejaVuSans-30"/>
       <use x="417.822266" xlink:href="#DejaVuSans-2d"/>
       <use x="453.90625" xlink:href="#DejaVuSans-33"/>
       <use x="517.529297" xlink:href="#DejaVuSans-30"/>
      </g>
     </g>
    </g>
    <g id="text_31">
     <!-- Date -->
     <g transform="translate(726.361719 706.702498)scale(0.1 -0.1)">
      <use xlink:href="#DejaVuSans-44"/>
      <use x="77.001953" xlink:href="#DejaVuSans-61"/>
      <use x="138.28125" xlink:href="#DejaVuSans-74"/>
      <use x="177.490234" xlink:href="#DejaVuSans-65"/>
     </g>
    </g>
   </g>
   <g id="matplotlib.axis_4">
    <g id="ytick_9">
     <g id="line2d_49">
      <path clip-path="url(#p88ba6a0c45)" d="M 50.925 649.225913 
L 1425.7 649.225913 
" style="fill:none;stroke:#b0b0b0;stroke-linecap:square;stroke-width:0.8;"/>
     </g>
     <g id="line2d_50">
      <g>
       <use style="stroke:#000000;stroke-width:0.8;" x="50.925" xlink:href="#me6c11f693d" y="649.225913"/>
      </g>
     </g>
     <g id="text_32">
      <!-- 75 -->
      <g transform="translate(31.2 653.025131)scale(0.1 -0.1)">
       <use xlink:href="#DejaVuSans-37"/>
       <use x="63.623047" xlink:href="#DejaVuSans-35"/>
      </g>
     </g>
    </g>
    <g id="ytick_10">
     <g id="line2d_51">
      <path clip-path="url(#p88ba6a0c45)" d="M 50.925 618.014777 
L 1425.7 618.014777 
" style="fill:none;stroke:#b0b0b0;stroke-linecap:square;stroke-width:0.8;"/>
     </g>
     <g id="line2d_52">
      <g>
       <use style="stroke:#000000;stroke-width:0.8;" x="50.925" xlink:href="#me6c11f693d" y="618.014777"/>
      </g>
     </g>
     <g id="text_33">
      <!-- 80 -->
      <g transform="translate(31.2 621.813996)scale(0.1 -0.1)">
       <use xlink:href="#DejaVuSans-38"/>
       <use x="63.623047" xlink:href="#DejaVuSans-30"/>
      </g>
     </g>
    </g>
    <g id="ytick_11">
     <g id="line2d_53">
      <path clip-path="url(#p88ba6a0c45)" d="M 50.925 586.803642 
L 1425.7 586.803642 
" style="fill:none;stroke:#b0b0b0;stroke-linecap:square;stroke-width:0.8;"/>
     </g>
     <g id="line2d_54">
      <g>
       <use style="stroke:#000000;stroke-width:0.8;" x="50.925" xlink:href="#me6c11f693d" y="586.803642"/>
      </g>
     </g>
     <g id="text_34">
      <!-- 85 -->
      <g transform="translate(31.2 590.602861)scale(0.1 -0.1)">
       <use xlink:href="#DejaVuSans-38"/>
       <use x="63.623047" xlink:href="#DejaVuSans-35"/>
      </g>
     </g>
    </g>
    <g id="ytick_12">
     <g id="line2d_55">
      <path clip-path="url(#p88ba6a0c45)" d="M 50.925 555.592506 
L 1425.7 555.592506 
" style="fill:none;stroke:#b0b0b0;stroke-linecap:square;stroke-width:0.8;"/>
     </g>
     <g id="line2d_56">
      <g>
       <use style="stroke:#000000;stroke-width:0.8;" x="50.925" xlink:href="#me6c11f693d" y="555.592506"/>
      </g>
     </g>
     <g id="text_35">
      <!-- 90 -->
      <g transform="translate(31.2 559.391725)scale(0.1 -0.1)">
       <use xlink:href="#DejaVuSans-39"/>
       <use x="63.623047" xlink:href="#DejaVuSans-30"/>
      </g>
     </g>
    </g>
    <g id="ytick_13">
     <g id="line2d_57">
      <path clip-path="url(#p88ba6a0c45)" d="M 50.925 524.381371 
L 1425.7 524.381371 
" style="fill:none;stroke:#b0b0b0;stroke-linecap:square;stroke-width:0.8;"/>
     </g>
     <g id="line2d_58">
      <g>
       <use style="stroke:#000000;stroke-width:0.8;" x="50.925" xlink:href="#me6c11f693d" y="524.381371"/>
      </g>
     </g>
     <g id="text_36">
      <!-- 95 -->
      <g transform="translate(31.2 528.18059)scale(0.1 -0.1)">
       <use xlink:href="#DejaVuSans-39"/>
       <use x="63.623047" xlink:href="#DejaVuSans-35"/>
      </g>
     </g>
    </g>
    <g id="ytick_14">
     <g id="line2d_59">
      <path clip-path="url(#p88ba6a0c45)" d="M 50.925 493.170236 
L 1425.7 493.170236 
" style="fill:none;stroke:#b0b0b0;stroke-linecap:square;stroke-width:0.8;"/>
     </g>
     <g id="line2d_60">
      <g>
       <use style="stroke:#000000;stroke-width:0.8;" x="50.925" xlink:href="#me6c11f693d" y="493.170236"/>
      </g>
     </g>
     <g id="text_37">
      <!-- 100 -->
      <g transform="translate(24.8375 496.969455)scale(0.1 -0.1)">
       <use xlink:href="#DejaVuSans-31"/>
       <use x="63.623047" xlink:href="#DejaVuSans-30"/>
       <use x="127.246094" xlink:href="#DejaVuSans-30"/>
      </g>
     </g>
    </g>
    <g id="ytick_15">
     <g id="line2d_61">
      <path clip-path="url(#p88ba6a0c45)" d="M 50.925 461.9591 
L 1425.7 461.9591 
" style="fill:none;stroke:#b0b0b0;stroke-linecap:square;stroke-width:0.8;"/>
     </g>
     <g id="line2d_62">
      <g>
       <use style="stroke:#000000;stroke-width:0.8;" x="50.925" xlink:href="#me6c11f693d" y="461.9591"/>
      </g>
     </g>
     <g id="text_38">
      <!-- 105 -->
      <g transform="translate(24.8375 465.758319)scale(0.1 -0.1)">
       <use xlink:href="#DejaVuSans-31"/>
       <use x="63.623047" xlink:href="#DejaVuSans-30"/>
       <use x="127.246094" xlink:href="#DejaVuSans-35"/>
      </g>
     </g>
    </g>
    <g id="ytick_16">
     <g id="line2d_63">
      <path clip-path="url(#p88ba6a0c45)" d="M 50.925 430.747965 
L 1425.7 430.747965 
" style="fill:none;stroke:#b0b0b0;stroke-linecap:square;stroke-width:0.8;"/>
     </g>
     <g id="line2d_64">
      <g>
       <use style="stroke:#000000;stroke-width:0.8;" x="50.925" xlink:href="#me6c11f693d" y="430.747965"/>
      </g>
     </g>
     <g id="text_39">
      <!-- 110 -->
      <g transform="translate(24.8375 434.547184)scale(0.1 -0.1)">
       <use xlink:href="#DejaVuSans-31"/>
       <use x="63.623047" xlink:href="#DejaVuSans-31"/>
       <use x="127.246094" xlink:href="#DejaVuSans-30"/>
      </g>
     </g>
    </g>
    <g id="ytick_17">
     <g id="line2d_65">
      <path clip-path="url(#p88ba6a0c45)" d="M 50.925 399.53683 
L 1425.7 399.53683 
" style="fill:none;stroke:#b0b0b0;stroke-linecap:square;stroke-width:0.8;"/>
     </g>
     <g id="line2d_66">
      <g>
       <use style="stroke:#000000;stroke-width:0.8;" x="50.925" xlink:href="#me6c11f693d" y="399.53683"/>
      </g>
     </g>
     <g id="text_40">
      <!-- 115 -->
      <g transform="translate(24.8375 403.336048)scale(0.1 -0.1)">
       <use xlink:href="#DejaVuSans-31"/>
       <use x="63.623047" xlink:href="#DejaVuSans-31"/>
       <use x="127.246094" xlink:href="#DejaVuSans-35"/>
      </g>
     </g>
    </g>
    <g id="text_41">
     <!-- Daily Percent Change -->
     <g transform="translate(18.757812 570.119092)rotate(-90)scale(0.1 -0.1)">
      <use xlink:href="#DejaVuSans-44"/>
      <use x="77.001953" xlink:href="#DejaVuSans-61"/>
      <use x="138.28125" xlink:href="#DejaVuSans-69"/>
      <use x="166.064453" xlink:href="#DejaVuSans-6c"/>
      <use x="193.847656" xlink:href="#DejaVuSans-79"/>
      <use x="253.027344" xlink:href="#DejaVuSans-20"/>
      <use x="284.814453" xlink:href="#DejaVuSans-50"/>
      <use x="345.070312" xlink:href="#DejaVuSans-65"/>
      <use x="406.59375" xlink:href="#DejaVuSans-72"/>
      <use x="447.675781" xlink:href="#DejaVuSans-63"/>
      <use x="502.65625" xlink:href="#DejaVuSans-65"/>
      <use x="564.179688" xlink:href="#DejaVuSans-6e"/>
      <use x="627.558594" xlink:href="#DejaVuSans-74"/>
      <use x="666.767578" xlink:href="#DejaVuSans-20"/>
      <use x="698.554688" xlink:href="#DejaVuSans-43"/>
      <use x="768.378906" xlink:href="#DejaVuSans-68"/>
      <use x="831.757812" xlink:href="#DejaVuSans-61"/>
      <use x="893.037109" xlink:href="#DejaVuSans-6e"/>
      <use x="956.416016" xlink:href="#DejaVuSans-67"/>
      <use x="1019.892578" xlink:href="#DejaVuSans-65"/>
     </g>
    </g>
   </g>
   <g id="line2d_67">
    <path clip-path="url(#p88ba6a0c45)" d="M 113.414773 393.669136 
L 195.368573 396.602983 
L 215.857023 398.101117 
L 236.345473 419.574379 
L 256.833923 416.515687 
L 318.299273 402.158565 
L 338.787724 426.565673 
L 359.276174 422.320958 
L 379.764624 412.707929 
L 400.253074 411.209794 
L 461.718424 444.480865 
L 482.206874 432.683055 
L 502.695324 464.955369 
L 523.183774 436.678081 
L 543.672224 409.274704 
L 605.137575 436.365969 
L 625.626025 447.040178 
L 646.114475 448.351045 
L 666.602925 435.179946 
L 687.091375 432.870322 
L 748.556725 493.170236 
L 769.045175 459.337365 
L 789.533625 462.333634 
L 810.022075 488.738255 
L 830.510525 497.227683 
L 891.975876 521.135413 
L 912.464326 555.342817 
L 932.952776 561.709889 
L 953.441226 604.032189 
L 973.929676 610.087149 
L 1035.395026 551.347792 
L 1055.883476 554.344061 
L 1076.371926 605.218212 
L 1096.860376 583.432839 
L 1117.348826 586.74122 
L 1178.814177 561.4602 
L 1199.302627 578.563902 
L 1219.791077 611.460439 
L 1240.279527 605.030945 
L 1260.767977 622.75887 
L 1322.233327 638.42686 
L 1342.721777 586.803642 
L 1363.210227 592.671335 
" style="fill:none;stroke:#1f77b4;stroke-linecap:square;stroke-width:1.5;"/>
   </g>
   <g id="line2d_68">
    <path clip-path="url(#p88ba6a0c45)" d="M 50.925 493.170236 
L 1425.7 493.170236 
" style="fill:none;opacity:0.5;stroke:#ff0000;stroke-dasharray:5.55,2.4;stroke-dashoffset:0;stroke-width:1.5;"/>
   </g>
   <g id="patch_12">
    <path d="M 50.925 650.664746 
L 50.925 381.43125 
" style="fill:none;stroke:#000000;stroke-linecap:square;stroke-linejoin:miter;stroke-width:0.8;"/>
   </g>
   <g id="patch_13">
    <path d="M 1425.7 650.664746 
L 1425.7 381.43125 
" style="fill:none;stroke:#000000;stroke-linecap:square;stroke-linejoin:miter;stroke-width:0.8;"/>
   </g>
   <g id="patch_14">
    <path d="M 50.925 650.664746 
L 1425.7 650.664746 
" style="fill:none;stroke:#000000;stroke-linecap:square;stroke-linejoin:miter;stroke-width:0.8;"/>
   </g>
   <g id="patch_15">
    <path d="M 50.925 381.43125 
L 1425.7 381.43125 
" style="fill:none;stroke:#000000;stroke-linecap:square;stroke-linejoin:miter;stroke-width:0.8;"/>
   </g>
   <g id="patch_16">
    <path d="M 737.99437 505.332625 
Q 739.103757 503.677967 740.213143 502.02331 
L 736.890775 499.795785 
Q 742.72375 496.48301 748.556725 493.170236 
Q 747.707302 499.824299 746.857879 506.478362 
L 743.535511 504.250836 
Q 742.426125 505.905493 741.316738 507.56015 
L 737.99437 505.332625 
z
" style="fill:#808080;stroke:#808080;stroke-linecap:round;"/>
   </g>
   <g id="text_42">
    <!-- Date of Crash -->
    <g transform="translate(669.646875 516.047998)scale(0.1 -0.1)">
     <use xlink:href="#DejaVuSans-44"/>
     <use x="77.001953" xlink:href="#DejaVuSans-61"/>
     <use x="138.28125" xlink:href="#DejaVuSans-74"/>
     <use x="177.490234" xlink:href="#DejaVuSans-65"/>
     <use x="239.013672" xlink:href="#DejaVuSans-20"/>
     <use x="270.800781" xlink:href="#DejaVuSans-6f"/>
     <use x="331.982422" xlink:href="#DejaVuSans-66"/>
     <use x="367.1875" xlink:href="#DejaVuSans-20"/>
     <use x="398.974609" xlink:href="#DejaVuSans-43"/>
     <use x="468.798828" xlink:href="#DejaVuSans-72"/>
     <use x="509.912109" xlink:href="#DejaVuSans-61"/>
     <use x="571.191406" xlink:href="#DejaVuSans-73"/>
     <use x="623.291016" xlink:href="#DejaVuSans-68"/>
    </g>
   </g>
   <g id="patch_17">
    <path d="M 874.716099 559.562076 
Q 880.219394 545.567139 885.72269 531.572202 
L 882.000162 530.108375 
Q 886.988019 525.621894 891.975876 521.135413 
Q 892.57181 527.817635 893.167744 534.499857 
L 889.445217 533.036029 
Q 883.941922 547.030966 878.438626 561.025903 
L 874.716099 559.562076 
z
" style="fill:#808080;stroke:#808080;stroke-linecap:round;"/>
   </g>
   <g id="text_43">
    <!-- 1 Week Post Crash -->
    <g transform="translate(781.874375 569.894697)scale(0.1 -0.1)">
     <use xlink:href="#DejaVuSans-31"/>
     <use x="63.623047" xlink:href="#DejaVuSans-20"/>
     <use x="95.410156" xlink:href="#DejaVuSans-57"/>
     <use x="194.208984" xlink:href="#DejaVuSans-65"/>
     <use x="255.732422" xlink:href="#DejaVuSans-65"/>
     <use x="317.255859" xlink:href="#DejaVuSans-6b"/>
     <use x="375.166016" xlink:href="#DejaVuSans-20"/>
     <use x="406.953125" xlink:href="#DejaVuSans-50"/>
     <use x="467.208984" xlink:href="#DejaVuSans-6f"/>
     <use x="528.390625" xlink:href="#DejaVuSans-73"/>
     <use x="580.490234" xlink:href="#DejaVuSans-74"/>
     <use x="619.699219" xlink:href="#DejaVuSans-20"/>
     <use x="651.486328" xlink:href="#DejaVuSans-43"/>
     <use x="721.310547" xlink:href="#DejaVuSans-72"/>
     <use x="762.423828" xlink:href="#DejaVuSans-61"/>
     <use x="823.703125" xlink:href="#DejaVuSans-73"/>
     <use x="875.802734" xlink:href="#DejaVuSans-68"/>
    </g>
   </g>
   <g id="patch_18">
    <path d="M 1016.263694 519.01816 
Q 1023.334851 529.634104 1030.406007 540.250048 
L 1033.735097 538.03258 
Q 1034.565061 544.690186 1035.395026 551.347792 
Q 1029.571427 548.016388 1023.747828 544.684983 
L 1027.076918 542.467515 
Q 1020.005761 531.851571 1012.934604 521.235627 
L 1016.263694 519.01816 
z
" style="fill:#808080;stroke:#808080;stroke-linecap:round;"/>
   </g>
   <g id="text_44">
    <!-- 2 Weeks Post Crash -->
    <g transform="translate(914.1425 516.047998)scale(0.1 -0.1)">
     <use xlink:href="#DejaVuSans-32"/>
     <use x="63.623047" xlink:href="#DejaVuSans-20"/>
     <use x="95.410156" xlink:href="#DejaVuSans-57"/>
     <use x="194.208984" xlink:href="#DejaVuSans-65"/>
     <use x="255.732422" xlink:href="#DejaVuSans-65"/>
     <use x="317.255859" xlink:href="#DejaVuSans-6b"/>
     <use x="375.166016" xlink:href="#DejaVuSans-73"/>
     <use x="427.265625" xlink:href="#DejaVuSans-20"/>
     <use x="459.052734" xlink:href="#DejaVuSans-50"/>
     <use x="519.308594" xlink:href="#DejaVuSans-6f"/>
     <use x="580.490234" xlink:href="#DejaVuSans-73"/>
     <use x="632.589844" xlink:href="#DejaVuSans-74"/>
     <use x="671.798828" xlink:href="#DejaVuSans-20"/>
     <use x="703.585938" xlink:href="#DejaVuSans-43"/>
     <use x="773.410156" xlink:href="#DejaVuSans-72"/>
     <use x="814.523438" xlink:href="#DejaVuSans-61"/>
     <use x="875.802734" xlink:href="#DejaVuSans-73"/>
     <use x="927.902344" xlink:href="#DejaVuSans-68"/>
    </g>
   </g>
   <g id="patch_19">
    <path d="M 1149.991929 613.230432 
Q 1160.772638 592.228074 1171.553347 571.225716 
L 1167.994783 569.399072 
Q 1173.40448 565.429636 1178.814177 561.4602 
Q 1178.742325 568.169602 1178.670473 574.879004 
L 1175.11191 573.05236 
Q 1164.331201 594.054718 1153.550492 615.057076 
L 1149.991929 613.230432 
z
" style="fill:#808080;stroke:#808080;stroke-linecap:round;"/>
   </g>
   <g id="text_45">
    <!-- 3 Weeks Post Crash -->
    <g transform="translate(1051.62 623.741396)scale(0.1 -0.1)">
     <use xlink:href="#DejaVuSans-33"/>
     <use x="63.623047" xlink:href="#DejaVuSans-20"/>
     <use x="95.410156" xlink:href="#DejaVuSans-57"/>
     <use x="194.208984" xlink:href="#DejaVuSans-65"/>
     <use x="255.732422" xlink:href="#DejaVuSans-65"/>
     <use x="317.255859" xlink:href="#DejaVuSans-6b"/>
     <use x="375.166016" xlink:href="#DejaVuSans-73"/>
     <use x="427.265625" xlink:href="#DejaVuSans-20"/>
     <use x="459.052734" xlink:href="#DejaVuSans-50"/>
     <use x="519.308594" xlink:href="#DejaVuSans-6f"/>
     <use x="580.490234" xlink:href="#DejaVuSans-73"/>
     <use x="632.589844" xlink:href="#DejaVuSans-74"/>
     <use x="671.798828" xlink:href="#DejaVuSans-20"/>
     <use x="703.585938" xlink:href="#DejaVuSans-43"/>
     <use x="773.410156" xlink:href="#DejaVuSans-72"/>
     <use x="814.523438" xlink:href="#DejaVuSans-61"/>
     <use x="875.802734" xlink:href="#DejaVuSans-73"/>
     <use x="927.902344" xlink:href="#DejaVuSans-68"/>
    </g>
   </g>
   <g id="text_46">
    <!-- 2008 S&amp;P 500 Stock Prices -->
    <g transform="translate(657.38375 375.43125)scale(0.12 -0.12)">
     <use xlink:href="#DejaVuSans-32"/>
     <use x="63.623047" xlink:href="#DejaVuSans-30"/>
     <use x="127.246094" xlink:href="#DejaVuSans-30"/>
     <use x="190.869141" xlink:href="#DejaVuSans-38"/>
     <use x="254.492188" xlink:href="#DejaVuSans-20"/>
     <use x="286.279297" xlink:href="#DejaVuSans-53"/>
     <use x="349.755859" xlink:href="#DejaVuSans-26"/>
     <use x="427.734375" xlink:href="#DejaVuSans-50"/>
     <use x="488.037109" xlink:href="#DejaVuSans-20"/>
     <use x="519.824219" xlink:href="#DejaVuSans-35"/>
     <use x="583.447266" xlink:href="#DejaVuSans-30"/>
     <use x="647.070312" xlink:href="#DejaVuSans-30"/>
     <use x="710.693359" xlink:href="#DejaVuSans-20"/>
     <use x="742.480469" xlink:href="#DejaVuSans-53"/>
     <use x="805.957031" xlink:href="#DejaVuSans-74"/>
     <use x="845.166016" xlink:href="#DejaVuSans-6f"/>
     <use x="906.347656" xlink:href="#DejaVuSans-63"/>
     <use x="961.328125" xlink:href="#DejaVuSans-6b"/>
     <use x="1019.238281" xlink:href="#DejaVuSans-20"/>
     <use x="1051.025391" xlink:href="#DejaVuSans-50"/>
     <use x="1111.3125" xlink:href="#DejaVuSans-72"/>
     <use x="1152.425781" xlink:href="#DejaVuSans-69"/>
     <use x="1180.208984" xlink:href="#DejaVuSans-63"/>
     <use x="1235.189453" xlink:href="#DejaVuSans-65"/>
     <use x="1296.712891" xlink:href="#DejaVuSans-73"/>
    </g>
   </g>
  </g>
 </g>
 <defs>
  <clipPath id="pf324bc08c9">
   <rect height="269.233496" width="1374.775" x="50.925" y="26.8"/>
  </clipPath>
  <clipPath id="p88ba6a0c45">
   <rect height="269.233496" width="1374.775" x="50.925" y="381.43125"/>
  </clipPath>
 </defs>
</svg>
